<?xml version="1.0" encoding="UTF-8" standalone="no"?>
<!DOCTYPE svg  PUBLIC '-//W3C//DTD SVG 1.1//EN'  'http://www.w3.org/Graphics/SVG/1.1/DTD/svg11.dtd'>
<svg xmlns="http://www.w3.org/2000/svg">
<defs>
<font id="AvantGardEF-Medium" horiz-adv-x="500">
<font-face underline-position="-156" font-weight="500" descent="-200" panose-1="0 0 0 0 0 0 0 0 0 0" units-per-em="1000" unicode-range="U+0020-20AC" bbox="-100 -250 995 913" x-height="500" underline-thickness="20" font-family="AvantGardEF" ascent="800" cap-height="667"/>
<missing-glyph horiz-adv-x="1000"/>
<glyph glyph-name=".notdef" horiz-adv-x="1000"/>
<glyph glyph-name=".null" horiz-adv-x="0"/>
<glyph glyph-name="nonmarkingreturn" horiz-adv-x="333"/>
<glyph glyph-name="space" horiz-adv-x="250" unicode=" "/>
<glyph glyph-name="exclam" horiz-adv-x="240" unicode="!" d="M167 0h-94v110h94v-110zM167 164h-94v503h94v-503z"/>
<glyph glyph-name="quotedbl" horiz-adv-x="354" unicode='&quot;' d="M149 667l-17 -268h-66l-17 268h100zM305 667l-17 -268h-66l-17 268h100z"/>
<glyph glyph-name="numbersign" horiz-adv-x="600" unicode="#" d="M375 399h-120l-18 -118h120zM586 481l-13 -82h-106l-18 -118h107l-12 -82h-108l-31 -199h-92l31 199h-119l-32 -199h-91l31 199h-108l12 82h109l18 118h-108l12 82h108l29 186h92l-29 -186h119l29 186h93l-29 -186h106z"/>
<glyph glyph-name="dollar" d="M425 208q0 -68 -38 -116.5t-104 -65.5v-100h-85v100q-142 33 -150 181h83q4 -45 31.5 -73t72.5 -28q43 0 70 30t27 73q0 46 -30 68t-85 36q-32 9 -46 13.5t-33 17.5t-33 34q-30 46 -30 98q0 60 33 104.5t90 60.5v101h85v-101q123 -22 133 -156h-84q-12 76 -80 76 q-37 0 -60.5 -23.5t-23.5 -61.5q0 -11 1.5 -20t6 -16t7.5 -12.5t11.5 -10.5t12.5 -7.5t16 -6.5t15.5 -5.5t18.5 -5t18 -4.5q45 -12 72 -27t48 -47q30 -44 30 -106z" unicode="$"/>
<glyph glyph-name="percent" horiz-adv-x="877" unicode="%" d="M309 510q0 42 -29.5 71.5t-71.5 29.5t-71 -29.5t-29 -71.5t29 -72t71 -30t71.5 30t29.5 72zM769 158q0 42 -29.5 71.5t-71.5 29.5q-41 0 -70.5 -30t-29.5 -71q0 -42 29 -72t71 -30t71.5 30t29.5 72zM383 511q0 -72 -51.5 -122t-123.5 -50t-123 50t-51 122q0 71 51.5 120 t122.5 49q72 0 123.5 -49t51.5 -120zM606 667l-277 -667h-58l279 667h56zM843 159q0 -72 -51.5 -122t-123.5 -50t-123 50t-51 122q0 71 51.5 120t122.5 49t123 -49t52 -120z"/>
<glyph glyph-name="ampersand" horiz-adv-x="627" unicode="&amp;" d="M367 171l-141 138q-45 -24 -70 -52.5t-25 -70.5q0 -45 31 -74.5t76 -29.5q81 0 129 89zM337 513q0 30 -20.5 50.5t-50.5 20.5q-32 0 -51.5 -21.5t-19.5 -53.5q0 -10 2.5 -20t5.5 -16.5t10.5 -16t11.5 -13.5t14.5 -14t13.5 -13q2 1 13.5 7.5t14 8.5t12 8t12.5 9t10 9.5 t9.5 11.5t6.5 12t5 14.5t1 16.5zM613 52l-65 -65l-116 117q-79 -117 -194 -117q-85 0 -144.5 57t-59.5 142q0 64 34.5 116t93.5 74q-35 37 -49.5 64t-14.5 69q0 72 48.5 121.5t120.5 49.5q71 0 118.5 -50t47.5 -121q0 -106 -112 -160l88 -87l74 148h108l-112 -220z"/>
<glyph glyph-name="quotesingle" horiz-adv-x="198" unicode="&apos;" d="M149 667l-17 -268h-66l-17 268h100z"/>
<glyph glyph-name="parenleft" horiz-adv-x="326" unicode="(" d="M306 -180q-58 28 -112.5 78.5t-89.5 107.5q-70 113 -70 247q0 132 73.5 250t192.5 177v-109q-95 -80 -129 -148q-40 -80 -40 -169q0 -147 92 -251q22 -25 83 -73v-110z"/>
<glyph glyph-name="parenright" horiz-adv-x="326" unicode=")" d="M292 247q0 -133 -74 -250.5t-193 -176.5v109q48 40 78 72.5t52 75.5q40 79 40 168q0 145 -93 252q-21 25 -82 73v110q59 -28 113 -78t89 -108q70 -113 70 -247z"/>
<glyph glyph-name="asterisk" d="M422 519l-124 -38l78 -104l-51 -37l-75 106l-75 -107l-51 38l78 104l-124 38l20 60l122 -42l-2 130h64l-2 -130l122 42z" unicode="*"/>
<glyph glyph-name="plus" d="M467 293h-172v-165h-90v165h-172v84h172v165h90v-165h172v-84z" unicode="+"/>
<glyph glyph-name="comma" horiz-adv-x="213" unicode="," d="M153 10q0 -106 -93 -125v56q21 8 27 21t6 38h-33v110h93v-100z"/>
<glyph glyph-name="hyphen" horiz-adv-x="251" unicode="-" d="M251 210h-251v93h251v-93z"/>
<glyph glyph-name="period" horiz-adv-x="213" unicode="." d="M153 0h-93v110h93v-110z"/>
<glyph glyph-name="slash" horiz-adv-x="402" unicode="/" d="M356 667l-285 -834h-81l284 834h82z"/>
<glyph glyph-name="zero" d="M372 214v246q0 60 -31 97.5t-90 37.5q-58 0 -90.5 -38t-32.5 -97v-246q0 -63 31.5 -102.5t92.5 -39.5q59 0 89.5 40.5t30.5 101.5zM466 214q0 -60 -17 -101.5t-61 -76.5q-63 -49 -139 -49q-58 0 -108 29t-79 79q-18 30 -23 56.5t-5 69.5v233q0 97 60.5 161.5t157.5 64.5 q93 0 153.5 -63.5t60.5 -156.5v-246z" unicode="0"/>
<glyph glyph-name="one" d="M318 0h-93v581h-99v86h192v-667z" unicode="1"/>
<glyph glyph-name="two" d="M457 0h-418v78l263 267q60 62 60 122q0 51 -32 89.5t-82 38.5q-56 0 -87.5 -41t-31.5 -98q0 -11 1 -17h-94v7q0 99 56 166.5t153 67.5q88 0 149.5 -64t61.5 -152q0 -54 -24 -97.5t-69 -90.5l-185 -191h279v-85z" unicode="2"/>
<glyph glyph-name="three" d="M454 198q0 -89 -64 -150t-154 -61q-88 0 -150.5 60.5t-62.5 148.5h93q2 -56 35.5 -90t89.5 -34q50 0 85 36.5t35 87.5q0 52 -36.5 85.5t-88.5 33.5h-34v94h32q44 0 71 25t27 69q0 38 -26 65t-64 27q-40 0 -62.5 -26.5t-27.5 -68.5h-93q5 79 56 129.5t130 50.5t129.5 -55 t50.5 -134q0 -42 -13.5 -68.5t-47.5 -57.5q90 -57 90 -167z" unicode="3"/>
<glyph glyph-name="four" d="M315 190v320l-197 -320h197zM479 105h-70v-105h-94v105h-304v90l304 472h94v-477h70v-85z" unicode="4"/>
<glyph glyph-name="five" d="M474 226q0 -100 -64.5 -169.5t-163.5 -69.5q-94 0 -155.5 59.5t-70.5 154.5h93q10 -56 45 -92.5t89 -36.5q57 0 95.5 44.5t38.5 102.5q0 64 -37.5 110t-100.5 46q-66 0 -112 -69l-81 18l56 343h304v-86h-227l-25 -147q40 26 93 26q97 0 160 -68t63 -166z" unicode="5"/>
<glyph glyph-name="six" d="M387 217q0 59 -38 104.5t-96 45.5q-60 0 -100 -44t-40 -104q0 -59 39.5 -103t98.5 -44q58 0 97 43.5t39 101.5zM480 227q0 -100 -64.5 -170t-164.5 -70q-96 0 -163.5 69t-67.5 165q0 74 50 153l187 293h111l-141 -219q26 4 39 4q93 0 153.5 -66t60.5 -159z" unicode="6"/>
<glyph glyph-name="seven" d="M451 581l-245 -581h-104l252 581h-290v86h387v-86z" unicode="7"/>
<glyph glyph-name="eight" d="M367 194q0 49 -34.5 85t-82.5 36q-49 0 -83 -37t-34 -87q0 -48 34 -83.5t82 -35.5q50 0 84 36.5t34 85.5zM337 504q0 37 -24.5 64t-61.5 27t-62 -27t-25 -65t24.5 -65t61.5 -27q39 0 63 27t24 66zM461 199q0 -87 -62 -149.5t-149 -62.5q-88 0 -149.5 60.5t-61.5 148.5 q0 104 87 172q-55 54 -55 129t53 129t128 54q74 0 126.5 -54.5t52.5 -128.5q0 -77 -59 -129q89 -60 89 -169z" unicode="8"/>
<glyph glyph-name="nine" d="M387 449q0 59 -40 102.5t-98 43.5t-97 -43.5t-39 -101.5q0 -59 38.5 -104t96.5 -45q61 0 100 43.5t39 104.5zM480 447q0 -75 -51 -154l-186 -293h-111l142 219q-26 -4 -39 -4q-92 0 -153.5 66t-61.5 159q0 100 64.5 170t164.5 70q96 0 163.5 -68.5t67.5 -164.5z" unicode="9"/>
<glyph glyph-name="colon" horiz-adv-x="213" unicode=":" d="M153 0h-93v110h93v-110zM153 390h-93v110h93v-110z"/>
<glyph glyph-name="semicolon" horiz-adv-x="213" unicode=";" d="M153 10q0 -106 -93 -125v56q21 8 27 21t6 38h-33v110h93v-100zM153 390h-93v110h93v-110z"/>
<glyph glyph-name="less" d="M467 84l-434 209v77l434 208v-89l-338 -158l337 -158z" unicode="&lt;"/>
<glyph glyph-name="equal" d="M467 222h-434v79h434v-79zM467 381h-434v79h434v-79z" unicode="="/>
<glyph glyph-name="greater" d="M467 293l-434 -209v90l338 157l-337 158l-1 89l434 -208v-77z" unicode="&gt;"/>
<glyph glyph-name="question" horiz-adv-x="450" unicode="?" d="M257 0h-93v110h93v-110zM416 478q0 -87 -60 -140l-21 -18q-39 -34 -54.5 -65t-23.5 -84h-93q1 64 26.5 112.5t75.5 96.5q39 38 48 57q8 17 8 37q0 46 -30.5 78.5t-76.5 32.5q-93 0 -107 -108h-95q5 88 60.5 145.5t142.5 57.5q82 0 141 -60t59 -142z"/>
<glyph glyph-name="at" horiz-adv-x="733" unicode="@" d="M455 348q0 38 -20.5 63.5t-57.5 25.5q-48 0 -79.5 -41.5t-31.5 -91.5q0 -41 22 -69.5t62 -28.5q49 0 77 45t28 97zM697 382q0 -48 -16 -98q-19 -54 -58.5 -95.5t-89.5 -41.5q-29 0 -49.5 17.5t-24.5 45.5q-45 -68 -124 -68q-64 0 -102.5 47t-38.5 112q0 78 49.5 140 t125.5 62t107 -67l10 55h64l-40 -204q-6 -28 -6 -45t8.5 -29.5t24.5 -12.5q35 0 60 38.5t35 80.5q8 32 8 62q0 108 -73.5 173t-182.5 65q-122 0 -205.5 -84t-83.5 -206q0 -88 46.5 -161.5t126.5 -102.5q52 -20 119 -20q109 0 203 42l16 -58q-98 -41 -218 -41 q-154 0 -254.5 94.5t-100.5 247.5q0 146 101 246.5t247 100.5q132 0 224 -82t92 -213z"/>
<glyph glyph-name="A" horiz-adv-x="594" unicode="A" d="M383 286l-85 254l-86 -254h171zM594 0h-103l-74 197h-240l-74 -197h-103l253 667h88z"/>
<glyph glyph-name="B" horiz-adv-x="521" unicode="B" d="M390 194q0 55 -37.5 80.5t-94.5 25.5h-94v-211h106q51 0 85.5 27.5t34.5 77.5zM351 482q0 95 -113 95h-74v-188h79q48 0 78 23.5t30 69.5zM487 193q0 -91 -66 -146q-56 -47 -155 -47h-199v667h173q98 0 152 -50q56 -53 56 -135q0 -74 -60 -126q99 -59 99 -163z"/>
<glyph glyph-name="C" horiz-adv-x="707" unicode="C" d="M683 497h-117q-80 94 -188 94q-104 0 -175.5 -75.5t-71.5 -180.5q0 -103 71.5 -181t173.5 -78q106 0 183 88h119q-47 -84 -127 -130.5t-176 -46.5q-142 0 -242 103t-100 245q0 143 100 244t243 101q100 0 178.5 -47.5t128.5 -135.5z"/>
<glyph glyph-name="D" horiz-adv-x="657" unicode="D" d="M527 330q0 107 -71 180q-66 67 -172 67h-120v-488h79q135 0 203 56q81 66 81 185zM624 330q0 -64 -21.5 -126.5t-62.5 -106.5q-88 -97 -266 -97h-207v667h236q138 0 224 -89q97 -99 97 -248z"/>
<glyph glyph-name="E" horiz-adv-x="469" unicode="E" d="M427 0h-360v667h360v-90h-263v-196h263v-89h-263v-203h263v-89z"/>
<glyph glyph-name="F" horiz-adv-x="430" unicode="F" d="M403 288h-239v-288h-97v667h336v-90h-239v-200h239v-89z"/>
<glyph glyph-name="G" horiz-adv-x="750" unicode="G" d="M718 332q-2 -146 -100 -245.5t-244 -99.5q-143 0 -242 101t-99 244q0 144 98 246t242 102q94 0 174 -48.5t125 -131.5h-113q-42 46 -84.5 68.5t-97.5 22.5q-104 0 -175 -77t-71 -182q0 -103 72.5 -179.5t174.5 -76.5q87 0 158 60q28 24 43 46.5t29 60.5h-311v89h421z"/>
<glyph glyph-name="H" horiz-adv-x="603" unicode="H" d="M536 0h-97v290h-275v-290h-97v667h97v-288h275v288h97v-667z"/>
<glyph glyph-name="I" horiz-adv-x="231" unicode="I" d="M164 0h-97v667h97v-667z"/>
<glyph glyph-name="J" horiz-adv-x="428" unicode="J" d="M368 171q0 -79 -52 -131.5t-132 -52.5q-67 0 -119.5 40.5t-64.5 105.5h100q22 -57 80 -57q42 0 66.5 30.5t24.5 73.5v487h97v-496z"/>
<glyph glyph-name="K" horiz-adv-x="539" unicode="K" d="M539 0h-120l-255 336v-336h-97v667h97v-331l255 331h120l-261 -331z"/>
<glyph glyph-name="L" horiz-adv-x="412" unicode="L" d="M395 0h-328v667h97v-578h231v-89z"/>
<glyph glyph-name="M" horiz-adv-x="841" unicode="M" d="M774 0h-97v563l-227 -563h-59l-227 563v-563h-97v667h153l200 -511l201 511h153v-667z"/>
<glyph glyph-name="N" horiz-adv-x="663" unicode="N" d="M597 0h-101l-332 515v-515h-97v667h106l326 -508v508h98v-667z"/>
<glyph glyph-name="O" horiz-adv-x="760" unicode="O" d="M629 334q0 107 -71.5 182t-177.5 75t-177.5 -75.5t-71.5 -181.5q0 -108 71 -183t178 -75t178 75t71 183zM727 333q0 -144 -101.5 -245t-245.5 -101t-245.5 101t-101.5 245q0 145 101 246t246 101t246 -101t101 -246z"/>
<glyph glyph-name="P" horiz-adv-x="517" unicode="P" d="M397 468q0 109 -134 109h-99v-225h100q59 0 96 29.5t37 86.5zM495 468q0 -83 -52 -139q-36 -40 -78 -53t-105 -13h-96v-263h-97v667h232q86 0 141 -56.5t55 -142.5z"/>
<glyph glyph-name="Q" horiz-adv-x="753" unicode="Q" d="M481 106q-121 90 -223 90q-46 0 -78 -16q73 -104 200 -104q33 0 54 6t47 24zM623 333q0 104 -71 181t-174 77q-105 0 -176.5 -78t-71.5 -184q0 -31 10 -64q52 21 126 21q138 0 293 -127q64 81 64 174zM735 -13q-93 1 -168 51q-93 -51 -192 -51q-143 0 -242.5 102.5 t-99.5 246.5q0 145 99 244.5t244 99.5q144 0 244 -101.5t100 -245.5q0 -118 -82 -233q41 -23 97 -23v-90z"/>
<glyph glyph-name="R" horiz-adv-x="549" unicode="R" d="M415 453q0 60 -43 92t-105 32h-103v-254h67q36 0 66 6t58 19.5t44 40t16 64.5zM512 453q0 -115 -84 -169q-41 -27 -107 -36l187 -248h-122l-222 310v-310h-97v667h206q120 0 178 -56q61 -58 61 -158z"/>
<glyph glyph-name="S" horiz-adv-x="460" unicode="S" d="M425 200q0 -90 -58.5 -151.5t-147.5 -61.5q-91 0 -148.5 59t-59.5 151h96q12 -121 113 -121q46 0 77 32.5t31 78.5q0 13 -2 24t-8 20.5t-11 16.5t-16 14l-16.5 10.5t-20 9t-19.5 7.5t-21.5 7.5t-20.5 6.5q-5 1 -21.5 6.5l-21 7t-17 7t-18.5 9.5t-15 11.5t-17 16.5 q-45 51 -45 123q0 84 54 140t138 56q79 0 129.5 -52.5t54.5 -133.5h-99q-2 41 -26.5 69t-63.5 28q-36 0 -63 -28t-27 -64q0 -24 8 -41t27.5 -28t32.5 -16t42 -13q32 -9 44.5 -13.5t35 -14.5t37 -23.5t28.5 -33.5q35 -51 35 -116z"/>
<glyph glyph-name="T" horiz-adv-x="375" unicode="T" d="M364 577h-127v-577h-98v577h-128v90h353v-90z"/>
<glyph glyph-name="U" horiz-adv-x="567" unicode="U" d="M507 204q0 -90 -61 -150q-70 -67 -164 -67q-93 0 -157.5 62.5t-64.5 154.5v463h97v-450q0 -62 33 -101.5t94 -39.5q56 0 93 38q21 22 27 44t6 59v450h97v-463z"/>
<glyph glyph-name="V" horiz-adv-x="586" unicode="V" d="M590 667l-267 -667h-59l-269 667h105l194 -500l193 500h103z"/>
<glyph glyph-name="W" horiz-adv-x="814" unicode="W" d="M800 667l-186 -667h-85l-122 466l-122 -466h-86l-186 667h101l128 -502l130 502h71l128 -499l130 499h99z"/>
<glyph glyph-name="X" horiz-adv-x="564" unicode="X" d="M564 667l-223 -333l221 -334h-115l-166 254l-167 -254h-114l221 334l-221 333h116l165 -253l167 253h116z"/>
<glyph glyph-name="Y" horiz-adv-x="510" unicode="Y" d="M510 667l-206 -427v-240h-97v240l-207 427h109l147 -313l146 313h108z"/>
<glyph glyph-name="Z" horiz-adv-x="457" unicode="Z" d="M433 0h-410v89l290 488h-274v90h382v-90l-287 -488h299v-89z"/>
<glyph glyph-name="bracketleft" horiz-adv-x="326" unicode="[" d="M250 -180q-79 32 -131.5 97.5t-52.5 146.5v356q0 90 46 154q53 74 138 106v-109q-47 -29 -67.5 -66.5t-20.5 -93.5v-314q0 -60 19.5 -98.5t68.5 -68.5v-110z"/>
<glyph glyph-name="backslash" d="M455 -83h-88l-341 833h88z" unicode="\"/>
<glyph glyph-name="bracketright" horiz-adv-x="326" unicode="]" d="M260 80q0 -90 -46 -154q-53 -74 -138 -106v109q47 29 67 66.5t20 93.5v314q0 60 -19 98.5t-68 68.5v110q79 -32 131.5 -97.5t52.5 -146.5v-356z"/>
<glyph glyph-name="asciicircum" d="M481 356h-96l-135 242l-135 -242h-96l172 313h118z" unicode="^"/>
<glyph glyph-name="underscore" d="M500 -141h-500v80h500v-80z" unicode="_"/>
<glyph glyph-name="grave" d="M326 608l-44 -55l-174 131l43 55z" unicode="`"/>
<glyph glyph-name="a" horiz-adv-x="621" unicode="a" d="M468 248q0 74 -49.5 127t-122.5 53t-122 -53t-49 -126q0 -72 50 -124.5t121 -52.5q72 0 122 52t50 124zM561 0h-86v78q-22 -35 -54 -55q-58 -36 -134 -36q-109 0 -182 75.5t-73 185.5q0 113 74 189t187 76q54 0 105 -22t77 -63v72h86v-500z"/>
<glyph glyph-name="b" horiz-adv-x="617" unicode="b" d="M491 250q0 73 -48.5 126.5t-120.5 53.5q-74 0 -122.5 -53.5t-48.5 -127.5q0 -72 49 -124.5t121 -52.5q71 0 120.5 53t49.5 125zM585 249q0 -109 -74 -185.5t-184 -76.5q-119 0 -180 84v-71h-87v667h94v-237q63 85 173 85q108 0 183 -79t75 -187z"/>
<glyph glyph-name="c" horiz-adv-x="558" unicode="c" d="M533 165q-28 -82 -94 -130t-152 -48q-110 0 -182.5 76.5t-72.5 187.5q0 110 74 186t183 76q83 0 154 -50.5t90 -129.5h-104q-26 48 -58 71.5t-82 23.5q-73 0 -118.5 -51.5t-45.5 -125.5q0 -70 46 -124.5t115 -54.5q46 0 84.5 25.5t58.5 67.5h104z"/>
<glyph glyph-name="d" horiz-adv-x="616" unicode="d" d="M469 257q0 73 -51 122t-124 49q-74 0 -121.5 -51.5t-47.5 -125.5q0 -73 48.5 -126t121.5 -53q76 0 125 54t49 131zM556 0h-87v71q-65 -84 -179 -84q-112 0 -185 77t-73 189q0 107 71.5 183.5t177.5 76.5q50 0 101.5 -21t80.5 -58v233h93v-667z"/>
<glyph glyph-name="e" horiz-adv-x="574" unicode="e" d="M449 281q-3 62 -50.5 106t-110.5 44q-74 0 -123 -54q-30 -33 -39 -96h323zM542 257q0 -24 -3 -48h-413q15 -61 59 -99t106 -38q92 0 141 85h94q-28 -77 -92.5 -123.5t-146.5 -46.5q-107 0 -181 78.5t-74 185.5q0 109 74.5 187.5t182.5 78.5q106 0 179.5 -77t73.5 -183z "/>
<glyph glyph-name="f" horiz-adv-x="283" unicode="f" d="M255 415h-88v-415h-94v415h-44v85h44v23q0 66 50 108q27 22 53 29t67 7h12v-82q-88 0 -88 -62v-23h88v-85z"/>
<glyph glyph-name="g" horiz-adv-x="627" unicode="g" d="M474 257q0 72 -51.5 121.5t-123.5 49.5q-73 0 -123.5 -52.5t-50.5 -125.5t50.5 -125.5t122.5 -52.5q75 0 125.5 54.5t50.5 130.5zM567 56q0 -115 -79 -184t-196 -69q-106 0 -183 73q-39 36 -60 85h105q53 -72 143 -72q77 0 126.5 45.5t49.5 122.5v11q-72 -81 -175 -81 q-108 0 -187 78.5t-79 186.5q0 110 79 185.5t190 75.5q112 0 179 -74v61h87v-444z"/>
<glyph glyph-name="h" horiz-adv-x="557" unicode="h" d="M501 0h-94v283q0 69 -27.5 107t-93.5 38q-63 0 -98 -40.5t-35 -104.5v-283h-93v667h93v-218q50 64 144 64q92 0 148 -54.5t56 -145.5v-313z"/>
<glyph glyph-name="i" horiz-adv-x="213" unicode="i" d="M153 0h-93v500h93v-500zM153 557h-93v110h93v-110z"/>
<glyph glyph-name="j" horiz-adv-x="213" unicode="j" d="M153 14v-25q0 -52 -9.5 -83t-43.5 -60q-45 -39 -103 -43v99q29 2 42.5 13.5t17.5 41.5q3 19 3 57v486h93v-486zM153 557h-93v110h93v-110z"/>
<glyph glyph-name="k" horiz-adv-x="474" unicode="k" d="M472 0h-117l-202 259v-259h-93v667h93v-408l180 241h111l-181 -236z"/>
<glyph glyph-name="l" horiz-adv-x="213" unicode="l" d="M153 0h-93v667h93v-667z"/>
<glyph glyph-name="m" horiz-adv-x="871" unicode="m" d="M815 0h-94v278q0 150 -119 150q-62 0 -93 -40q-26 -32 -26 -110v-278h-93v278q0 72 -24 111t-90 39q-58 0 -93 -38q-30 -33 -30 -112v-278h-93v500h87v-54q51 67 144 67q48 0 92.5 -21.5t63.5 -61.5q54 83 165 83q95 0 149 -56t54 -152v-305z"/>
<glyph glyph-name="n" horiz-adv-x="559" unicode="n" d="M503 0h-94v272q0 73 -21 105q-34 51 -104 51q-65 0 -97 -44t-32 -112v-272h-95v500h87v-53q49 66 148 66q93 0 150.5 -56.5t57.5 -149.5v-307z"/>
<glyph glyph-name="o" horiz-adv-x="603" unicode="o" d="M477 251q0 73 -51.5 125t-124.5 52t-124.5 -52t-51.5 -125t51.5 -126t124.5 -53q74 0 125 52.5t51 126.5zM571 253q0 -111 -79.5 -188.5t-190.5 -77.5t-190 77.5t-79 188.5q0 109 79.5 184.5t189.5 75.5t190 -75t80 -185z"/>
<glyph glyph-name="p" horiz-adv-x="615" unicode="p" d="M490 249q0 72 -50 125.5t-122 53.5q-71 0 -119 -53t-48 -124q0 -73 48.5 -126t121.5 -53q72 0 120.5 52t48.5 125zM583 243q0 -108 -72.5 -182.5t-179.5 -74.5q-54 0 -103 22t-75 64v-239h-93v667h87v-77q60 90 178 90q112 0 185 -78.5t73 -191.5z"/>
<glyph glyph-name="q" horiz-adv-x="616" unicode="q" d="M471 250q0 74 -50 126t-124 52t-123 -51.5t-49 -125.5q0 -75 50 -127t124 -52q73 0 122.5 52t49.5 126zM556 -167h-93v236q-68 -82 -169 -82q-111 0 -186.5 76.5t-75.5 187.5q0 110 74.5 186t184.5 76q50 0 100 -21t78 -59v67h87v-667z"/>
<glyph glyph-name="r" horiz-adv-x="288" unicode="r" d="M276 417q-66 -5 -94.5 -40.5t-28.5 -103.5v-273h-93v500h87v-45q44 55 129 58v-96z"/>
<glyph glyph-name="s" horiz-adv-x="399" unicode="s" d="M365 147q0 -68 -52 -114t-121 -46q-78 0 -123.5 48.5t-47.5 127.5h94q2 -41 22.5 -66t59.5 -25q31 0 53 17.5t22 47.5q0 29 -22.5 48t-52 27t-66 24.5t-56.5 39.5q-32 37 -32 82q0 67 45.5 111t112.5 44q65 0 108.5 -40.5t44.5 -105.5h-93q-8 61 -62 61q-25 0 -43.5 -15 t-18.5 -39q0 -9 2 -17t8 -14t9 -9.5t14 -8t13.5 -5.5t16.5 -5.5t15 -4.5q150 -46 150 -163z"/>
<glyph glyph-name="t" horiz-adv-x="265" unicode="t" d="M249 415h-82v-415h-94v415h-68v85h68v167h94v-167h82v-85z"/>
<glyph glyph-name="u" horiz-adv-x="559" unicode="u" d="M499 0h-87v53q-44 -66 -147 -66q-93 0 -150.5 56.5t-57.5 149.5v307h93v-272q0 -74 21 -105q34 -51 104 -51q65 0 97.5 44t32.5 112v272h94v-500z"/>
<glyph glyph-name="v" horiz-adv-x="456" unicode="v" d="M458 500l-196 -500h-66l-198 500h100l131 -358l129 358h100z"/>
<glyph glyph-name="w" horiz-adv-x="709" unicode="w" d="M701 500l-185 -500h-52l-109 336l-109 -336h-52l-186 500h100l112 -325l104 325h62l104 -325l111 325h100z"/>
<glyph glyph-name="x" horiz-adv-x="472" unicode="x" d="M468 0h-111l-123 177l-120 -177h-109l173 256l-168 244h114l110 -165l109 165h114l-163 -244z"/>
<glyph glyph-name="y" horiz-adv-x="495" unicode="y" d="M497 500l-276 -667h-97l73 177l-199 490h101l147 -388l150 388h101z"/>
<glyph glyph-name="z" horiz-adv-x="395" unicode="z" d="M381 0h-361v72l239 343h-216v85h320v-94l-226 -321h244v-85z"/>
<glyph glyph-name="braceleft" d="M380 -189q-5 0 -15 -0.5t-16 -0.5q-84 0 -119.5 31.5t-35.5 114.5v162q0 38 -12 60.5t-45 30.5v74q57 14 57 85v170q0 75 35 107t110 32q27 0 41 -1v-78q-58 0 -77.5 -13.5t-19.5 -67.5v-155q0 -46 -12 -72t-48 -47q35 -21 47.5 -48.5t12.5 -72.5v-150q0 -55 19.5 -69 t77.5 -14v-78z" unicode="{"/>
<glyph glyph-name="bar" d="M295 -250h-90v1000h90v-1000z" unicode="|"/>
<glyph glyph-name="braceright" d="M377 204q-32 -8 -44 -29t-12 -56v-170q0 -75 -35 -107t-111 -32q-27 0 -41 1v78q58 0 77.5 13.5t19.5 67.5v155q0 46 12 72t49 47q-36 21 -48.5 48t-12.5 72v151q0 55 -19 69t-78 14v78q6 0 16 0.5t16 0.5q83 0 119 -31.5t36 -114.5v-162q0 -39 11 -61t45 -30v-74z" unicode="}"/>
<glyph glyph-name="asciitilde" horiz-adv-x="667" unicode="~" d="M575 702q-27 -56 -61.5 -87t-88.5 -31q-35 0 -102.5 30t-96.5 30q-28 0 -46.5 -18t-35.5 -50l-52 33q14 30 24.5 47.5t27 37t38.5 28.5t51 9q39 0 106 -30t97 -30q31 0 48.5 15t37.5 47z"/>
<glyph glyph-name="nbspace" horiz-adv-x="333" unicode=" "/>
<glyph glyph-name="exclamdown" horiz-adv-x="240" unicode="¡" d="M167 -167h-94v500h94v-500zM167 390h-94v110h94v-110z"/>
<glyph glyph-name="cent" d="M466 412h-107q-27 54 -102 54q-55 0 -92 -36t-37 -91q0 -54 37.5 -89.5t92.5 -35.5q65 0 100 49h106q-41 -110 -165 -137v-88h-85v88q-83 18 -131.5 75.5t-48.5 142.5q0 82 49.5 139.5t130.5 72.5v86h85v-86q128 -32 167 -144z" unicode="¢"/>
<glyph glyph-name="sterling" d="M491 195q0 -92 -55.5 -143.5t-147.5 -51.5h-250v85h115q22 38 22 79q0 86 -69 131h-97v85h31q-16 37 -16 74q0 94 63.5 160t156.5 66q82 0 142 -49.5t76 -130.5h-101q-40 95 -120 95q-53 0 -88.5 -39.5t-35.5 -93.5q0 -51 34 -82h196v-85h-114q36 -57 36 -131 q0 -37 -11 -79h29q51 0 81 29t30 80q0 26 -12 51h100q5 -28 5 -50z" unicode="£"/>
<glyph glyph-name="currency" horiz-adv-x="667" unicode="¤" d="M492 365q0 66 -46 112.5t-112 46.5t-112.5 -46.5t-46.5 -112.5t46.5 -112.5t112.5 -46.5t112 46.5t46 112.5zM624 128l-49 -50l-98 97q-66 -49 -142 -49q-70 0 -144 48l-97 -96l-49 49l97 97q-50 66 -50 142q0 71 49 139l-98 98l50 50l98 -98q70 50 143 50q72 0 141 -49 l97 97l50 -50l-97 -97q49 -69 49 -141q0 -73 -48 -140z"/>
<glyph glyph-name="yen" d="M485 667l-97 -211h75v-77h-111l-49 -107h140v-77h-146v-195h-93v195h-147v77h141l-49 107h-112v77h76l-98 211h105l131 -293l130 293h104z" unicode="¥"/>
<glyph glyph-name="brokenbar" d="M296 -167h-93v320h93v-320zM296 329h-93v338h93v-338z" unicode="¦"/>
<glyph glyph-name="section" d="M382 226q0 19 -10.5 34t-21 22t-32.5 18l-149 76q-52 -34 -52 -79q0 -22 15.5 -41t36.5 -30l160 -83q27 21 40 39t13 44zM471 237q0 -81 -77 -139q49 -59 49 -116q0 -82 -55 -132t-138 -50q-86 0 -140.5 54t-59.5 141h96q4 -49 31.5 -77t75.5 -28q42 0 70 24t28 65 q0 17 -6.5 31.5t-20.5 26t-25 18t-29 16.5l-137 72q-54 28 -79 60t-25 86q0 91 83 140q-35 50 -35 95q0 69 51.5 112.5t122.5 43.5q78 0 125.5 -45.5t56.5 -124.5h-97q-15 78 -86 78q-32 0 -55.5 -19t-23.5 -51q0 -19 10 -33.5t20.5 -21.5t31.5 -18q20 -11 61.5 -32 t62.5 -31q56 -28 85 -60t29 -85z" unicode="§"/>
<glyph glyph-name="dieresis" d="M222 573h-91v110h91v-110zM369 573h-91v110h91v-110z" unicode="¨"/>
<glyph glyph-name="copyright" horiz-adv-x="773" unicode="©" d="M579 426h-77l-1 1q-55 55 -110 55q-60 0 -102.5 -44t-42.5 -104t42.5 -104.5t101.5 -44.5q58 0 108 52h78q0 -1 -1 -2.5t-2 -2.5q-68 -107 -184 -107q-86 0 -146.5 62t-60.5 148t61 146t147 60q124 0 189 -115zM677 333q0 121 -84.5 207.5t-205.5 86.5t-206 -86.5 t-85 -207.5t85 -207t206 -86q120 0 205 86.5t85 206.5zM733 333q0 -143 -101.5 -244.5t-244.5 -101.5q-144 0 -245.5 101t-101.5 245t101.5 245.5t245.5 101.5t245 -101.5t101 -245.5z"/>
<glyph glyph-name="ordfeminine" horiz-adv-x="333" unicode="ª" d="M248 532q0 37 -25.5 64.5t-62.5 27.5t-62.5 -27t-25.5 -64q0 -36 25.5 -63t61.5 -27q37 0 63 26t26 63zM303 297h-280v33h280v-33zM303 400h-51v35q-31 -42 -97 -42q-59 0 -98.5 40t-39.5 99q0 60 40.5 101t100.5 41q54 0 94 -40v33h51v-267z"/>
<glyph glyph-name="guillemotleft" horiz-adv-x="358" unicode="«" d="M165 88l-125 121v93l125 123v-102l-67 -67l67 -67v-101zM311 88l-123 121v93l123 123v-102l-67 -67l67 -67v-101z"/>
<glyph glyph-name="logicalnot" d="M467 0h-90v186h-344v81h434v-267z" unicode="¬"/>
<glyph glyph-name="registered" horiz-adv-x="513" unicode="®" d="M303 595q0 17 -13.5 26t-32.5 9h-31v-73h19q58 0 58 38zM347 447h-52l-69 90v-90h-41v220h74q38 0 61.5 -18t23.5 -54q0 -58 -61 -68zM432 557q0 72 -51.5 123.5t-123.5 51.5t-124 -51.5t-52 -123.5q0 -73 51.5 -124.5t124.5 -51.5q72 0 123.5 52t51.5 124zM465 557 q0 -87 -60.5 -148t-147.5 -61t-148 61t-61 148t61 147.5t148 60.5q86 0 147 -61t61 -147z"/>
<glyph glyph-name="macron" d="M400 598h-300v65h300v-65z" unicode="¯"/>
<glyph glyph-name="degree" d="M339 524q0 36 -26.5 61.5t-62.5 25.5t-62.5 -25.5t-26.5 -61.5t26.5 -61.5t62.5 -25.5t62.5 25.5t26.5 61.5zM396 524q0 -59 -43 -101t-103 -42t-103 41.5t-43 101.5t43 101.5t103 41.5t103 -41.5t43 -101.5z" unicode="°"/>
<glyph glyph-name="plusminus" d="M467 61h-434v84h434v-84zM467 349h-172v-166h-90v166h-172v83h172v166h90v-166h172v-83z" unicode="±"/>
<glyph glyph-name="twosuperior" horiz-adv-x="332" unicode="²" d="M300 267h-270v51l167 158q36 34 36 70q0 28 -19 50t-47 22q-34 0 -53.5 -22.5t-19.5 -57.5v-13h-66v9q0 60 37.5 100.5t97.5 40.5q55 0 95.5 -38t40.5 -94q0 -57 -59 -113l-111 -106h171v-57z"/>
<glyph glyph-name="threesuperior" horiz-adv-x="332" unicode="³" d="M297 388q0 -56 -42 -92.5t-98 -36.5q-57 0 -97.5 36.5t-40.5 93.5h65q2 -34 22 -53.5t54 -19.5q29 0 50.5 20t21.5 49q0 30 -22.5 48.5t-52.5 18.5h-25v62q15 0 24 0.5t21.5 3.5t19.5 8t12 15.5t5 25.5q0 22 -15.5 36.5t-37.5 14.5q-49 0 -54 -56h-65q2 43 23 68 q37 45 99 45q49 0 82.5 -33t33.5 -82q0 -42 -37 -75q54 -33 54 -97z"/>
<glyph glyph-name="acute" d="M392 684l-174 -131l-44 55l175 131z" unicode="´"/>
<glyph glyph-name="mu" d="M459 0h-89v77q-21 -44 -49.5 -66.5t-74.5 -22.5q-72 0 -116 70v-227h-90v648h90v-265q0 -50 9.5 -82t42.5 -53q29 -19 66 -19q64 0 99 56q23 37 23 105v258h89v-479z" unicode="µ"/>
<glyph glyph-name="paragraph" horiz-adv-x="606" unicode="¶" d="M535 596h-64v-693h-77v693h-98v-693h-78v414q-5 -1 -14 -1q-79 0 -130 47.5t-51 125.5q0 55 29 99.5t80 62.5q45 16 114 16h289v-71z"/>
<glyph glyph-name="periodcentered" horiz-adv-x="110" unicode="·" d="M110 275h-110v130h110v-130z"/>
<glyph glyph-name="cedilla" d="M352 -136q0 -37 -25.5 -61t-62.5 -24q-34 0 -57.5 20t-26.5 54h48q10 -29 37 -29q16 0 27 10.5t11 26.5t-11 26t-27 10q-15 0 -31 -14l-30 30l35 87h46l-25 -61q6 1 18 1q32 0 53 -22t21 -54z" unicode="¸"/>
<glyph glyph-name="onesuperior" horiz-adv-x="332" unicode="¹" d="M212 267h-65v343h-62v57h127v-400z"/>
<glyph glyph-name="ordmasculine" horiz-adv-x="333" unicode="º" d="M257 534q0 37 -26.5 63.5t-63.5 26.5t-64 -26.5t-27 -63.5q0 -38 27 -64.5t64 -26.5t63.5 26.5t26.5 64.5zM305 297h-277v33h277v-33zM312 535q0 -60 -42.5 -101t-102.5 -41t-103 41.5t-43 100.5q0 58 43.5 98.5t102.5 40.5t102 -40.5t43 -98.5z"/>
<glyph glyph-name="guillemotright" horiz-adv-x="359" unicode="»" d="M170 304l-1 -93l-122 -123v103l67 66l-67 67v101zM319 211l-122 -123v103l67 66l-67 67v101l122 -121v-93z"/>
<glyph glyph-name="onequarter" horiz-adv-x="804" unicode="¼" d="M677 119v181l-121 -181h121zM212 267h-65v343h-62v57h127v-400zM570 667l-277 -667h-58l279 667h56zM787 62h-45v-62h-65v62h-192v58l194 280h63v-281h45v-57z"/>
<glyph glyph-name="onehalf" horiz-adv-x="804" unicode="½" d="M212 267h-65v343h-62v57h127v-400zM570 667l-277 -667h-58l279 667h56zM773 0h-270v51l167 159q36 34 36 69q0 28 -19 50t-47 22q-34 0 -53.5 -22.5t-19.5 -56.5v-13h-66v9q0 61 37.5 100.5t97.5 39.5q55 0 95.5 -38t40.5 -93q0 -57 -59 -113l-111 -107h171v-57z"/>
<glyph glyph-name="threequarters" horiz-adv-x="804" unicode="¾" d="M677 119v181l-122 -181h122zM297 388q0 -56 -42 -92.5t-98 -36.5q-57 0 -97.5 36.5t-40.5 93.5h65q2 -34 22 -53.5t54 -19.5q29 0 50.5 20t21.5 49q0 30 -22.5 48.5t-52.5 18.5h-25v62q15 0 24 0.5t21.5 3.5t19.5 8t12 15.5t5 25.5q0 22 -15.5 36.5t-37.5 14.5 q-49 0 -54 -56h-65q2 43 23 68q37 45 99 45q49 0 82.5 -33t33.5 -82q0 -42 -37 -75q54 -33 54 -97zM569 667l-277 -667h-57l278 667h56zM786 62h-44v-62h-65v62h-193v58l195 280h63v-281h44v-57z"/>
<glyph glyph-name="questiondown" horiz-adv-x="450" unicode="¿" d="M436 23q-4 -88 -59.5 -145.5t-142.5 -57.5q-82 0 -141 60t-59 142q0 87 60 140l21 18q39 34 54.5 65t23.5 84h93q-1 -64 -26.5 -112.5t-75.5 -96.5q-39 -38 -48 -57q-8 -17 -8 -37q0 -46 30.5 -78.5t76.5 -32.5q47 0 73.5 29.5t32.5 78.5h95zM286 390h-93v110h93v-110z "/>
<glyph glyph-name="Agrave" horiz-adv-x="594" unicode="À" d="M383 286l-85 254l-86 -254h171zM594 0h-103l-74 197h-240l-74 -197h-103l253 667h88zM423 782l-36 -65l-203 110l38 70z"/>
<glyph glyph-name="Aacute" horiz-adv-x="594" unicode="Á" d="M383 286l-85 254l-86 -254h171zM594 0h-103l-74 197h-240l-74 -197h-103l253 667h88zM410 827l-203 -110l-36 65l201 115z"/>
<glyph glyph-name="Acircumflex" horiz-adv-x="594" unicode="Â" d="M383 286l-85 254l-86 -254h171zM594 0h-103l-74 197h-240l-74 -197h-103l253 667h88zM468 735h-108l-61 62l-66 -62h-107l125 121h90z"/>
<glyph glyph-name="Atilde" horiz-adv-x="594" unicode="Ã" d="M383 286l-85 254l-86 -254h171zM594 0h-103l-74 197h-240l-74 -197h-103l253 667h88zM467 786q-52 -41 -101 -41q-22 0 -65.5 11.5t-65.5 11.5q-27 0 -65 -19l-43 58q58 36 95 36q22 0 65 -12t66 -12q31 0 75 25z"/>
<glyph glyph-name="Adieresis" horiz-adv-x="594" unicode="Ä" d="M383 286l-85 254l-86 -254h171zM594 0h-103l-74 197h-240l-74 -197h-103l253 667h88zM267 740h-93v110h93v-110zM420 740h-93v110h93v-110z"/>
<glyph glyph-name="Aring" horiz-adv-x="594" unicode="Å" d="M383 286l-85 254l-86 -254h171zM344 813q0 20 -13.5 34.5t-33.5 14.5t-33.5 -14.5t-13.5 -34.5t13.5 -34t33.5 -14t33.5 14t13.5 34zM594 0h-103l-74 197h-240l-74 -197h-103l253 667h88zM397 813q0 -41 -29.5 -70.5t-70.5 -29.5t-70.5 29.5t-29.5 70.5t29.5 70.5 t70.5 29.5t70.5 -29.5t29.5 -70.5z"/>
<glyph glyph-name="AE" horiz-adv-x="802" unicode="Æ" d="M436 274v248l-156 -248h156zM760 0h-324v185h-220l-122 -185h-114l448 667h332v-90h-227v-196h227v-89h-227v-203h227v-89z"/>
<glyph glyph-name="Ccedilla" horiz-adv-x="707" unicode="Ç" d="M683 497h-117q-81 94 -188 94q-104 0 -175.5 -75.5t-71.5 -180.5q0 -103 71.5 -181t173.5 -78q106 0 183 88h119q-46 -81 -122 -127t-169 -50l-22 -53q7 1 20 1q34 0 56.5 -23.5t22.5 -57.5q0 -40 -27.5 -66t-67.5 -26q-36 0 -61 22t-29 58h51q10 -31 40 -31 q18 0 29.5 11t11.5 29q0 17 -12 27.5t-29 10.5q-18 0 -32 -14l-33 31l32 83q-130 16 -217 115t-87 231q0 143 100 244t243 101q100 0 178.5 -47.5t128.5 -135.5z"/>
<glyph glyph-name="Egrave" horiz-adv-x="469" unicode="È" d="M427 0h-360v667h360v-90h-263v-196h263v-89h-263v-203h263v-89zM373 782l-36 -65l-203 110l38 70z"/>
<glyph glyph-name="Eacute" horiz-adv-x="469" unicode="É" d="M427 0h-360v667h360v-90h-263v-196h263v-89h-263v-203h263v-89zM360 827l-203 -110l-37 65l201 115z"/>
<glyph glyph-name="Ecircumflex" horiz-adv-x="469" unicode="Ê" d="M427 0h-360v667h360v-90h-263v-196h263v-89h-263v-203h263v-89zM418 735h-108l-62 62l-65 -62h-107l125 121h90z"/>
<glyph glyph-name="Edieresis" horiz-adv-x="469" unicode="Ë" d="M427 0h-360v667h360v-90h-263v-196h263v-89h-263v-203h263v-89zM217 740h-94v110h94v-110zM370 740h-93v110h93v-110z"/>
<glyph glyph-name="Igrave" horiz-adv-x="231" unicode="Ì" d="M164 0h-97v667h97v-667zM242 782l-37 -65l-203 110l39 70z"/>
<glyph glyph-name="Iacute" horiz-adv-x="231" unicode="Í" d="M164 0h-97v667h97v-667zM228 827l-203 -110l-36 65l201 115z"/>
<glyph glyph-name="Icircumflex" horiz-adv-x="231" unicode="Î" d="M164 0h-97v667h97v-667zM254 735h-87l-50 62l-53 -62h-87l101 121h73z"/>
<glyph glyph-name="Idieresis" horiz-adv-x="231" unicode="Ï" d="M164 0h-97v667h97v-667zM94 740h-88v110h88v-110zM225 740h-88v110h88v-110z"/>
<glyph glyph-name="Eth" horiz-adv-x="657" unicode="Ð" d="M526 330q0 107 -71 181q-66 67 -172 67h-120v-200h167v-87h-167v-202h79q134 0 203 56q40 32 60.5 81.5t20.5 103.5zM623 329q0 -140 -84 -233q-86 -96 -266 -96h-207v291h-63v87h63v289h236q138 0 224 -89q97 -100 97 -249z"/>
<glyph glyph-name="Ntilde" horiz-adv-x="663" unicode="Ñ" d="M597 0h-101l-332 515v-515h-97v667h106l326 -508v508h98v-667zM502 786q-52 -41 -101 -41q-22 0 -65.5 11.5t-65.5 11.5q-27 0 -65 -19l-43 58q58 36 95 36q22 0 65 -12t66 -12q17 0 59 18q10 4 15 7z"/>
<glyph glyph-name="Ograve" horiz-adv-x="760" unicode="Ò" d="M629 334q0 107 -71.5 182t-177.5 75t-177.5 -75.5t-71.5 -181.5q0 -108 71 -183t178 -75t178 75t71 183zM727 333q0 -144 -101.5 -245t-245.5 -101t-245.5 101t-101.5 245q0 145 101 246t246 101t246 -101t101 -246zM506 782l-36 -65l-203 110l38 70z"/>
<glyph glyph-name="Oacute" horiz-adv-x="760" unicode="Ó" d="M629 334q0 107 -71.5 182t-177.5 75t-177.5 -75.5t-71.5 -181.5q0 -108 71 -183t178 -75t178 75t71 183zM727 333q0 -144 -101.5 -245t-245.5 -101t-245.5 101t-101.5 245q0 145 101 246t246 101t246 -101t101 -246zM493 827l-203 -110l-36 65l201 115z"/>
<glyph glyph-name="Ocircumflex" horiz-adv-x="760" unicode="Ô" d="M629 334q0 107 -71.5 182t-177.5 75t-177.5 -75.5t-71.5 -181.5q0 -108 71 -183t178 -75t178 75t71 183zM727 333q0 -144 -101.5 -245t-245.5 -101t-245.5 101t-101.5 245q0 145 101 246t246 101t246 -101t101 -246zM551 735h-108l-61 62l-66 -62h-107l125 121h90z"/>
<glyph glyph-name="Otilde" horiz-adv-x="760" unicode="Õ" d="M629 334q0 107 -71.5 182t-177.5 75t-177.5 -75.5t-71.5 -181.5q0 -108 71 -183t178 -75t178 75t71 183zM727 333q0 -144 -101.5 -245t-245.5 -101t-245.5 101t-101.5 245q0 145 101 246t246 101t246 -101t101 -246zM550 786q-52 -41 -101 -41q-22 0 -65.5 11.5 t-65.5 11.5q-27 0 -65 -19l-43 58q58 36 95 36q22 0 65 -12t66 -12q31 0 75 25z"/>
<glyph glyph-name="Odieresis" horiz-adv-x="760" unicode="Ö" d="M629 334q0 107 -71.5 182t-177.5 75t-177.5 -75.5t-71.5 -181.5q0 -108 71 -183t178 -75t178 75t71 183zM727 333q0 -144 -101.5 -245t-245.5 -101t-245.5 101t-101.5 245q0 145 101 246t246 101t246 -101t101 -246zM350 740h-93v110h93v-110zM503 740h-93v110h93v-110z "/>
<glyph glyph-name="multiply" d="M435 198l-50 -49l-136 136l-135 -135l-49 50l134 134l-134 135l50 49l134 -134l134 134l50 -49l-135 -135z" unicode="×"/>
<glyph glyph-name="Oslash" horiz-adv-x="760" unicode="Ø" d="M494 565q-33 16 -54.5 21t-57.5 5q-115 0 -187 -85q-64 -75 -64 -172q0 -99 64 -175zM629 334q0 93 -65 174l-300 -405q53 -27 116 -27q107 0 178 75t71 183zM727 333q0 -144 -101.5 -245t-245.5 -101q-91 0 -170 44l-64 -86l-71 52l65 87q-107 105 -107 249t101 245.5 t245 101.5q91 0 169 -42l63 85l74 -52l-65 -87q107 -104 107 -251z"/>
<glyph glyph-name="Ugrave" horiz-adv-x="567" unicode="Ù" d="M507 204q0 -90 -61 -150q-70 -67 -164 -67q-93 0 -157.5 62.5t-64.5 154.5v463h97v-450q0 -62 33 -101.5t94 -39.5q56 0 93 38q21 22 27 44t6 59v450h97v-463zM410 782l-36 -65l-203 110l38 70z"/>
<glyph glyph-name="Uacute" horiz-adv-x="567" unicode="Ú" d="M507 204q0 -90 -61 -150q-70 -67 -164 -67q-93 0 -157.5 62.5t-64.5 154.5v463h97v-450q0 -62 33 -101.5t94 -39.5q56 0 93 38q21 22 27 44t6 59v450h97v-463zM397 827l-203 -110l-37 65l201 115z"/>
<glyph glyph-name="Ucircumflex" horiz-adv-x="567" unicode="Û" d="M507 204q0 -90 -61 -150q-70 -67 -164 -67q-93 0 -157.5 62.5t-64.5 154.5v463h97v-450q0 -62 33 -101.5t94 -39.5q56 0 93 38q21 22 27 44t6 59v450h97v-463zM455 735h-108l-62 62l-65 -62h-107l125 121h90z"/>
<glyph glyph-name="Udieresis" horiz-adv-x="567" unicode="Ü" d="M507 204q0 -90 -61 -150q-70 -67 -164 -67q-93 0 -157.5 62.5t-64.5 154.5v463h97v-450q0 -62 33 -101.5t94 -39.5q56 0 93 38q21 22 27 44t6 59v450h97v-463zM254 740h-94v110h94v-110zM407 740h-93v110h93v-110z"/>
<glyph glyph-name="Yacute" horiz-adv-x="510" unicode="Ý" d="M510 667l-206 -427v-240h-97v240l-207 427h109l147 -313l145 313h109zM405 819l-180 -99l-35 62l175 102z"/>
<glyph glyph-name="Thorn" horiz-adv-x="517" unicode="Þ" d="M398 374q0 49 -35 82q-29 28 -100 28h-99v-226h100q65 0 96 29q38 36 38 87zM495 378q0 -85 -52 -142q-36 -39 -79 -53t-104 -14h-96v-169h-97v667h97v-94h135q85 0 140.5 -55t55.5 -140z"/>
<glyph glyph-name="germandbls" horiz-adv-x="571" unicode="ß" d="M446 188q0 57 -39.5 84.5t-98.5 27.5h-65v83q52 2 83.5 28t31.5 77q0 45 -29.5 76t-74.5 31q-55 0 -79 -36t-24 -94v-290h75q7 -45 36 -74t74 -29q47 0 78.5 34.5t31.5 81.5zM539 197q0 -90 -58.5 -150t-148.5 -60q-77 0 -135 51q-20 17 -28.5 31t-18.5 42v-111h-93v465 q0 92 52.5 153.5t142.5 61.5q81 0 140 -58t59 -139q0 -37 -11.5 -61.5t-40.5 -47.5q37 -9 61.5 -25t45.5 -47q33 -49 33 -105z"/>
<glyph glyph-name="agrave" horiz-adv-x="621" unicode="à" d="M468 248q0 74 -49.5 127t-122.5 53t-122 -53t-49 -126q0 -72 50 -124.5t121 -52.5q72 0 122 52t50 124zM561 0h-86v78q-22 -35 -54 -55q-58 -36 -134 -36q-109 0 -182 75.5t-73 185.5q0 113 74 189t187 76q54 0 105 -22t77 -63v72h86v-500zM406 608l-43 -55l-175 131 l44 55z"/>
<glyph glyph-name="aacute" horiz-adv-x="621" unicode="á" d="M468 248q0 74 -49.5 127t-122.5 53t-122 -53t-49 -126q0 -72 50 -124.5t121 -52.5q72 0 122 52t50 124zM561 0h-86v78q-22 -35 -54 -55q-58 -36 -134 -36q-109 0 -182 75.5t-73 185.5q0 113 74 189t187 76q54 0 105 -22t77 -63v72h86v-500zM406 684l-174 -131l-44 55 l175 131z"/>
<glyph glyph-name="acircumflex" horiz-adv-x="621" unicode="â" d="M468 248q0 74 -49.5 127t-122.5 53t-122 -53t-49 -126q0 -72 50 -124.5t121 -52.5q72 0 122 52t50 124zM561 0h-86v78q-22 -35 -54 -55q-58 -36 -134 -36q-109 0 -182 75.5t-73 185.5q0 113 74 189t187 76q54 0 105 -22t77 -63v72h86v-500zM460 563h-103l-55 76l-58 -76 h-103l114 135h90z"/>
<glyph glyph-name="atilde" horiz-adv-x="621" unicode="ã" d="M468 248q0 74 -49.5 127t-122.5 53t-122 -53t-49 -126q0 -72 50 -124.5t121 -52.5q72 0 122 52t50 124zM561 0h-86v78q-22 -35 -54 -55q-58 -36 -134 -36q-109 0 -182 75.5t-73 185.5q0 113 74 189t187 76q54 0 105 -22t77 -63v72h86v-500zM471 625q-37 -45 -95 -45 q-21 0 -62 11.5t-62 11.5q-23 0 -61 -19l-40 59q53 35 89 35q21 0 62 -12t62 -12q8 0 18.5 3t17 5.5t18.5 8.5l16 8z"/>
<glyph glyph-name="adieresis" horiz-adv-x="621" unicode="ä" d="M468 248q0 74 -49.5 127t-122.5 53t-122 -53t-49 -126q0 -72 50 -124.5t121 -52.5q72 0 122 52t50 124zM561 0h-86v78q-22 -35 -54 -55q-58 -36 -134 -36q-109 0 -182 75.5t-73 185.5q0 113 74 189t187 76q54 0 105 -22t77 -63v72h86v-500zM275 573h-91v110h91v-110z M422 573h-90v110h90v-110z"/>
<glyph glyph-name="aring" horiz-adv-x="621" unicode="å" d="M468 248q0 74 -49.5 127t-122.5 53t-122 -53t-49 -126q0 -72 50 -124.5t121 -52.5q72 0 122 52t50 124zM365 653q0 20 -14 35.5t-34 15.5q-21 0 -35 -15t-14 -36t14 -35.5t35 -14.5q20 0 34 15t14 35zM561 0h-86v78q-22 -35 -54 -55q-58 -36 -134 -36q-109 0 -182 75.5 t-73 185.5q0 113 74 189t187 76q54 0 105 -22t77 -63v72h86v-500zM417 653q0 -41 -29.5 -70.5t-70.5 -29.5t-70.5 29.5t-29.5 70.5q0 42 29 71t71 29q41 0 70.5 -29.5t29.5 -70.5z"/>
<glyph glyph-name="ae" horiz-adv-x="1014" unicode="æ" d="M469 252q0 75 -49.5 125.5t-124.5 50.5t-122.5 -50.5t-47.5 -125.5t47 -127.5t122 -52.5q76 0 125.5 52t49.5 128zM888 281q-5 66 -49.5 106.5t-111.5 40.5q-69 0 -112.5 -39t-51.5 -108h325zM982 252q0 -15 -2 -43h-417q11 -59 57 -98t106 -39q45 0 84.5 23t60.5 63h96 q-28 -77 -94.5 -124t-148.5 -47q-50 0 -87 17t-78 54v-58h-85v58q-41 -38 -80.5 -54.5t-94.5 -16.5q-113 0 -190 77t-77 190q0 110 76.5 184.5t187.5 74.5q110 0 178 -72v59h85v-59q65 72 168 72q107 0 181 -77t74 -184z"/>
<glyph glyph-name="ccedilla" horiz-adv-x="558" unicode="ç" d="M533 165q-25 -75 -84.5 -123t-137.5 -54l-21 -49q6 1 18 1q32 0 53 -22t21 -54q0 -37 -25.5 -61t-62.5 -24q-34 0 -57.5 20t-26.5 54h48q10 -29 37 -29q16 0 27 10.5t11 26.5t-11 26t-27 10q-17 0 -31 -14l-30 30l31 75q-102 7 -167.5 83t-65.5 180q0 110 74 186t183 76 q83 0 154 -50.5t90 -129.5h-104q-26 48 -58 71.5t-82 23.5q-73 0 -118.5 -51.5t-45.5 -125.5q0 -70 46 -124.5t115 -54.5q46 0 84.5 25.5t58.5 67.5h104z"/>
<glyph glyph-name="egrave" horiz-adv-x="574" unicode="è" d="M449 281q-3 62 -50.5 106t-110.5 44q-74 0 -123 -54q-30 -33 -39 -96h323zM542 257q0 -24 -3 -48h-413q15 -61 59 -99t106 -38q92 0 141 85h94q-28 -77 -92.5 -123.5t-146.5 -46.5q-107 0 -181 78.5t-74 185.5q0 109 74.5 187.5t182.5 78.5q106 0 179.5 -77t73.5 -183z M396 608l-44 -55l-174 131l44 55z"/>
<glyph glyph-name="eacute" horiz-adv-x="574" unicode="é" d="M449 281q-3 62 -50.5 106t-110.5 44q-74 0 -123 -54q-30 -33 -39 -96h323zM542 257q0 -24 -3 -48h-413q15 -61 59 -99t106 -38q92 0 141 85h94q-28 -77 -92.5 -123.5t-146.5 -46.5q-107 0 -181 78.5t-74 185.5q0 109 74.5 187.5t182.5 78.5q106 0 179.5 -77t73.5 -183z M396 684l-174 -131l-44 55l174 131z"/>
<glyph glyph-name="ecircumflex" horiz-adv-x="574" unicode="ê" d="M449 281q-3 62 -50.5 106t-110.5 44q-74 0 -123 -54q-30 -33 -39 -96h323zM542 257q0 -24 -3 -48h-413q15 -61 59 -99t106 -38q92 0 141 85h94q-28 -77 -92.5 -123.5t-146.5 -46.5q-107 0 -181 78.5t-74 185.5q0 109 74.5 187.5t182.5 78.5q106 0 179.5 -77t73.5 -183z M446 563h-102l-56 76l-58 -76h-102l113 135h90z"/>
<glyph glyph-name="edieresis" horiz-adv-x="574" unicode="ë" d="M449 281q-3 62 -50.5 106t-110.5 44q-74 0 -123 -54q-30 -33 -39 -96h323zM542 257q0 -24 -3 -48h-413q15 -61 59 -99t106 -38q92 0 141 85h94q-28 -77 -92.5 -123.5t-146.5 -46.5q-107 0 -181 78.5t-74 185.5q0 109 74.5 187.5t182.5 78.5q106 0 179.5 -77t73.5 -183z M265 573h-90v110h90v-110zM413 573h-91v110h91v-110z"/>
<glyph glyph-name="igrave" horiz-adv-x="213" unicode="ì" d="M153 0h-93v500h93v-500zM216 608l-44 -55l-174 131l43 55z"/>
<glyph glyph-name="iacute" horiz-adv-x="213" unicode="í" d="M153 0h-93v500h93v-500zM216 684l-175 -131l-43 55l174 131z"/>
<glyph glyph-name="icircumflex" horiz-adv-x="213" unicode="î" d="M153 0h-93v500h93v-500zM223 563h-75l-40 76l-43 -76h-74l82 135h66z"/>
<glyph glyph-name="idieresis" horiz-adv-x="213" unicode="ï" d="M153 0h-93v500h93v-500zM85 573h-85v110h85v-110zM214 573h-86v110h86v-110z"/>
<glyph glyph-name="eth" horiz-adv-x="603" unicode="ð" d="M478 252q0 73 -52 124.5t-125 51.5q-72 0 -124 -52t-52 -124q0 -74 51.5 -127t125.5 -53t125 53t51 127zM571 252q0 -51 -22 -102t-59 -87q-76 -76 -192 -76q-109 0 -187.5 78.5t-78.5 187.5q0 105 76 180t181 75q69 0 121 -37q-24 60 -58 107l-67 -31l-29 45l66 30 q-12 16 -38 46l57 33q10 -8 27 -26.5t20 -21.5l71 32l30 -44l-68 -32q59 -73 104.5 -174.5t45.5 -182.5z"/>
<glyph glyph-name="ntilde" horiz-adv-x="559" unicode="ñ" d="M503 0h-94v272q0 73 -21 105q-34 51 -104 51q-65 0 -97 -44t-32 -112v-272h-95v500h87v-53q49 66 148 66q93 0 150.5 -56.5t57.5 -149.5v-307zM440 625q-37 -45 -95 -45q-21 0 -62 11.5t-62 11.5q-23 0 -61 -19l-40 59q52 35 89 35q21 0 62 -12t62 -12q8 0 18.5 3t17 5.5 t18.5 8.5l16 8z"/>
<glyph glyph-name="ograve" horiz-adv-x="603" unicode="ò" d="M477 251q0 73 -51.5 125t-124.5 52t-124.5 -52t-51.5 -125t51.5 -126t124.5 -53q74 0 125 52.5t51 126.5zM571 253q0 -111 -79.5 -188.5t-190.5 -77.5t-190 77.5t-79 188.5q0 109 79.5 184.5t189.5 75.5t190 -75t80 -185zM410 608l-43 -55l-175 131l44 55z"/>
<glyph glyph-name="oacute" horiz-adv-x="603" unicode="ó" d="M477 251q0 73 -51.5 125t-124.5 52t-124.5 -52t-51.5 -125t51.5 -126t124.5 -53q74 0 125 52.5t51 126.5zM571 253q0 -111 -79.5 -188.5t-190.5 -77.5t-190 77.5t-79 188.5q0 109 79.5 184.5t189.5 75.5t190 -75t80 -185zM410 684l-174 -131l-44 55l175 131z"/>
<glyph glyph-name="ocircumflex" horiz-adv-x="603" unicode="ô" d="M477 251q0 73 -51.5 125t-124.5 52t-124.5 -52t-51.5 -125t51.5 -126t124.5 -53q74 0 125 52.5t51 126.5zM571 253q0 -111 -79.5 -188.5t-190.5 -77.5t-190 77.5t-79 188.5q0 109 79.5 184.5t189.5 75.5t190 -75t80 -185zM461 563h-103l-55 76l-59 -76h-102l114 135h90z "/>
<glyph glyph-name="otilde" horiz-adv-x="603" unicode="õ" d="M477 251q0 73 -51.5 125t-124.5 52t-124.5 -52t-51.5 -125t51.5 -126t124.5 -53q74 0 125 52.5t51 126.5zM571 253q0 -111 -79.5 -188.5t-190.5 -77.5t-190 77.5t-79 188.5q0 109 79.5 184.5t189.5 75.5t190 -75t80 -185zM461 625q-34 -45 -94 -45q-21 0 -62 11.5 t-62 11.5q-26 0 -61 -19l-41 59q53 35 90 35q20 0 61.5 -12t62.5 -12t69 25z"/>
<glyph glyph-name="odieresis" horiz-adv-x="603" unicode="ö" d="M477 251q0 73 -51.5 125t-124.5 52t-124.5 -52t-51.5 -125t51.5 -126t124.5 -53q74 0 125 52.5t51 126.5zM571 253q0 -111 -79.5 -188.5t-190.5 -77.5t-190 77.5t-79 188.5q0 109 79.5 184.5t189.5 75.5t190 -75t80 -185zM273 573h-91v110h91v-110zM420 573h-90v110h90 v-110z"/>
<glyph glyph-name="divide" d="M307 157q0 -23 -17 -40t-40 -17t-40 17t-17 40q0 24 16.5 40t40.5 16q23 0 40 -16.5t17 -39.5zM467 293h-434v84h434v-84zM307 513q0 -23 -17 -39.5t-40 -16.5t-40 16.5t-17 39.5q0 24 16.5 40.5t40.5 16.5q23 0 40 -17t17 -40z" unicode="÷"/>
<glyph glyph-name="oslash" horiz-adv-x="603" unicode="ø" d="M360 418q-29 10 -59 10q-73 0 -124.5 -52t-51.5 -126q0 -65 47 -120zM477 250q0 69 -45 120l-189 -288q28 -10 58 -10q73 0 124.5 52.5t51.5 125.5zM571 253q0 -111 -79.5 -188.5t-190.5 -77.5q-60 0 -107 21l-46 -71l-71 48l45 69q-90 82 -90 199q0 109 79.5 184.5 t189.5 75.5q58 0 107 -21l46 71l72 -50l-44 -67q42 -36 65.5 -87t23.5 -106z"/>
<glyph glyph-name="ugrave" horiz-adv-x="559" unicode="ù" d="M499 0h-87v53q-44 -66 -147 -66q-93 0 -150.5 56.5t-57.5 149.5v307h93v-272q0 -74 21 -105q34 -51 104 -51q65 0 97.5 44t32.5 112v272h94v-500zM388 608l-43 -55l-175 131l44 55z"/>
<glyph glyph-name="uacute" horiz-adv-x="559" unicode="ú" d="M499 0h-87v53q-44 -66 -147 -66q-93 0 -150.5 56.5t-57.5 149.5v307h93v-272q0 -74 21 -105q34 -51 104 -51q65 0 97.5 44t32.5 112v272h94v-500zM388 684l-174 -131l-44 55l175 131z"/>
<glyph glyph-name="ucircumflex" horiz-adv-x="559" unicode="û" d="M499 0h-87v53q-44 -66 -147 -66q-93 0 -150.5 56.5t-57.5 149.5v307h93v-272q0 -74 21 -105q34 -51 104 -51q65 0 97.5 44t32.5 112v272h94v-500zM439 563h-103l-55 76l-59 -76h-102l114 135h90z"/>
<glyph glyph-name="udieresis" horiz-adv-x="559" unicode="ü" d="M499 0h-87v53q-44 -66 -147 -66q-93 0 -150.5 56.5t-57.5 149.5v307h93v-272q0 -74 21 -105q34 -51 104 -51q65 0 97.5 44t32.5 112v272h94v-500zM249 573h-90v110h90v-110zM397 573h-91v110h91v-110z"/>
<glyph glyph-name="yacute" horiz-adv-x="495" unicode="ý" d="M497 500l-276 -667h-97l73 177l-199 490h101l147 -388l150 388h101zM382 665l-160 -108l-42 54l156 114z"/>
<glyph glyph-name="thorn" horiz-adv-x="615" unicode="þ" d="M490 249q0 73 -50.5 126t-124.5 53q-70 0 -117 -54t-47 -125q0 -73 49 -125.5t121 -52.5t120.5 52.5t48.5 125.5zM583 247q0 -110 -71 -185.5t-181 -75.5q-54 0 -103 22t-75 64v-239h-93v834h93v-244q58 90 170 90q119 0 192 -84q31 -36 49.5 -85t18.5 -97z"/>
<glyph glyph-name="ydieresis" horiz-adv-x="495" unicode="ÿ" d="M497 500l-276 -667h-97l73 177l-199 490h101l147 -388l150 388h101zM219 573h-90v110h90v-110zM367 573h-91v110h91v-110z"/>
<glyph glyph-name="dotlessi" horiz-adv-x="213" unicode="ı" d="M153 0h-93v500h93v-500z"/>
<glyph glyph-name="Lslash" horiz-adv-x="412" unicode="Ł" d="M395 0h-328v247l-57 -42v100l57 43v319h97v-272l136 98v-100l-136 -99v-205h231v-89z"/>
<glyph glyph-name="lslash" horiz-adv-x="227" unicode="ł" d="M223 384l-64 -47v-337h-93v289l-63 -48v88l63 48v290h93v-242l64 47v-88z"/>
<glyph glyph-name="OE" horiz-adv-x="985" unicode="Œ" d="M625 329q0 112 -69 187t-179 75q-107 0 -176.5 -77t-69.5 -185q0 -107 70.5 -180t177.5 -73q108 0 177 72.5t69 180.5zM943 0h-318v95q-17 -23 -30.5 -35.5t-36.5 -26.5q-79 -46 -177 -46q-148 0 -248 97.5t-100 245.5q0 68 29.5 139.5t78.5 118.5q46 44 111 68t131 24 q72 0 138 -28t104 -82v97h318v-90h-222v-196h222v-89h-222v-203h222v-89z"/>
<glyph glyph-name="oe" horiz-adv-x="1026" unicode="œ" d="M476 250q0 77 -50.5 127.5t-126.5 50.5t-125 -50.5t-49 -126.5t48.5 -127.5t124.5 -51.5q77 0 127.5 50.5t50.5 127.5zM902 281q-4 37 -14 60t-35 45q-48 42 -117 42q-86 0 -134 -60q-26 -31 -32 -87h332zM995 250q0 -13 -2 -41h-422q10 -60 57 -98.5t108 -38.5 q103 0 149 87h95q-34 -85 -101 -129q-67 -43 -142 -43q-66 0 -121.5 31.5t-91.5 88.5q-34 -58 -92 -89t-127 -31q-116 0 -194.5 74t-78.5 190q0 113 76.5 188t189.5 75q148 0 226 -119q79 118 212 118q111 0 185 -76t74 -187z"/>
<glyph glyph-name="Scaron" horiz-adv-x="460" unicode="Š" d="M425 200q0 -88 -58 -150.5t-145 -62.5q-107 0 -169 80q-40 52 -42 130h96q6 -49 20 -71q32 -50 93 -50q46 0 77 32.5t31 78.5q0 43 -26 66.5t-73 37.5q-3 1 -9 2.5t-9 2.5q-7 3 -33 11.5t-37.5 13.5t-29 16t-29.5 24q-45 48 -45 122q0 85 54 141t139 56q102 0 156 -88 q24 -38 27 -98h-98q-3 41 -27 69t-63 28q-37 0 -64 -27.5t-27 -64.5q0 -19 7.5 -34.5t15.5 -24t26.5 -17t28 -11.5t32.5 -10q33 -10 50 -16t40 -19.5t40 -32.5q51 -57 51 -134zM404 863l-125 -128h-90l-127 128h103l66 -69l70 69h103z"/>
<glyph glyph-name="scaron" horiz-adv-x="399" unicode="š" d="M365 146q0 -67 -52 -113t-119 -46q-49 0 -90.5 23t-63.5 65q-17 33 -19 88h94q7 -91 83 -91q31 0 52.5 18t21.5 48q0 17 -6 29.5t-21.5 22t-23 12.5t-29.5 11q-5 2 -8 3q-73 26 -97 48q-43 39 -43 94q0 68 45.5 111.5t113.5 43.5q64 0 107 -41t44 -105h-93q-8 61 -62 61 q-26 0 -43.5 -15t-17.5 -41q0 -18 13 -31t24.5 -18t33.5 -12q4 -1 6 -2q72 -22 103 -53q47 -47 47 -110zM363 705l-114 -135h-90l-115 135h96l62 -75l65 75h96z"/>
<glyph glyph-name="Ydieresis" horiz-adv-x="510" unicode="Ÿ" d="M510 667l-206 -427v-240h-97v240l-207 427h109l147 -313l146 313h108zM225 740h-93v110h93v-110zM378 740h-93v110h93v-110z"/>
<glyph glyph-name="Zcaron" horiz-adv-x="457" unicode="Ž" d="M433 0h-410v89l289 489h-274v89h383v-89l-287 -489h299v-89zM406 863l-126 -128h-90l-126 128h103l66 -69l70 69h103z"/>
<glyph glyph-name="zcaron" horiz-adv-x="395" unicode="ž" d="M381 0h-361v72l240 343h-217v85h320v-94l-226 -321h244v-85zM362 705l-114 -135h-90l-115 135h96l62 -75l65 75h96z"/>
<glyph glyph-name="florin" d="M462 732l-14 -81q-24 -1 -41.5 -9.5t-27.5 -18.5t-18 -30.5t-11.5 -34t-8.5 -40.5h86l-14 -85h-87l-58 -327q-9 -51 -14.5 -75.5t-24 -61.5t-46.5 -59q-49 -39 -121 -39q-27 0 -46 6l14 78q26 0 39.5 1t32.5 8t33 21q7 7 13 16.5t11 22.5t8 22t7 26t5 23.5t4.5 25 t3.5 20.5l51 292h-87l14 85h87l6 30q16 79 64 132t124 53q11 0 16 -1z" unicode="ƒ"/>
<glyph glyph-name="circumflex" d="M409 563h-102l-55 76l-59 -76h-102l113 135h90z" unicode="ˆ"/>
<glyph glyph-name="caron" d="M409 698l-113 -135h-90l-115 135h102l55 -75l59 75h102z" unicode="ˇ"/>
<glyph glyph-name="breve" d="M411 689q-35 -119 -161 -119t-161 119h70q29 -56 91 -56q63 0 91 56h70z" unicode="˘"/>
<glyph glyph-name="dotaccent" d="M295 573h-90v110h90v-110z" unicode="˙"/>
<glyph glyph-name="ring" d="M299 653q0 21 -14 36t-35 15t-35 -15t-14 -36t14 -35.5t35 -14.5t35 14.5t14 35.5zM350 653q0 -41 -29.5 -70.5t-70.5 -29.5t-70.5 29.5t-29.5 70.5t29.5 70.5t70.5 29.5t70.5 -29.5t29.5 -70.5z" unicode="˚"/>
<glyph glyph-name="ogonek" d="M351 -172q-21 -9 -56 -9q-45 0 -75.5 20.5t-30.5 63.5q0 56 73 97h62q-66 -39 -66 -77q0 -22 15.5 -34t37.5 -12q18 0 40 10v-59z" unicode="˛"/>
<glyph glyph-name="tilde" d="M410 625q-35 -45 -95 -45q-21 0 -62 11.5t-61 11.5q-26 0 -61 -19l-41 59q52 35 89 35q21 0 62 -12t62 -12q20 0 70 25z" unicode="˜"/>
<glyph glyph-name="hungarumlaut" d="M309 691l-135 -138l-49 46l134 138zM455 691l-134 -138l-50 46l135 138z" unicode="˝"/>
<glyph glyph-name="endash" d="M467 293h-434v84h434v-84z" unicode="–"/>
<glyph glyph-name="emdash" horiz-adv-x="755" unicode="—" d="M755 210h-755v93h755v-93z"/>
<glyph glyph-name="quoteleft" horiz-adv-x="213" unicode="‘" d="M153 442h-93v100q0 106 93 125v-56q-21 -8 -27 -21t-6 -38h33v-110z"/>
<glyph glyph-name="quoteright" horiz-adv-x="213" unicode="’" d="M153 567q0 -106 -93 -125v56q21 8 27 21t6 38h-33v110h93v-100z"/>
<glyph glyph-name="quotesinglbase" horiz-adv-x="213" unicode="‚" d="M153 10q0 -106 -93 -125v56q21 8 27 21t6 38h-33v110h93v-100z"/>
<glyph glyph-name="quotedblleft" horiz-adv-x="353" unicode="“" d="M153 442h-93v100q0 106 93 125v-56q-21 -8 -27 -21t-6 -38h33v-110zM293 442h-93v100q0 106 93 125v-56q-21 -8 -27 -21t-6 -38h33v-110z"/>
<glyph glyph-name="quotedblright" horiz-adv-x="353" unicode="”" d="M153 567q0 -106 -93 -125v56q21 8 27 21t6 38h-33v110h93v-100zM293 567q0 -106 -93 -125v56q21 8 27 21t6 38h-33v110h93v-100z"/>
<glyph glyph-name="quotedblbase" horiz-adv-x="353" unicode="„" d="M153 10q0 -106 -93 -125v56q21 8 27 21t6 38h-33v110h93v-100zM293 10q0 -106 -93 -125v56q21 8 27 21t6 38h-33v110h93v-100z"/>
<glyph glyph-name="bullet" horiz-adv-x="667" unicode="•" d="M471 340q0 -57 -40 -98.5t-97 -41.5t-97.5 41.5t-40.5 98.5t40.5 98.5t97.5 41.5t97 -41.5t40 -98.5z"/>
<glyph glyph-name="guilsinglleft" horiz-adv-x="209" unicode="‹" d="M163 88l-123 121v93l123 123v-102l-67 -67l67 -67v-101z"/>
<glyph glyph-name="guilsinglright" horiz-adv-x="210" unicode="›" d="M170 304l-1 -93l-122 -123v103l67 66l-67 67v101z"/>
<glyph glyph-name="fraction" horiz-adv-x="134" unicode="⁄" d="M234 667l-277 -667h-57l278 667h56z"/>
<glyph glyph-name="Euro" horiz-adv-x="835" unicode="€" d="M524 295l-36 -84h-198q33 -61 89.5 -98t124.5 -37q106 0 183 88h119q-47 -84 -127 -130.5t-176 -46.5q-108 0 -195 62.5t-124 161.5h-176l36 84h119q-2 26 -2 40q0 12 2 36h-155l36 85h138q37 100 124.5 162t197.5 62q100 0 178.5 -47.5t128.5 -135.5h-117 q-80 94 -188 94q-71 0 -128.5 -37t-89.5 -98h304l-36 -85h-295q-2 -24 -2 -36q0 -21 3 -40h262z"/>
</font>
</defs>
</svg>
