<?xml version="1.0" standalone="no"?>
<!DOCTYPE svg PUBLIC "-//W3C//DTD SVG 1.1//EN" "http://www.w3.org/Graphics/SVG/1.1/DTD/svg11.dtd" >
<svg xmlns="http://www.w3.org/2000/svg" xmlns:xlink="http://www.w3.org/1999/xlink" version="1.1">
<metadata>
Created by FontForge 20161013 at Thu Nov 15 18:24:24 2007
 By ,,,
Copyright \(c\) 1998 Elsner+Flake. All Rights Reserved.
</metadata>
<defs>
<font id="AvantGardEF-Bold" horiz-adv-x="500" >
  <font-face 
    font-family="AvantGardEF"
    font-weight="700"
    font-stretch="normal"
    units-per-em="1000"
    panose-1="2 0 8 3 2 0 0 2 0 4"
    ascent="800"
    descent="-200"
    x-height="500"
    cap-height="667"
    bbox="-120 -250 1137 942"
    underline-thickness="20"
    underline-position="-186"
    unicode-range="U+0020-FB02"
  />
<missing-glyph horiz-adv-x="280" 
 />
    <glyph glyph-name="fi" unicode="fi" horiz-adv-x="544" 
d="M213 387v-387h-150v387h-55v113h55v26q0 46 15 75.5t41 47t60.5 24.5t74.5 7h23v-113q-21 0 -33.5 -2.5t-19.5 -10t-9 -20.5t-2 -34h64v-113h-64zM344 0v500h150v-500h-150zM344 553v114h150v-114h-150z" />
    <glyph glyph-name="fl" unicode="fl" horiz-adv-x="544" 
d="M213 387v-387h-150v387h-55v113h55v26q0 46 15 75.5t41 47t60.5 24.5t74.5 7h23v-113q-21 0 -33.5 -2.5t-19.5 -10t-9 -20.5t-2 -34h64v-113h-64zM344 0v667h150v-667h-150z" />
    <glyph glyph-name=".notdef" horiz-adv-x="280" 
 />
    <glyph glyph-name=".null" horiz-adv-x="0" 
 />
    <glyph glyph-name="nonmarkingreturn" horiz-adv-x="250" 
 />
    <glyph glyph-name="space" unicode=" " horiz-adv-x="250" 
 />
    <glyph glyph-name="exclam" unicode="!" horiz-adv-x="295" 
d="M70 0v153h155v-153h-155zM70 220v447h155v-447h-155z" />
    <glyph glyph-name="quotedbl" unicode="&#x22;" horiz-adv-x="408" 
d="M158 399h-93l-24 268h141zM343 399h-93l-24 268h141z" />
    <glyph glyph-name="numbersign" unicode="#" horiz-adv-x="600" 
d="M269 383l-13 -86h87l13 86h-87zM587 383h-101l-13 -86h102l-18 -114h-102l-29 -183h-130l29 183h-87l-29 -183h-129l30 183h-102l17 114h102l14 86h-101l17 114h101l28 170h128l-27 -170h87l27 170h130l-27 -170h100z" />
    <glyph glyph-name="dollar" unicode="$" horiz-adv-x="550" 
d="M479 209q0 -67 -39.5 -114.5t-102.5 -67.5v-95h-122v91q-34 7 -60.5 20t-48.5 41q-20 26 -30 56t-10 62h154q2 -24 13.5 -44t39.5 -20q23 0 37.5 16t14.5 38q0 21 -12 35.5t-29 24.5t-36.5 17t-35.5 13q-31 12 -57 27.5t-44.5 37t-29 49t-10.5 62.5q0 70 39 117t105 65
v91h122v-91q30 -8 50 -19.5t39 -36.5q20 -26 28.5 -50t8.5 -56v-9h-140q-2 23 -12.5 40t-36.5 17q-23 0 -36 -14.5t-13 -36.5t13 -37t31.5 -25.5t39.5 -17t37 -12.5q58 -21 95.5 -66t37.5 -108z" />
    <glyph glyph-name="percent" unicode="%" horiz-adv-x="800" 
d="M253 519q0 25 -17 43t-42 18q-26 0 -43 -17.5t-17 -43.5t17 -44t43 -18t42.5 18.5t16.5 43.5zM666 148q0 25 -16.5 43.5t-42.5 18.5t-43 -18t-17 -43q0 -26 17 -44.5t43 -18.5t42.5 18t16.5 44zM357 519q0 -35 -12.5 -64.5t-34 -51.5t-51.5 -34t-65 -12t-65 12t-52 33
t-34.5 50.5t-12.5 64.5t12 65t34 51.5t52 34t65 12.5q34 0 64 -12t52.5 -33.5t35 -51t12.5 -64.5zM313 0h-106l280 667h106zM770 148q0 -35 -12.5 -64.5t-34.5 -51t-52 -33.5t-64 -12q-35 0 -65 11.5t-52 32.5t-34.5 50.5t-12.5 64.5q0 36 12.5 66t34 51.5t51.5 34t66 12.5
q35 0 65 -12t51.5 -34t34 -51.5t12.5 -64.5z" />
    <glyph glyph-name="ampersand" unicode="&#x26;" horiz-adv-x="660" 
d="M245 274q-19 -15 -35 -33.5t-16 -44.5q0 -32 23.5 -49t53.5 -17q26 0 45 8.5t36 27.5zM315 517q0 18 -10 30.5t-29 12.5t-30 -13.5t-11 -31.5q0 -23 12 -39.5t26 -32.5q17 16 29.5 33t12.5 41zM592 269q-10 -24 -22 -46.5t-28 -42.5l91 -93l-102 -100l-79 81
q-45 -39 -92 -60t-107 -21q-42 0 -82 13.5t-71.5 38t-50.5 60.5t-19 81q0 32 10 58.5t27 48.5t39.5 41t46.5 36q-31 31 -47 65.5t-16 78.5q0 38 15 70t40.5 54.5t59 35t70.5 12.5q35 0 67 -12t56 -33.5t38.5 -51.5t14.5 -67q0 -53 -25.5 -88.5t-67.5 -64.5l79 -79l49 109
h157z" />
    <glyph glyph-name="quotesingle" unicode="'" horiz-adv-x="223" 
d="M158 399h-93l-24 268h141z" />
    <glyph glyph-name="parenleft" unicode="(" horiz-adv-x="372" 
d="M345 -187q-35 13 -67 29.5t-62 38.5q-44 33 -78.5 74t-58.5 88.5t-36.5 100t-12.5 106.5q0 110 49 206.5t137 162.5q30 22 62 38.5t67 29.5v-149q-38 -20 -67.5 -52t-49.5 -71t-30.5 -81.5t-10.5 -84.5q0 -41 10.5 -83.5t31 -81t49.5 -70.5t67 -52v-149z" />
    <glyph glyph-name="parenright" unicode=")" horiz-adv-x="372" 
d="M342 250q0 -110 -49 -206.5t-137 -162.5q-30 -22 -62 -38.5t-67 -29.5v149q38 20 67.5 52t49.5 71t30.5 81.5t10.5 84.5q0 41 -10.5 83.5t-31 81t-50 70.5t-66.5 52v149q35 -13 67 -29.5t62 -38.5q44 -33 78.5 -74t58.5 -88.5t36.5 -100t12.5 -106.5z" />
    <glyph glyph-name="asterisk" unicode="*" horiz-adv-x="550" 
d="M355 449l75 -99l-84 -64l-73 104l-72 -104l-84 64l78 99l-119 36l33 99l115 -43l-3 126h108l-6 -126l116 43l35 -99z" />
    <glyph glyph-name="plus" unicode="+" 
d="M313 281v-154h-126v154h-154v117h154v154h126v-154h154v-117h-154z" />
    <glyph glyph-name="comma" unicode="," horiz-adv-x="262" 
d="M209 -36q0 -21 -5.5 -40.5t-17 -35t-29 -24.5t-40.5 -9h-64v80h22t22.5 2.5t18 9.5t7.5 22v31h-70v153h156v-189z" />
    <glyph glyph-name="hyphen" unicode="-" horiz-adv-x="253" 
d="M0 193v127h253v-127h-253z" />
    <glyph glyph-name="hyphen" unicode="&#xad;" horiz-adv-x="253" 
d="M0 193v127h253v-127h-253z" />
    <glyph glyph-name="period" unicode="." horiz-adv-x="262" 
d="M53 0v153h156v-153h-156z" />
    <glyph glyph-name="slash" unicode="/" horiz-adv-x="422" 
d="M128 -167h-147l261 834h147z" />
    <glyph glyph-name="zero" unicode="0" horiz-adv-x="550" 
d="M354 431q0 20 -4 38t-13 31.5t-24.5 21.5t-37.5 8t-37 -8.5t-24.5 -22t-13.5 -31.5t-4 -37v-195q0 -20 4 -37.5t13.5 -31.5t24.5 -22t37 -8t37.5 8t24.5 21.5t13 31.5t4 38v195zM524 236q0 -52 -19 -97.5t-52 -79t-78 -53t-97 -19.5q-34 0 -68 10t-65 28.5t-55.5 44
t-39.5 56.5q-11 23 -17.5 53.5t-6.5 56.5v194q0 59 22 108t69 85q34 26 75.5 41.5t84.5 15.5q34 0 68.5 -10.5t65 -29.5t54.5 -45.5t38 -57.5q10 -24 15.5 -52.5t5.5 -54.5v-194z" />
    <glyph glyph-name="one" unicode="1" horiz-adv-x="550" 
d="M213 0v523h-109v144h279v-667h-170z" />
    <glyph glyph-name="two" unicode="2" horiz-adv-x="550" 
d="M41 0v133l26 16q41 25 76.5 52t69.5 60q18 17 39.5 41.5t40 52t31.5 56t13 54.5q0 29 -17 47t-46 18q-23 0 -37.5 -9.5t-23 -24.5t-12 -34t-4.5 -38h-162q1 44 7.5 79.5t31.5 73.5q35 53 90 78t117 25q43 0 83.5 -13t72 -38t51 -61.5t19.5 -82.5q0 -54 -20.5 -102
t-53 -90.5t-72 -79.5t-76.5 -70h226v-143h-470z" />
    <glyph glyph-name="three" unicode="3" horiz-adv-x="547" 
d="M515 196q0 -48 -22 -87t-57.5 -66t-79.5 -41.5t-88 -14.5q-33 0 -67.5 7t-65.5 22.5t-55.5 39t-37.5 56.5q-9 23 -13 42.5t-6 43.5h172q15 -61 76 -61q30 0 52 17t22 49q0 30 -16 44t-39 19.5t-49 4.5t-46 -1v125q21 0 41.5 1.5t36 9t25 23t9.5 43.5q0 22 -11 40t-36 18
q-26 0 -38.5 -16t-13.5 -41h-168q1 49 19 88t48.5 65t72 40t88.5 14q40 0 77.5 -12.5t66.5 -35.5t47 -57t18 -77q0 -49 -23 -83.5t-65 -57.5q57 -19 91.5 -58.5t34.5 -102.5z" />
    <glyph glyph-name="four" unicode="4" horiz-adv-x="550" 
d="M314 460l-134 -209h134v209zM467 117v-117h-164v117h-293v125l298 425h159v-416h73v-134h-73z" />
    <glyph glyph-name="five" unicode="5" horiz-adv-x="550" 
d="M527 229q0 -54 -20.5 -98.5t-56 -76.5t-82 -49.5t-98.5 -17.5q-46 0 -88 12.5t-75.5 36.5t-57 60t-32.5 83h171q15 -20 34.5 -31t44.5 -11q18 0 34.5 7t28.5 19t19.5 28t7.5 34q0 39 -27 63.5t-65 24.5q-62 0 -87 -58l-137 34l57 378h369v-144h-238l-15 -91
q23 12 43.5 16.5t46.5 4.5q48 0 88.5 -17t70.5 -47t47 -71t17 -89z" />
    <glyph glyph-name="six" unicode="6" horiz-adv-x="550" 
d="M365 227q0 39 -27 65t-66 26q-38 0 -64.5 -25t-26.5 -64t27 -65.5t66 -26.5q38 0 64.5 26t26.5 64zM536 242q0 -56 -20 -103t-55 -80.5t-82.5 -52.5t-102.5 -19q-54 0 -102 19.5t-84 54t-56.5 81.5t-20.5 102q0 46 18 93.5t44 85.5l166 244h197l-147 -203q11 2 21 3t21 1
q46 0 84 -19t64 -50.5t40.5 -72t14.5 -84.5z" />
    <glyph glyph-name="seven" unicode="7" horiz-adv-x="550" 
d="M261 0h-187l246 523h-259v144h435v-131z" />
    <glyph glyph-name="eight" unicode="8" horiz-adv-x="550" 
d="M348 213q0 31 -20.5 53.5t-52.5 22.5t-52.5 -21.5t-20.5 -53.5q0 -33 21 -55t54 -22q31 0 51 23t20 53zM336 482q0 25 -17.5 42.5t-42.5 17.5q-28 0 -45.5 -18t-17.5 -46q0 -26 18 -42.5t43 -16.5q26 0 44 18.5t18 44.5zM518 201q0 -49 -21 -88.5t-55 -67.5t-77.5 -43
t-88.5 -15t-89 15.5t-78.5 43.5t-55.5 67.5t-21 87.5q0 54 26.5 99t77.5 67q-32 26 -48.5 54.5t-16.5 70.5q0 43 16.5 78t44.5 59.5t65 37.5t78 13q40 0 77 -13t65 -37.5t44.5 -59t16.5 -76.5t-16.5 -72t-48.5 -55q51 -22 78 -66.5t27 -99.5z" />
    <glyph glyph-name="nine" unicode="9" horiz-adv-x="550" 
d="M366 441q0 38 -27.5 63.5t-64.5 25.5q-18 0 -34 -7t-29 -19t-20.5 -28t-7.5 -34q0 -38 27 -64.5t65 -26.5t64.5 26t26.5 64zM537 419q0 -24 -2.5 -43.5t-8 -37.5t-14.5 -36t-22 -38l-170 -264h-194l150 207q-22 -7 -45 -7q-49 0 -89 18.5t-68.5 50t-44 74t-15.5 89.5
q0 55 20.5 100.5t55.5 78.5t82 51t101 18q57 0 105.5 -19.5t83.5 -54t55 -82.5t20 -105z" />
    <glyph glyph-name="colon" unicode=":" horiz-adv-x="262" 
d="M53 0v153h156v-153h-156zM53 347v153h156v-153h-156z" />
    <glyph glyph-name="semicolon" unicode=";" horiz-adv-x="262" 
d="M209 -36q0 -21 -5.5 -40.5t-17 -35t-29 -24.5t-40.5 -9h-64v80h22t22.5 2.5t18 9.5t7.5 22v31h-70v153h156v-189zM53 347v153h156v-153h-156z" />
    <glyph glyph-name="semicolon" unicode="&#x37e;" horiz-adv-x="262" 
d="M209 -36q0 -21 -5.5 -40.5t-17 -35t-29 -24.5t-40.5 -9h-64v80h22t22.5 2.5t18 9.5t7.5 22v31h-70v153h156v-189zM53 347v153h156v-153h-156z" />
    <glyph glyph-name="less" unicode="&#x3c;" 
d="M33 281v106l434 220v-126l-300 -148l299 -148l1 -124z" />
    <glyph glyph-name="equal" unicode="=" 
d="M33 199v110h434v-110h-434zM33 371v110h434v-110h-434z" />
    <glyph glyph-name="greater" unicode="&#x3e;" 
d="M33 61v125l300 148l-299 148l-1 125l434 -220v-107z" />
    <glyph glyph-name="question" unicode="?" horiz-adv-x="496" 
d="M139 0v153h156v-153h-156zM466 489q0 -37 -12 -65.5t-30.5 -51.5t-40 -42t-40.5 -37.5t-32.5 -37.5t-15.5 -43h-156q0 32 12 57.5t29 46.5t37 40t36.5 37t28 36.5t11.5 40.5q0 26 -12.5 41t-39.5 15q-20 0 -32 -7t-18.5 -19t-9 -28t-2.5 -33h-165q-1 5 -1 8.5v8.5
q0 51 18.5 92.5t50.5 70.5t75 45t93 16q41 0 80 -13.5t69 -38t48.5 -60t18.5 -79.5z" />
    <glyph glyph-name="at" unicode="@" horiz-adv-x="733" 
d="M444 345q0 28 -17.5 47t-46.5 19q-20 0 -36.5 -9.5t-28 -24.5t-17.5 -34t-6 -37q0 -30 17 -51t49 -21q21 0 37.5 10.5t27 26.5t16 36t5.5 38zM700 384q0 -50 -17 -99q-9 -23 -22.5 -46.5t-32.5 -42.5t-42 -31t-50 -12q-26 0 -48 14.5t-30 40.5q-21 -30 -54.5 -46.5
t-69.5 -16.5q-32 0 -58 13t-44.5 34.5t-28.5 50t-10 59.5q0 36 13 71.5t36 64t55 46.5t71 18q29 0 55.5 -12t42.5 -37l7 39l87 -1l-37 -190l-4 -22t-2 -22t4.5 -21.5t18.5 -10.5t26 10.5t20 21.5q19 26 28 60.5t9 66.5q0 51 -18.5 91t-50 67.5t-74.5 42.5t-91 15
q-58 0 -107.5 -21.5t-86 -58.5t-57 -87t-20.5 -107q0 -39 10.5 -77t31 -71t50 -58t67.5 -38q27 -9 55 -12.5t57 -3.5q47 0 92.5 7.5t89.5 23.5l20 -78q-48 -17 -100.5 -24t-103.5 -7q-71 0 -133.5 20t-115.5 70q-51 48 -78 114t-27 136q0 73 27.5 137t74.5 111.5t111 74.5
t138 27q64 0 121.5 -21t101 -59.5t68.5 -92.5t25 -121z" />
    <glyph glyph-name="A" unicode="A" horiz-adv-x="660" 
d="M332 460l-70 -228h139zM479 0l-32 97h-232l-35 -97h-183l267 667h135l265 -667h-185z" />
    <glyph glyph-name="B" unicode="B" horiz-adv-x="577" 
d="M385 213q0 19 -7.5 30.5t-19.5 17.5t-27 8t-31 2h-80v-121h80q16 0 31 3t27 10t19.5 19.5t7.5 30.5zM352 466q0 17 -6 27t-16 15.5t-23 7t-27 1.5h-60v-104h60q29 0 50.5 10t21.5 43zM548 202q0 -42 -15.5 -78.5t-45.5 -65.5q-24 -22 -49.5 -34t-53 -17t-56.5 -6t-60 -1
h-211v667h205q22 0 47.5 -0.5t51 -3.5t49.5 -10.5t42 -22.5q31 -25 47 -62t16 -76q0 -44 -19.5 -78.5t-57.5 -56.5q55 -18 82.5 -57.5t27.5 -97.5z" />
    <glyph glyph-name="C" unicode="C" horiz-adv-x="736" 
d="M717 249q-14 -59 -46 -107.5t-76 -83t-99 -53t-116 -18.5q-73 0 -137 27t-111.5 73.5t-75 110t-27.5 137.5q0 73 27 136t74.5 109.5t111 73t136.5 26.5q93 0 169.5 -41.5t126.5 -119.5q19 -29 28.5 -50.5t14.5 -55.5h-178q-20 52 -62.5 84.5t-99.5 32.5q-41 0 -73.5 -16
t-56 -43t-36 -62t-12.5 -74t12.5 -74.5t36 -63t56.5 -44t74 -16.5q57 0 97 31t64 81h178z" />
    <glyph glyph-name="D" unicode="D" horiz-adv-x="662" 
d="M463 331q0 40 -9 74t-28.5 59t-50.5 39t-74 14h-74v-367h73q85 0 124 50t39 131zM633 336q0 -72 -21 -133.5t-61.5 -106.5t-98.5 -70.5t-133 -25.5h-262v667h224q59 0 109 -8t101 -40q75 -48 108.5 -122.5t33.5 -160.5z" />
    <glyph glyph-name="E" unicode="E" horiz-adv-x="469" 
d="M57 0v667h370v-150h-207v-103h201v-150h-201v-114h207v-150h-370z" />
    <glyph glyph-name="F" unicode="F" horiz-adv-x="444" 
d="M220 517v-113h194v-150h-194v-254h-163v667h364v-150h-201z" />
    <glyph glyph-name="G" unicode="G" horiz-adv-x="767" 
d="M739 345q0 -76 -27 -141.5t-75 -113.5t-113.5 -75.5t-141.5 -27.5q-74 0 -138 27t-112 74t-75.5 110.5t-27.5 137.5q0 75 28 138t77 109t113.5 71.5t138.5 25.5q54 0 107 -17t98 -48t78.5 -74.5t48.5 -97.5h-191q-23 42 -60.5 64.5t-85.5 22.5q-40 0 -73.5 -14.5
t-57.5 -39.5t-37.5 -59.5t-13.5 -73.5q0 -44 13 -82t38 -66t61 -43.5t82 -15.5q53 0 93.5 27t53.5 80h-198v136h395q1 -8 1.5 -17t0.5 -17z" />
    <glyph glyph-name="H" unicode="H" horiz-adv-x="671" 
d="M445 0v267h-218v-267h-170v667h170v-250h218v250h170v-667h-170z" />
    <glyph glyph-name="I" unicode="I" horiz-adv-x="283" 
d="M57 0v667h170v-667h-170z" />
    <glyph glyph-name="J" unicode="J" horiz-adv-x="504" 
d="M454 263q0 -24 -0.5 -49t-4.5 -49.5t-12 -47.5t-24 -43q-34 -43 -84.5 -65t-104.5 -22q-33 0 -65 8t-59.5 24.5t-49.5 40.5t-34 56q-5 14 -8.5 25.5t-5 22.5t-2 23t-0.5 27h181q1 -13 3 -26.5t7.5 -25t15 -18.5t26.5 -7q18 0 28.5 8t15.5 20t6 27t1 29v446h170v-404z" />
    <glyph glyph-name="K" unicode="K" horiz-adv-x="603" 
d="M410 0l-183 288v-288h-170v667h170v-301l190 301h179l-222 -333l236 -334h-200z" />
    <glyph glyph-name="L" unicode="L" horiz-adv-x="437" 
d="M57 0v667h170v-517h197v-150h-367z" />
    <glyph glyph-name="M" unicode="M" horiz-adv-x="817" 
d="M603 0l6 501l-144 -501h-113l-144 501l5 -501h-156v667h219l132 -439l132 439h220v-667h-157z" />
    <glyph glyph-name="N" unicode="N" horiz-adv-x="676" 
d="M471 0l-258 405l7 -405h-163v667h146l260 -420l-7 420h163v-667h-148z" />
    <glyph glyph-name="O" unicode="O" horiz-adv-x="761" 
d="M563 332q0 39 -13 75t-37 63.5t-57.5 43.5t-74.5 16t-74.5 -15.5t-57.5 -42.5t-37 -62.5t-13 -74.5q0 -40 13 -76t37 -63t58 -43t76 -16q40 0 73 16t57 43t37 62t13 74zM733 333q0 -74 -28 -137.5t-76 -110t-112.5 -72.5t-137.5 -26t-137 26.5t-111 72.5t-74.5 109
t-27.5 137t27 138t74 110.5t111 73t138 26.5q73 0 137.5 -26.5t112.5 -73t76 -110t28 -137.5z" />
    <glyph glyph-name="P" unicode="P" horiz-adv-x="578" 
d="M395 438q0 26 -9.5 41.5t-25.5 24t-36.5 11t-41.5 2.5h-62v-157h69q21 0 40 3t33.5 12t23.5 24t9 39zM558 440q0 -48 -17.5 -94.5t-52.5 -78.5q-27 -26 -59.5 -38t-67.5 -16.5t-71 -4t-70 0.5v-209h-163v667h218q26 0 53.5 -1t54 -6t51.5 -15t46 -28q40 -33 59 -79.5
t19 -97.5z" />
    <glyph glyph-name="Q" unicode="Q" horiz-adv-x="765" 
d="M448 162q-32 42 -74 70t-97 28q-17 0 -30.5 -3t-29.5 -8q10 -24 26.5 -44.5t37.5 -35.5t45.5 -23.5t50.5 -8.5q23 0 37.5 6t33.5 19zM567 340q0 41 -14 75.5t-39 60t-59.5 40t-75.5 14.5q-38 0 -68.5 -13t-53 -35.5t-37 -53t-20.5 -66.5q26 11 46.5 16.5t48.5 5.5
q37 0 72.5 -12t67 -32t59 -45.5t50.5 -53.5q11 27 17 48.5t6 50.5zM767 -12q-11 -1 -21 -1.5t-21 -0.5q-40 0 -83.5 11.5t-72.5 41.5q-42 -26 -86.5 -39t-94.5 -13q-73 0 -138.5 25.5t-114.5 71t-77.5 108.5t-28.5 138q0 73 27 137t74.5 111.5t111 74.5t137.5 27
t139.5 -26.5t114 -73.5t76.5 -111t28 -139q0 -53 -14 -96.5t-43 -87.5q19 -17 41.5 -20.5t45.5 -2.5v-135z" />
    <glyph glyph-name="R" unicode="R" horiz-adv-x="586" 
d="M391 426q0 50 -32 70.5t-77 20.5h-62v-185h60q46 0 78.5 22t32.5 72zM375 0l-155 216v-216h-163v667h211q27 0 54 -1t53.5 -5.5t51.5 -14t46 -27.5q41 -34 61.5 -82t20.5 -101q0 -39 -11 -74t-32 -63t-52 -46.5t-71 -25.5l181 -227h-195z" />
    <glyph glyph-name="S" unicode="S" horiz-adv-x="516" 
d="M489 191q0 -53 -18 -91.5t-49.5 -63.5t-74 -37t-91.5 -12q-50 0 -94 13t-77 39t-52 65.5t-19 93.5v22h171q0 -16 3.5 -32t12 -29t21.5 -21t32 -8q27 0 46.5 18t19.5 46q0 15 -6.5 26.5t-17 20t-23 14.5t-24.5 11q-41 17 -81.5 33.5t-75.5 45.5q-31 26 -49 62t-18 76
q0 47 20.5 83.5t53.5 62t75 38.5t85 13q50 0 99 -18.5t81 -57.5q27 -32 35 -61t10 -70h-169q-4 29 -17 46.5t-44 17.5q-21 0 -40 -14t-19 -37q0 -26 18 -41t39 -25q41 -19 83 -37t76.5 -43t56 -60.5t21.5 -88.5z" />
    <glyph glyph-name="T" unicode="T" horiz-adv-x="447" 
d="M309 517v-517h-170v517h-132v150h434v-150h-132z" />
    <glyph glyph-name="U" unicode="U" horiz-adv-x="612" 
d="M562 263q0 -30 -2.5 -57t-9.5 -52.5t-20 -49t-34 -45.5q-38 -39 -86.5 -55.5t-102.5 -16.5t-103 16.5t-87 54.5q-23 23 -36.5 46t-20 48t-8.5 52.5t-2 58.5v404h170v-404q0 -24 3 -46.5t12 -40t26 -28.5t46 -11q30 0 47 10.5t25.5 28t10.5 40.5t2 47v404h170v-404z" />
    <glyph glyph-name="V" unicode="V" horiz-adv-x="602" 
d="M388 0h-175l-223 667h176l135 -468l135 468h176z" />
    <glyph glyph-name="W" unicode="W" horiz-adv-x="868" 
d="M684 0h-150l-101 431l-101 -431h-153l-172 667h173l89 -434l99 434h131l98 -436l91 436h173z" />
    <glyph glyph-name="X" unicode="X" horiz-adv-x="644" 
d="M461 0l-144 236l-137 -236h-190l233 355l-206 312h193l114 -191l111 191h192l-204 -315l231 -352h-193z" />
    <glyph glyph-name="Y" unicode="Y" horiz-adv-x="547" 
d="M359 243v-243h-170v243l-199 424h185l99 -268l100 268h183z" />
    <glyph glyph-name="Z" unicode="Z" horiz-adv-x="457" 
d="M17 0v112l230 405h-230v150h420v-138l-213 -379h213v-150h-420z" />
    <glyph glyph-name="bracketleft" unicode="[" horiz-adv-x="372" 
d="M312 -238q-44 9 -79.5 18t-72.5 36q-30 22 -49.5 47.5t-31 54t-15.5 61t-4 68.5v349q0 73 20 129t80 101q36 27 71.5 37.5t80.5 16.5v-147q-59 -2 -79 -33.5t-20 -86.5v-383q0 -55 20 -87t79 -34v-147z" />
    <glyph glyph-name="backslash" unicode="\" 
d="M334 -83l-307 833h124l306 -833h-123z" />
    <glyph glyph-name="bracketright" unicode="]" horiz-adv-x="372" 
d="M312 47q0 -36 -4 -68.5t-15.5 -61t-31 -54t-49.5 -47.5q-17 -13 -32.5 -21t-31 -13.5t-33 -9.5t-38.5 -7q-5 -1 -8.5 -1t-8.5 -2v147q59 2 79 34t20 87v383q0 55 -20 86.5t-79 33.5v147l15 -2q43 -6 72.5 -16t64.5 -36q20 -15 36.5 -33t29.5 -39q22 -37 28 -76.5t6 -81.5
v-349z" />
    <glyph glyph-name="asciicircum" unicode="^" 
d="M362 336l-112 233l-112 -233h-132l161 334h166l161 -334h-132z" />
    <glyph glyph-name="underscore" unicode="_" 
d="M0 -161v114h500v-114h-500z" />
    <glyph glyph-name="grave" unicode="`" 
d="M293 543l-204 131l60 91l195 -148z" />
    <glyph glyph-name="a" unicode="a" horiz-adv-x="627" 
d="M427 251q0 27 -9.5 50t-26.5 40t-40 26.5t-50 9.5t-49.5 -10t-39 -27.5t-26 -40.5t-9.5 -49q0 -27 9.5 -50t26.5 -40t39.5 -27t49.5 -10q56 0 90.5 36.5t34.5 91.5zM436 0v54q-11 -22 -28 -35.5t-38 -21.5t-44 -11t-45 -3q-59 0 -106 20t-80 56t-50.5 85t-17.5 106
t18 106t52 85t81 56.5t106 20.5q46 0 87 -14t65 -57v53h141v-500h-141z" />
    <glyph glyph-name="b" unicode="b" horiz-adv-x="618" 
d="M441 250q0 26 -9 49t-25.5 40.5t-39 27.5t-49.5 10t-50 -10t-39.5 -27t-25.5 -40t-9 -50t9 -50t25 -40t38.5 -27t49.5 -10t50 10t39.5 27t26 40t9.5 50zM591 253q0 -56 -17.5 -105.5t-50.5 -86t-80 -57.5t-105 -21q-25 0 -44.5 4.5t-36.5 13.5t-33 22t-32 31v-54h-142
v667h150v-207q29 31 65.5 44t78.5 13q56 0 101.5 -21t78 -57t50 -84t17.5 -102z" />
    <glyph glyph-name="c" unicode="c" horiz-adv-x="574" 
d="M557 190q-11 -46 -35.5 -84t-59 -65.5t-77.5 -42.5t-90 -15q-56 0 -105 21t-85 57t-57 85t-21 105t20.5 104.5t56 84.5t83.5 56.5t104 20.5q48 0 91.5 -15t79 -42.5t60 -66t34.5 -86.5h-151q-14 33 -43.5 51.5t-65.5 18.5q-27 0 -49 -10.5t-37.5 -28t-24 -41t-8.5 -49.5
t8.5 -49t24 -40t37.5 -26.5t49 -9.5q38 0 64 17.5t46 49.5h151z" />
    <glyph glyph-name="d" unicode="d" horiz-adv-x="623" 
d="M431 252q0 27 -9.5 50t-26.5 39.5t-40 26t-50 9.5t-50.5 -9.5t-41 -26t-27 -39.5t-9.5 -51q0 -27 9.5 -50.5t26 -41t39.5 -27t51 -9.5q57 0 92.5 36.5t35.5 92.5zM431 0v53q-31 -38 -67.5 -54t-85.5 -16q-57 0 -103.5 21t-79.5 57.5t-50.5 85t-17.5 104.5
q0 54 17.5 102.5t50 84.5t78.5 57.5t102 21.5q45 0 80.5 -13.5t67.5 -45.5v209h150v-667h-142z" />
    <glyph glyph-name="e" unicode="e" horiz-adv-x="578" 
d="M401 303q-8 42 -40 64.5t-73 22.5q-42 0 -72.5 -22.5t-39.5 -64.5h225zM551 244q0 -22 -4 -41h-375q5 -44 36 -68.5t74 -24.5q30 0 50.5 9t41.5 30l7 7h152q-16 -38 -40 -69.5t-55 -54.5t-68.5 -36t-79.5 -13q-55 0 -103 21t-83.5 57t-56 84.5t-20.5 103.5q0 54 20 103
t54.5 85.5t82 58t103.5 21.5q58 0 106.5 -21.5t83.5 -58.5t54.5 -86.5t19.5 -106.5z" />
    <glyph glyph-name="f" unicode="f" horiz-adv-x="294" 
d="M213 387v-387h-150v387h-55v113h55v26q0 46 15 75.5t41 47t60.5 24.5t74.5 7h23v-113q-21 0 -33.5 -2.5t-19.5 -10t-9 -20.5t-2 -34h64v-113h-64z" />
    <glyph glyph-name="g" unicode="g" horiz-adv-x="620" 
d="M420 248q0 27 -8.5 50.5t-24.5 41t-38 27.5t-50 10q-26 0 -48.5 -10t-39 -27t-25.5 -39.5t-9 -48.5q0 -27 8.5 -50.5t24.5 -41t38.5 -27.5t49.5 -10t49.5 9.5t38.5 26.5t25 39.5t9 49.5zM570 60v-50.5t-4 -47.5t-13 -44.5t-27 -42.5q-45 -52 -108.5 -75t-130.5 -23
q-42 0 -84 10t-77 31.5t-59 54.5t-30 80h173q12 -27 36 -38t52 -11q62 0 91.5 38t29.5 97v16q-9 -18 -26.5 -31.5t-38.5 -22.5t-43 -13.5t-41 -4.5q-54 0 -98.5 22t-77 58.5t-50 84t-17.5 99.5q0 55 18.5 104.5t52 86t80.5 58t104 21.5q43 0 81 -14.5t65 -48.5v46h142v-440z
" />
    <glyph glyph-name="h" unicode="h" horiz-adv-x="560" 
d="M363 0v273q0 20 -4 39t-13 33.5t-24.5 23t-38.5 8.5q-47 0 -65 -28.5t-18 -71.5v-277h-150v667h150v-212q21 35 57 48.5t74 13.5t73.5 -13t61.5 -41q18 -20 28 -41.5t14 -45t4.5 -48t0.5 -49.5v-279h-150z" />
    <glyph glyph-name="i" unicode="i" horiz-adv-x="250" 
d="M50 0v500h150v-500h-150zM50 553v114h150v-114h-150z" />
    <glyph glyph-name="j" unicode="j" horiz-adv-x="250" 
d="M200 11q0 -53 -9 -90t-30 -60t-57 -33.5t-90 -10.5h-37v113h20q18 0 29 6t16 16.5t6.5 24.5t1.5 29v494h150v-489zM50 553v114h150v-114h-150z" />
    <glyph glyph-name="k" unicode="k" horiz-adv-x="511" 
d="M329 281l184 -281h-170l-143 241v-241h-150v667h150v-348l141 181h177z" />
    <glyph glyph-name="l" unicode="l" horiz-adv-x="250" 
d="M50 0v667h150v-667h-150z" />
    <glyph glyph-name="m" unicode="m" horiz-adv-x="864" 
d="M667 0v266q0 21 -2 40.5t-9.5 35.5t-22.5 25.5t-40 9.5q-24 0 -39.5 -8.5t-25 -23t-13.5 -33t-4 -39.5v-273h-150v273q0 19 -3.5 38t-12 33.5t-23.5 23.5t-38 9q-24 0 -40 -8.5t-25.5 -22.5t-14 -33t-4.5 -40v-273h-150v500h142v-53q24 38 58.5 54t78.5 16q51 0 86 -22.5
t59 -66.5q55 89 159 89q76 0 129 -50q22 -21 33 -43t16 -46t5.5 -50.5t0.5 -54.5v-273h-150z" />
    <glyph glyph-name="n" unicode="n" horiz-adv-x="560" 
d="M363 0v273q0 21 -3 40t-11.5 33t-24 22.5t-39.5 8.5q-48 0 -66.5 -27t-18.5 -71v-279h-150v500h142v-53q26 38 58.5 54t78.5 16q37 0 72.5 -12.5t61.5 -38.5q34 -34 42 -70.5t8 -82.5v-313h-150z" />
    <glyph glyph-name="o" unicode="o" horiz-adv-x="595" 
d="M417 250q0 25 -9 48t-24.5 40.5t-37.5 28t-48 10.5t-48.5 -10t-38.5 -27.5t-25 -40.5t-9 -48q0 -26 9 -49.5t24.5 -41t38 -27.5t49.5 -10t48.5 10t37.5 27.5t24.5 40.5t8.5 49zM567 250q0 -58 -20.5 -107t-56.5 -84.5t-85.5 -55.5t-106.5 -20t-106.5 19.5t-86 54.5
t-57.5 83.5t-21 106.5t20 107.5t56 85.5t85.5 56.5t108.5 20.5q57 0 106.5 -20t86 -55.5t57 -84.5t20.5 -107z" />
    <glyph glyph-name="p" unicode="p" horiz-adv-x="623" 
d="M444 250q0 27 -9.5 50t-26.5 40.5t-40 27t-50 9.5q-26 0 -48.5 -10t-39.5 -27t-27 -39.5t-10 -48.5q0 -27 9.5 -50.5t26.5 -41t40 -27.5t50 -10t49.5 10t39.5 27t26.5 40t9.5 50zM594 246q0 -53 -17.5 -100.5t-49.5 -83.5t-77 -57.5t-100 -21.5q-46 0 -82.5 14t-67.5 49
v-213h-150v667h141v-55q31 40 69.5 56t88.5 16q58 0 103.5 -22t77 -59t48 -86t16.5 -104z" />
    <glyph glyph-name="q" unicode="q" horiz-adv-x="623" 
d="M429 249q0 27 -9.5 50.5t-26.5 40.5t-40.5 27t-50.5 10t-50 -10t-39.5 -27.5t-26 -40.5t-9.5 -50t10 -50t27 -40t40 -26.5t50 -9.5q26 0 49 10t40 27t26.5 40t9.5 49zM423 -167v218q-32 -37 -68.5 -52.5t-85.5 -15.5q-55 0 -99.5 20.5t-76 55.5t-49 82t-17.5 100
q0 56 17.5 106.5t50 88t79.5 59.5t106 22q47 0 85 -17t66 -55v55h142v-667h-150z" />
    <glyph glyph-name="r" unicode="r" horiz-adv-x="323" 
d="M317 367q-25 0 -46.5 -3.5t-37.5 -13.5t-25 -27.5t-9 -46.5v-276h-149v500h142v-53q23 39 51.5 54.5t73.5 15.5v-150z" />
    <glyph glyph-name="s" unicode="s" horiz-adv-x="445" 
d="M423 153q0 -42 -18.5 -73.5t-48.5 -53t-67 -32.5t-74 -11q-39 0 -73.5 10.5t-61 31.5t-44 52t-21.5 72h149q3 -24 18.5 -35t38.5 -11q16 0 34 9.5t18 28.5q0 11 -5.5 19.5t-14.5 14.5t-19 10t-19 6q-22 6 -44 11.5t-44 11.5q-23 6 -42.5 19.5t-33.5 31.5t-22 40.5
t-8 46.5q0 40 18 70.5t47 51.5t65 32t72 11q75 0 126 -40t58 -117h-146q-4 37 -43 37q-14 0 -30.5 -7t-16.5 -25q0 -13 8.5 -22t20.5 -15.5t25.5 -10.5t22.5 -7q22 -6 43.5 -12t41 -14t37 -20.5t30.5 -32.5q23 -35 23 -78z" />
    <glyph glyph-name="t" unicode="t" horiz-adv-x="293" 
d="M213 387v-387h-150v387h-73v113h73v167h150v-167h72v-113h-72z" />
    <glyph glyph-name="u" unicode="u" horiz-adv-x="562" 
d="M370 0v53q-20 -41 -54.5 -55.5t-77.5 -14.5t-80 15t-66 48q-16 18 -25 35.5t-13.5 36.5t-5.5 39.5t-1 43.5v299h150v-279q0 -44 16 -71t64 -27q45 0 65 28t20 70v279h150v-500h-142z" />
    <glyph glyph-name="v" unicode="v" horiz-adv-x="483" 
d="M313 0h-143l-180 500h155l96 -312l97 312h155z" />
    <glyph glyph-name="w" unicode="w" horiz-adv-x="753" 
d="M600 0h-139l-85 323l-84 -323h-139l-153 500h154l76 -311l83 311h127l83 -311l76 311h154z" />
    <glyph glyph-name="x" unicode="x" horiz-adv-x="545" 
d="M372 0l-100 155l-103 -155h-179l190 268l-168 232h179l81 -131l80 131h177l-168 -232l194 -268h-183z" />
    <glyph glyph-name="y" unicode="y" horiz-adv-x="496" 
d="M255 -167h-158l79 192l-186 475h159l101 -290l97 290h159z" />
    <glyph glyph-name="z" unicode="z" horiz-adv-x="405" 
d="M17 0v103l210 284h-210v113h372v-114l-196 -273h196v-113h-372z" />
    <glyph glyph-name="braceleft" unicode="{" 
d="M402 -193q-17 1 -34 -0.5t-34 -1.5q-41 0 -70.5 6.5t-49 23t-29 44.5t-9.5 71v155q0 33 -10 56t-45 30v107q32 7 43.5 26.5t11.5 50.5v156q0 43 10 71t30 44.5t50 22.5t71 6q8 0 16 -1t16 -1h33v-112h-20q-19 0 -34 -1t-25 -6t-15.5 -16.5t-5.5 -33.5v-138
q0 -23 -2 -40.5t-8.5 -32t-18.5 -27.5t-31 -26q38 -25 49 -53.5t11 -72.5v-138q0 -22 5.5 -33.5t15.5 -17t25 -6t34 -0.5h20v-112z" />
    <glyph glyph-name="bar" unicode="|" 
d="M187 -250v1000h126v-1000h-126z" />
    <glyph glyph-name="braceright" unicode="}" 
d="M401 182q-32 -7 -43.5 -26.5t-11.5 -50.5v-156q0 -42 -9.5 -70t-29 -44.5t-49.5 -23t-70 -6.5q-17 0 -33.5 1.5t-33.5 0.5v112h20q19 0 33.5 0.5t24.5 6t15.5 17t5.5 33.5v138q0 23 2 40.5t8.5 32t18 27t31.5 26.5q-38 25 -49 53.5t-11 72.5v138q0 22 -5.5 33.5t-16 17
t-25.5 6t-34 0.5h-18v112q17 -1 33.5 0.5t33.5 1.5q40 0 70 -7t49.5 -23.5t29 -44.5t9.5 -70v-155q0 -32 10 -55.5t45 -30.5v-107z" />
    <glyph glyph-name="asciitilde" unicode="~" horiz-adv-x="667" 
d="M577 705q-17 -36 -36.5 -66.5t-56.5 -49.5q-16 -8 -32.5 -12.5t-33.5 -4.5q-21 0 -45 8t-48 17.5t-47.5 17.5t-44.5 8q-16 0 -27 -5t-19 -13.5t-14.5 -19.5t-12.5 -24l-70 46q2 5 4 8.5t4 8.5q11 26 23.5 48t28.5 38.5t38 25.5t53 9q24 0 48.5 -8t49.5 -17.5t48.5 -17.5
t44.5 -8q29 0 44 14.5t29 38.5z" />
    <glyph glyph-name="nonbreakingspace" unicode="&#xa0;" horiz-adv-x="333" 
 />
    <glyph glyph-name="exclamdown" unicode="&#xa1;" horiz-adv-x="295" 
d="M70 -167v447h155v-447h-155zM70 347v153h155v-153h-155z" />
    <glyph glyph-name="cent" unicode="&#xa2;" horiz-adv-x="550" 
d="M497 293q-11 -63 -54 -109.5t-106 -60.5v-95h-124v95q-72 24 -116 79.5t-44 133.5q0 38 11.5 72.5t32.5 63t50.5 49.5t65.5 33v95h118v-91q31 -9 59.5 -25.5t51 -40t37.5 -52.5t18 -62h-155q-10 18 -27 27t-37 9q-32 0 -54.5 -22.5t-22.5 -54.5t22.5 -53.5t54.5 -21.5
q20 0 34 8t27 23h158z" />
    <glyph glyph-name="sterling" unicode="&#xa3;" horiz-adv-x="550" 
d="M553 170q0 -40 -17 -71.5t-44.5 -53.5t-63 -33.5t-72.5 -11.5h-320v133q15 0 36.5 -1t41.5 2.5t34 14t14 32.5q0 23 -12 40.5t-26 34.5h-116v120h44q-12 23 -18.5 41t-6.5 44q0 48 20.5 88.5t54 69.5t76.5 45t89 16q61 0 115 -26.5t86 -79.5q18 -29 24 -55.5t10 -60.5
h-157q-3 32 -18.5 52t-50.5 20t-57 -24t-22 -58q0 -23 8 -39t22 -33h141v-120h-69q13 -14 21 -28t8 -34q0 -21 -10 -34.5t-25 -26.5h38q32 0 52.5 13.5t20.5 48.5q0 15 -6 32h145q5 -15 7.5 -28t2.5 -29z" />
    <glyph glyph-name="currency" unicode="&#xa4;" horiz-adv-x="667" 
d="M471 376q0 28 -10.5 53.5t-29 44.5t-43.5 30t-54 11t-54 -11t-44 -29.5t-29.5 -44t-10.5 -54.5t11 -54t29.5 -43.5t43.5 -29.5t54 -11q28 0 53 11t44 29.5t29.5 43.5t10.5 54zM577 68l-102 102q-33 -22 -67.5 -33.5t-74.5 -11.5q-41 0 -73.5 12t-66.5 33l-102 -102
l-69 69l103 102q-22 31 -33.5 65.5t-11.5 72.5q0 39 11.5 72t33.5 65l-104 104l69 69l104 -104q33 22 66.5 33t73.5 11t72.5 -10.5t65.5 -32.5l102 102l68 -69l-101 -101q22 -35 34 -66.5t12 -73.5q0 -39 -11.5 -71.5t-32.5 -64.5l102 -103z" />
    <glyph glyph-name="yen" unicode="&#xa5;" horiz-adv-x="550" 
d="M449 456h59v-105h-104l-34 -79h111v-105h-124v-167h-163v167h-125v105h112l-38 89h-101v105h55l-86 201h169l96 -268l96 268h167z" />
    <glyph glyph-name="brokenbar" unicode="&#xa6;" 
d="M168 -167v320h165v-320h-165zM168 312v355h165v-355h-165z" />
    <glyph glyph-name="section" unicode="&#xa7;" horiz-adv-x="550" 
d="M408 196q0 12 -6 21.5t-15 16.5t-20 12.5t-20 9.5l-166 75q-16 -7 -26 -19t-10 -30q0 -23 14 -35.5t34 -21.5l182 -84q14 10 23.5 24t9.5 31zM541 222q0 -49 -20.5 -80.5t-57.5 -61.5q23 -29 35 -59.5t12 -68.5q0 -48 -18.5 -84.5t-50 -61t-72.5 -37.5t-85 -13
q-50 0 -94 14t-77.5 41t-55 66.5t-25.5 91.5h148q7 -41 34.5 -59t66.5 -18q13 0 27.5 3.5t26.5 10.5t20 18t8 27q0 15 -8 26t-20 19.5t-26 15t-25 11.5l-154 71q-26 12 -48.5 26t-38.5 33t-25 42.5t-9 55.5q0 50 24 86t62 65q-16 23 -22 47.5t-6 52.5q0 46 18.5 79.5
t48.5 55.5t69 32.5t80 10.5q42 0 80 -12.5t68 -36t48.5 -58t20.5 -78.5h-147q-8 29 -29.5 40.5t-49.5 11.5q-23 0 -43 -10t-20 -37q0 -23 17.5 -34.5t35.5 -19.5l164 -74q52 -23 82.5 -56.5t30.5 -93.5z" />
    <glyph glyph-name="dieresis" unicode="&#xa8;" 
d="M78 567v136h144v-136h-144zM278 567v136h144v-136h-144z" />
    <glyph glyph-name="copyright" unicode="&#xa9;" horiz-adv-x="747" 
d="M586 283q-9 -36 -29 -65t-47.5 -50t-61 -32t-70.5 -11q-44 0 -83.5 15.5t-69 43.5t-47 66.5t-17.5 83.5t17 82.5t46.5 65.5t68.5 43.5t83 15.5q35 0 70 -11.5t64 -32.5t49.5 -50.5t26.5 -65.5h-110q-13 32 -39 51t-61 19q-25 0 -45 -9.5t-34.5 -25t-22.5 -37t-8 -45.5
t8 -45.5t22.5 -38t34.5 -26t45 -9.5q35 0 60 18.5t40 49.5h110zM658 333q0 59 -22 111.5t-60.5 91.5t-90.5 62t-112 23q-59 0 -111 -23t-90.5 -62t-61 -91.5t-22.5 -111.5t22.5 -111t61 -91t90.5 -62t111 -23t111 22.5t90.5 61.5t61 91.5t22.5 111.5zM720 333
q0 -72 -27.5 -135t-74.5 -110t-110 -74t-135 -27t-135 27t-110 74t-74 110t-27 135t27 135t74 110t110 74.5t135 27.5t135 -27t110.5 -74.5t74.5 -110.5t27 -135z" />
    <glyph glyph-name="ordfeminine" unicode="&#xaa;" horiz-adv-x="367" 
d="M235 534q0 29 -18.5 46.5t-46.5 17.5t-45.5 -19t-17.5 -46t18.5 -45.5t45.5 -18.5q29 0 46.5 18.5t17.5 46.5zM30 297v33h282v-33h-282zM240 400v23q-15 -20 -36 -26t-44 -6q-32 0 -57 11t-43 30t-27.5 45t-9.5 57q0 30 10 56t28 45t43.5 30t56.5 11q22 0 43.5 -6.5
t35.5 -25.5v23h79v-267h-79z" />
    <glyph glyph-name="guillemotleft" unicode="&#xab;" horiz-adv-x="368" 
d="M33 201v115l116 118v-133l-46 -41l46 -42v-132zM197 201v115l116 118v-133l-47 -41l47 -42v-132z" />
    <glyph glyph-name="logicalnot" unicode="&#xac;" 
d="M340 0v153h-307v114h434v-267h-127z" />
    <glyph glyph-name="registered" unicode="&#xae;" horiz-adv-x="513" 
d="M289 586q0 17 -11.5 22.5t-25.5 5.5h-20v-56h20q14 0 25.5 6t11.5 22zM284 447l-50 67v-67h-62v220h75q20 0 38.5 -3.5t32.5 -12t22 -23.5t8 -38q0 -25 -14 -45t-39 -25l62 -73h-73zM429 557q0 36 -13.5 67t-37 54.5t-54.5 37t-67 13.5t-67.5 -13.5t-55 -36.5t-37 -54.5
t-13.5 -67.5t13.5 -67.5t37 -55t55 -37t67.5 -13.5t67.5 13.5t54.5 37t36.5 55t13.5 67.5zM469 557q0 -44 -16.5 -82.5t-45.5 -67.5t-67.5 -45.5t-82.5 -16.5t-82.5 16.5t-67.5 45.5t-45.5 67.5t-16.5 82.5t16.5 82.5t45.5 67.5t67.5 45.5t82.5 16.5t82.5 -16.5t67.5 -45.5
t45.5 -67.5t16.5 -82.5z" />
    <glyph glyph-name="macron" unicode="&#xaf;" 
d="M90 593v87h320v-87h-320z" />
    <glyph glyph-name="macron" unicode="&#x2c9;" 
d="M90 593v87h320v-87h-320z" />
    <glyph glyph-name="degree" unicode="&#xb0;" 
d="M328 510q0 32 -23 54t-55 22t-55 -22t-23 -54q0 -16 6.5 -30t17 -24.5t24.5 -16.5t30 -6t30 6t24.5 16.5t17 24.5t6.5 30zM404 510q0 -32 -12.5 -59.5t-33.5 -48t-49 -32.5t-59 -12q-32 0 -60 12t-49 32.5t-33 48t-12 59.5q0 31 12.5 59t33.5 48t49 32t59 12t59 -12
t49 -32t33.5 -48t12.5 -59z" />
    <glyph glyph-name="plusminus" unicode="&#xb1;" 
d="M33 51v117h434v-117h-434zM313 356v-154h-126v154h-154v117h154v154h126v-154h154v-117h-154z" />
    <glyph glyph-name="twosuperior" unicode="&#xb2;" horiz-adv-x="374" 
d="M33 267v82q13 8 26 15.5t26 15.5q17 11 41 30t46 42t37.5 47.5t15.5 46.5q0 17 -11.5 26.5t-27.5 9.5q-29 0 -37.5 -19.5t-9.5 -43.5h-110q1 27 5 49t21 45q23 32 60 47t76 15q26 0 52.5 -7t48 -22t35 -37t13.5 -52q0 -33 -13.5 -61.5t-34 -53t-45 -46t-47.5 -40.5h143
v-89h-310z" />
    <glyph glyph-name="threesuperior" unicode="&#xb3;" horiz-adv-x="372" 
d="M345 386q0 -31 -15 -55t-38.5 -40t-52.5 -24.5t-56 -8.5q-19 0 -39.5 3.5t-39.5 11t-35.5 19.5t-27.5 29q-10 16 -14 32t-6 35h116q9 -37 48 -37q18 0 32 9t14 29q0 18 -11 26t-26.5 10.5t-32.5 2t-28 -0.5v78q12 0 25 0.5t24 4.5t18 12.5t7 25.5q0 13 -7 23t-21 10
q-32 0 -34 -34h-113q1 32 13.5 56t33 40t47 24t56.5 8q24 0 48.5 -7t45 -20.5t33 -34t12.5 -47.5q0 -29 -14 -50t-40 -35q33 -11 55.5 -34.5t22.5 -60.5z" />
    <glyph glyph-name="acute" unicode="&#xb4;" 
d="M207 543l-51 74l195 148l60 -91z" />
    <glyph glyph-name="mu" unicode="&#xb5;" 
d="M348 0v58q-16 -32 -38 -50t-60 -18q-35 0 -57 16t-39 45v-224h-126v653h126v-255q0 -26 4 -50.5t15 -43t30.5 -30t49.5 -11.5t48.5 12.5t29 32.5t14 44.5t3.5 49.5v251h126v-480h-126z" />
    <glyph glyph-name="mu" unicode="&#x3bc;" 
d="M348 0v58q-16 -32 -38 -50t-60 -18q-35 0 -57 16t-39 45v-224h-126v653h126v-255q0 -26 4 -50.5t15 -43t30.5 -30t49.5 -11.5t48.5 12.5t29 32.5t14 44.5t3.5 49.5v251h126v-480h-126z" />
    <glyph glyph-name="paragraph" unicode="&#xb6;" horiz-adv-x="662" 
d="M516 569v-661h-107v661h-84v-661h-108v413q-3 0 -5.5 -0.5t-5.5 -0.5q-38 0 -71 12t-57 34t-37.5 53.5t-13.5 70.5q0 52 19 86.5t50.5 54.5t73.5 28t87 8h332v-98h-73z" />
    <glyph glyph-name="periodcentered" unicode="&#xb7;" horiz-adv-x="173" 
d="M0 254v172h173v-172h-173z" />
    <glyph glyph-name="periodcentered" unicode="&#x2219;" horiz-adv-x="173" 
d="M0 254v172h173v-172h-173z" />
    <glyph glyph-name="cedilla" unicode="&#xb8;" 
d="M347 -123q0 -41 -29 -65.5t-68 -24.5q-38 0 -62 19t-29 58h60q5 -12 11 -18.5t20 -6.5q15 0 25 9.5t10 24.5q0 14 -8.5 22.5t-22.5 8.5q-9 0 -15 -3.5t-12 -10.5l-44 32l37 78h61l-26 -52l10 2t10 1q30 0 51 -22.5t21 -51.5z" />
    <glyph glyph-name="onesuperior" unicode="&#xb9;" horiz-adv-x="374" 
d="M145 267v311h-71v89h186v-400h-115z" />
    <glyph glyph-name="ordmasculine" unicode="&#xba;" horiz-adv-x="367" 
d="M245 533q0 26 -17.5 45.5t-44.5 19.5q-26 0 -43.5 -19t-17.5 -45q0 -27 17 -46t45 -19q27 0 44 19t17 45zM45 297v33h277v-33h-277zM328 533q0 -31 -11 -57t-30.5 -45t-45.5 -29.5t-57 -10.5t-57.5 10.5t-46 29t-31 44.5t-11.5 57t11 57.5t30.5 45.5t46 29.5t57.5 10.5
t57.5 -10.5t46 -29.5t30.5 -45t11 -57z" />
    <glyph glyph-name="guillemotright" unicode="&#xbb;" horiz-adv-x="353" 
d="M40 86v133l46 41l-46 42v132l116 -118v-116zM203 86v133l47 41l-47 42v132l116 -118v-116z" />
    <glyph glyph-name="onequarter" unicode="&#xbc;" horiz-adv-x="901" 
d="M741 275l-89 -126h89v126zM145 267v311h-71v89h186v-400h-115zM356 0h-92l280 667h92zM840 70v-70h-110v70h-191v77l195 253h106v-247h48v-83h-48z" />
    <glyph glyph-name="onehalf" unicode="&#xbd;" horiz-adv-x="900" 
d="M145 267v311h-71v89h186v-400h-115zM356 0h-92l280 667h92zM559 0v82q13 8 26 15.5t26 15.5q17 11 41 30t46 42t37.5 47.5t15.5 46.5q0 17 -11.5 26.5t-27.5 9.5q-29 0 -37.5 -19.5t-9.5 -43.5h-110q1 26 5.5 49t20.5 45q23 32 60 47t76 15q26 0 52.5 -7t48 -22t35 -37
t13.5 -52q0 -33 -13 -61.5t-33.5 -53t-45.5 -46t-48 -40.5h143v-89h-310z" />
    <glyph glyph-name="threequarters" unicode="&#xbe;" horiz-adv-x="899" 
d="M739 275l-88 -126h88v126zM345 386q0 -31 -15 -55t-38.5 -40t-52.5 -24.5t-56 -8.5q-19 0 -39.5 3.5t-39.5 11t-35.5 19.5t-27.5 29q-10 16 -14 32t-6 35h116q9 -37 48 -37q18 0 32 9t14 29q0 18 -11 26t-26.5 10.5t-32.5 2t-28 -0.5v78q12 0 25 0.5t24 4.5t18 12.5
t7 25.5q0 13 -7 23t-21 10q-32 0 -34 -34h-113q1 32 13.5 56t33 40t47 24t56.5 8q24 0 48.5 -7t45 -20.5t33 -34t12.5 -47.5q0 -29 -14 -50t-40 -35q33 -11 55.5 -34.5t22.5 -60.5zM354 0h-91l280 667h92zM838 70v-70h-110v70h-190v77l194 253h106v-247h48v-83h-48z" />
    <glyph glyph-name="questiondown" unicode="&#xbf;" horiz-adv-x="496" 
d="M482 44q0 -51 -18.5 -92t-50.5 -70.5t-75 -45.5t-92 -16q-41 0 -80 13.5t-69 38t-48.5 60t-18.5 79.5q0 37 12 65t30 51t39.5 42t40.5 37.5t32.5 38t16.5 43.5h155q0 -32 -11.5 -57.5t-28.5 -46.5t-36.5 -40t-36.5 -37t-28.5 -36.5t-11.5 -40.5q0 -26 12.5 -41t39.5 -15
q20 0 32 7.5t18.5 19.5t9 27.5t2.5 32.5h165v-17zM201 347v153h155v-153h-155z" />
    <glyph glyph-name="Agrave" unicode="&#xc0;" horiz-adv-x="660" 
d="M332 460l-70 -228h139zM479 0l-32 97h-232l-35 -97h-183l267 667h135l265 -667h-185zM431 710l-246 108l50 114l241 -130z" />
    <glyph glyph-name="Aacute" unicode="&#xc1;" horiz-adv-x="660" 
d="M332 460l-70 -228h139zM479 0l-32 97h-232l-35 -97h-183l267 667h135l265 -667h-185zM229 710l-44 92l240 130l51 -114z" />
    <glyph glyph-name="Acircumflex" unicode="&#xc2;" horiz-adv-x="660" 
d="M332 460l-70 -228h139zM479 0l-32 97h-232l-35 -97h-183l267 667h135l265 -667h-185zM376 733l-46 64l-44 -64h-159l131 150h148l128 -150h-158z" />
    <glyph glyph-name="Atilde" unicode="&#xc3;" horiz-adv-x="660" 
d="M332 460l-70 -228h139zM479 0l-32 97h-232l-35 -97h-183l267 667h135l265 -667h-185zM536 786q-26 -17 -58.5 -29t-63.5 -12q-19 0 -37 3.5t-36 8t-36.5 8t-36.5 3.5q-20 0 -38 -7t-36 -16l-70 89q27 18 57.5 29t62.5 11q38 0 74 -10.5t74 -10.5q23 0 41 5t39 16z" />
    <glyph glyph-name="Adieresis" unicode="&#xc4;" horiz-adv-x="660" 
d="M332 460l-70 -228h139zM479 0l-32 97h-232l-35 -97h-183l267 667h135l265 -667h-185zM143 733v150h157v-150h-157zM360 733v150h157v-150h-157z" />
    <glyph glyph-name="Aring" unicode="&#xc5;" horiz-adv-x="660" 
d="M332 460l-70 -228h139zM372 828q0 17 -12 30t-30 13t-29.5 -13t-11.5 -30t12 -30t29 -13q18 0 30 13t12 30zM479 0l-32 97h-232l-35 -97h-183l267 667h135l265 -667h-185zM446 828q0 -24 -9.5 -44.5t-25 -36.5t-36.5 -25t-45 -9t-44.5 9t-36.5 25t-25 36.5t-9 44.5t9 45
t25 36t36.5 24t44.5 9t45 -9t36.5 -24t25 -36t9.5 -45z" />
    <glyph glyph-name="AE" unicode="&#xc6;" horiz-adv-x="858" 
d="M446 425l-125 -182h125v182zM446 0v111h-194l-72 -111h-207l464 667h380v-150h-208v-103h201v-150h-201v-114h208v-150h-371z" />
    <glyph glyph-name="Ccedilla" unicode="&#xc7;" horiz-adv-x="736" 
d="M717 249q-14 -56 -43 -103.5t-70 -83t-93 -55.5t-110 -20l-18 -34q5 1 9.5 1.5t9.5 0.5q34 0 56 -22t22 -56q0 -48 -32 -77t-78 -29q-44 0 -70 23.5t-31 67.5h70q10 -25 36 -25q14 0 23.5 9.5t9.5 23.5t-10 23.5t-24 9.5q-17 0 -29 -14l-51 31l36 70h-3
q-65 9 -119.5 39.5t-94 77t-62 105t-22.5 123.5q0 73 27 136t74.5 109.5t111 73t136.5 26.5q93 0 169.5 -41.5t126.5 -119.5q19 -29 28.5 -50.5t14.5 -55.5h-178q-20 52 -62.5 84.5t-99.5 32.5q-41 0 -73.5 -16t-56 -43t-36 -62t-12.5 -74t12.5 -74.5t36 -63t56.5 -44
t74 -16.5q57 0 97 31t64 81h178z" />
    <glyph glyph-name="Egrave" unicode="&#xc8;" horiz-adv-x="469" 
d="M57 0v667h370v-150h-207v-103h201v-150h-201v-114h207v-150h-370zM343 710l-246 108l50 114l240 -130z" />
    <glyph glyph-name="Eacute" unicode="&#xc9;" horiz-adv-x="469" 
d="M57 0v667h370v-150h-207v-103h201v-150h-201v-114h207v-150h-370zM141 710l-44 92l240 130l50 -114z" />
    <glyph glyph-name="Ecircumflex" unicode="&#xca;" horiz-adv-x="469" 
d="M57 0v667h370v-150h-207v-103h201v-150h-201v-114h207v-150h-370zM284 733l-42 58l-41 -58h-142l133 150h104l129 -150h-141z" />
    <glyph glyph-name="Edieresis" unicode="&#xcb;" horiz-adv-x="469" 
d="M57 0v667h370v-150h-207v-103h201v-150h-201v-114h207v-150h-370zM55 733v150h157v-150h-157zM272 733v150h157v-150h-157z" />
    <glyph glyph-name="Igrave" unicode="&#xcc;" horiz-adv-x="283" 
d="M57 0v667h170v-667h-170zM243 710l-247 108l51 114l240 -130z" />
    <glyph glyph-name="Iacute" unicode="&#xcd;" horiz-adv-x="283" 
d="M57 0v667h170v-667h-170zM41 710l-45 92l240 130l51 -114z" />
    <glyph glyph-name="Icircumflex" unicode="&#xce;" horiz-adv-x="283" 
d="M57 0v667h170v-667h-170zM182 733l-40 77l-39 -77h-110l96 150h108l93 -150h-108z" />
    <glyph glyph-name="Idieresis" unicode="&#xcf;" horiz-adv-x="283" 
d="M57 0v667h170v-667h-170zM5 733v150h111v-150h-111zM167 733v150h111v-150h-111z" />
    <glyph glyph-name="Eth" unicode="&#xd0;" horiz-adv-x="662" 
d="M464 331q0 40 -9.5 74t-29.5 59t-50.5 39t-73.5 14h-74v-110h123v-120h-123v-137h73q85 0 124.5 50t39.5 131zM634 340q0 -72 -21 -134.5t-61 -108t-98.5 -71.5t-134.5 -26h-262v287h-57v120h57v260h224q45 0 90 -4.5t87 -24.5q89 -42 132.5 -122t43.5 -176z" />
    <glyph glyph-name="Ntilde" unicode="&#xd1;" horiz-adv-x="676" 
d="M471 0l-258 405l7 -405h-163v667h146l260 -420l-7 420h163v-667h-148zM544 786q-26 -17 -58 -29t-64 -12q-19 0 -37 3.5t-36 8t-36.5 8t-36.5 3.5q-21 0 -38 -7t-36 -16l-70 89q26 18 56.5 29t62.5 11q19 0 37.5 -3.5l37 -7l37 -7t37.5 -3.5q23 0 41 5t39 16z" />
    <glyph glyph-name="Ograve" unicode="&#xd2;" horiz-adv-x="761" 
d="M563 332q0 39 -13 75t-37 63.5t-57.5 43.5t-74.5 16t-74.5 -15.5t-57.5 -42.5t-37 -62.5t-13 -74.5q0 -40 13 -76t37 -63t58 -43t76 -16q40 0 73 16t57 43t37 62t13 74zM733 333q0 -74 -28 -137.5t-76 -110t-112.5 -72.5t-137.5 -26t-137 26.5t-111 72.5t-74.5 109
t-27.5 137t27 138t74 110.5t111 73t138 26.5q73 0 137.5 -26.5t112.5 -73t76 -110t28 -137.5zM482 710l-247 108l51 114l240 -130z" />
    <glyph glyph-name="Oacute" unicode="&#xd3;" horiz-adv-x="761" 
d="M563 332q0 39 -13 75t-37 63.5t-57.5 43.5t-74.5 16t-74.5 -15.5t-57.5 -42.5t-37 -62.5t-13 -74.5q0 -40 13 -76t37 -63t58 -43t76 -16q40 0 73 16t57 43t37 62t13 74zM733 333q0 -74 -28 -137.5t-76 -110t-112.5 -72.5t-137.5 -26t-137 26.5t-111 72.5t-74.5 109
t-27.5 137t27 138t74 110.5t111 73t138 26.5q73 0 137.5 -26.5t112.5 -73t76 -110t28 -137.5zM280 710l-45 92l240 130l51 -114z" />
    <glyph glyph-name="Ocircumflex" unicode="&#xd4;" horiz-adv-x="761" 
d="M563 332q0 39 -13 75t-37 63.5t-57.5 43.5t-74.5 16t-74.5 -15.5t-57.5 -42.5t-37 -62.5t-13 -74.5q0 -40 13 -76t37 -63t58 -43t76 -16q40 0 73 16t57 43t37 62t13 74zM733 333q0 -74 -28 -137.5t-76 -110t-112.5 -72.5t-137.5 -26t-137 26.5t-111 72.5t-74.5 109
t-27.5 137t27 138t74 110.5t111 73t138 26.5q73 0 137.5 -26.5t112.5 -73t76 -110t28 -137.5zM426 733l-45 64l-45 -64h-159l132 150h148l127 -150h-158z" />
    <glyph glyph-name="Otilde" unicode="&#xd5;" horiz-adv-x="761" 
d="M563 332q0 39 -13 75t-37 63.5t-57.5 43.5t-74.5 16t-74.5 -15.5t-57.5 -42.5t-37 -62.5t-13 -74.5q0 -40 13 -76t37 -63t58 -43t76 -16q40 0 73 16t57 43t37 62t13 74zM733 333q0 -74 -28 -137.5t-76 -110t-112.5 -72.5t-137.5 -26t-137 26.5t-111 72.5t-74.5 109
t-27.5 137t27 138t74 110.5t111 73t138 26.5q73 0 137.5 -26.5t112.5 -73t76 -110t28 -137.5zM586 786q-26 -17 -58.5 -29t-63.5 -12q-18 0 -36.5 3.5t-36.5 8t-36.5 8t-36.5 3.5q-20 0 -38 -7t-36 -16l-69 89q27 18 57 29t62 11q38 0 74 -10.5t74 -10.5q24 0 41.5 5
t38.5 16z" />
    <glyph glyph-name="Odieresis" unicode="&#xd6;" horiz-adv-x="761" 
d="M563 332q0 39 -13 75t-37 63.5t-57.5 43.5t-74.5 16t-74.5 -15.5t-57.5 -42.5t-37 -62.5t-13 -74.5q0 -40 13 -76t37 -63t58 -43t76 -16q40 0 73 16t57 43t37 62t13 74zM733 333q0 -74 -28 -137.5t-76 -110t-112.5 -72.5t-137.5 -26t-137 26.5t-111 72.5t-74.5 109
t-27.5 137t27 138t74 110.5t111 73t138 26.5q73 0 137.5 -26.5t112.5 -73t76 -110t28 -137.5zM194 733v150h157v-150h-157zM411 733v150h156v-150h-156z" />
    <glyph glyph-name="multiply" unicode="&#xd7;" horiz-adv-x="550" 
d="M413 117l-138 138l-138 -138l-78 79l138 137l-138 138l78 78l138 -137l138 137l78 -78l-138 -138l138 -137z" />
    <glyph glyph-name="Oslash" unicode="&#xd8;" horiz-adv-x="761" 
d="M437 521q-16 6 -27.5 7.5t-28.5 1.5q-41 0 -74.5 -15.5t-57.5 -42.5t-37 -62t-13 -74q0 -26 6 -53t18 -50zM563 332q0 27 -7 53t-19 50l-214 -289q17 -6 29 -7.5t30 -1.5q40 0 73.5 16t57.5 42.5t37 62t13 74.5zM733 333q0 -74 -28 -137.5t-76 -110t-112.5 -72.5
t-137.5 -26q-23 0 -41 1.5t-35 4.5t-34 9t-38 15q-1 0 -3 2l-56 -76l-106 78l55 75q-1 1 -1 1.5t-1 1.5q-23 27 -40 53.5t-28 54.5t-16.5 59t-5.5 67q0 75 27 138.5t74.5 110t112 72.5t138.5 26q24 0 42.5 -1t35 -4.5t33.5 -10t39 -16.5l59 78l106 -76l-58 -78q1 -1 1 -1.5
t1 -1.5q46 -54 69.5 -108.5t23.5 -127.5z" />
    <glyph glyph-name="Ugrave" unicode="&#xd9;" horiz-adv-x="612" 
d="M562 263q0 -30 -2.5 -57t-9.5 -52.5t-20 -49t-34 -45.5q-38 -39 -86.5 -55.5t-102.5 -16.5t-103 16.5t-87 54.5q-23 23 -36.5 46t-20 48t-8.5 52.5t-2 58.5v404h170v-404q0 -24 3 -46.5t12 -40t26 -28.5t46 -11q30 0 47 10.5t25.5 28t10.5 40.5t2 47v404h170v-404z
M407 710l-246 108l50 114l240 -130z" />
    <glyph glyph-name="Uacute" unicode="&#xda;" horiz-adv-x="612" 
d="M562 263q0 -30 -2.5 -57t-9.5 -52.5t-20 -49t-34 -45.5q-38 -39 -86.5 -55.5t-102.5 -16.5t-103 16.5t-87 54.5q-23 23 -36.5 46t-20 48t-8.5 52.5t-2 58.5v404h170v-404q0 -24 3 -46.5t12 -40t26 -28.5t46 -11q30 0 47 10.5t25.5 28t10.5 40.5t2 47v404h170v-404z
M205 710l-44 92l240 130l50 -114z" />
    <glyph glyph-name="Ucircumflex" unicode="&#xdb;" horiz-adv-x="612" 
d="M562 263q0 -30 -2.5 -57t-9.5 -52.5t-20 -49t-34 -45.5q-38 -39 -86.5 -55.5t-102.5 -16.5t-103 16.5t-87 54.5q-23 23 -36.5 46t-20 48t-8.5 52.5t-2 58.5v404h170v-404q0 -24 3 -46.5t12 -40t26 -28.5t46 -11q30 0 47 10.5t25.5 28t10.5 40.5t2 47v404h170v-404z
M352 733l-46 64l-44 -64h-160l132 150h148l128 -150h-158z" />
    <glyph glyph-name="Udieresis" unicode="&#xdc;" horiz-adv-x="612" 
d="M562 263q0 -30 -2.5 -57t-9.5 -52.5t-20 -49t-34 -45.5q-38 -39 -86.5 -55.5t-102.5 -16.5t-103 16.5t-87 54.5q-23 23 -36.5 46t-20 48t-8.5 52.5t-2 58.5v404h170v-404q0 -24 3 -46.5t12 -40t26 -28.5t46 -11q30 0 47 10.5t25.5 28t10.5 40.5t2 47v404h170v-404z
M119 733v150h157v-150h-157zM336 733v150h157v-150h-157z" />
    <glyph glyph-name="Yacute" unicode="&#xdd;" horiz-adv-x="547" 
d="M359 243v-243h-170v243l-199 424h185l99 -268l100 268h183zM219 710l-44 92l240 130l51 -114z" />
    <glyph glyph-name="Thorn" unicode="&#xde;" horiz-adv-x="578" 
d="M388 353q0 17 -7.5 33.5t-21.5 27.5q-15 11 -37 13.5t-40 2.5h-62v-157h69q22 0 39 3t34 18q26 24 26 59zM558 354q0 -48 -17.5 -94t-52.5 -79q-27 -25 -59.5 -37.5t-67.5 -17t-71 -4t-70 0.5v-123h-163v667h163v-87q31 0 66 0.5t69.5 -3.5t66.5 -14.5t58 -31.5
q39 -32 58.5 -79t19.5 -98z" />
    <glyph glyph-name="germandbls" unicode="&#xdf;" horiz-adv-x="617" 
d="M440 205q0 22 -8.5 37.5t-22.5 26t-32 15.5t-38 5h-81v112h30q33 0 54.5 17.5t21.5 52.5q0 34 -23 53.5t-55 19.5q-26 0 -43 -10t-27.5 -26t-14.5 -37.5t-4 -43.5v-239h83q9 -31 27 -48t51 -17q35 0 58.5 23.5t23.5 58.5zM590 205q0 -48 -19 -88.5t-51 -70t-74.5 -46.5
t-88.5 -17q-54 0 -89 18.5t-71 56.5v-58h-150v385q0 30 1 58t6.5 54t17 50.5t32.5 48.5q38 42 90 65t108 23q40 0 78 -13.5t68 -38t48 -59.5t18 -77q0 -40 -16 -67t-48 -50q30 -7 56 -23.5t44.5 -39.5t29 -51.5t10.5 -59.5z" />
    <glyph glyph-name="agrave" unicode="&#xe0;" horiz-adv-x="627" 
d="M427 251q0 27 -9.5 50t-26.5 40t-40 26.5t-50 9.5t-49.5 -10t-39 -27.5t-26 -40.5t-9.5 -49q0 -27 9.5 -50t26.5 -40t39.5 -27t49.5 -10q56 0 90.5 36.5t34.5 91.5zM436 0v54q-11 -22 -28 -35.5t-38 -21.5t-44 -11t-45 -3q-59 0 -106 20t-80 56t-50.5 85t-17.5 106
t18 106t52 85t81 56.5t106 20.5q46 0 87 -14t65 -57v53h141v-500h-141zM389 543l-204 131l59 91l196 -148z" />
    <glyph glyph-name="aacute" unicode="&#xe1;" horiz-adv-x="627" 
d="M427 251q0 27 -9.5 50t-26.5 40t-40 26.5t-50 9.5t-49.5 -10t-39 -27.5t-26 -40.5t-9.5 -49q0 -27 9.5 -50t26.5 -40t39.5 -27t49.5 -10q56 0 90.5 36.5t34.5 91.5zM436 0v54q-11 -22 -28 -35.5t-38 -21.5t-44 -11t-45 -3q-59 0 -106 20t-80 56t-50.5 85t-17.5 106
t18 106t52 85t81 56.5t106 20.5q46 0 87 -14t65 -57v53h141v-500h-141zM239 543l-51 74l195 148l59 -91z" />
    <glyph glyph-name="acircumflex" unicode="&#xe2;" horiz-adv-x="627" 
d="M427 251q0 27 -9.5 50t-26.5 40t-40 26.5t-50 9.5t-49.5 -10t-39 -27.5t-26 -40.5t-9.5 -49q0 -27 9.5 -50t26.5 -40t39.5 -27t49.5 -10q56 0 90.5 36.5t34.5 91.5zM436 0v54q-11 -22 -28 -35.5t-38 -21.5t-44 -11t-45 -3q-59 0 -106 20t-80 56t-50.5 85t-17.5 106
t18 106t52 85t81 56.5t106 20.5q46 0 87 -14t65 -57v53h141v-500h-141zM346 560l-41 58l-41 -58h-143l133 149h104l130 -149h-142z" />
    <glyph glyph-name="atilde" unicode="&#xe3;" horiz-adv-x="627" 
d="M427 251q0 27 -9.5 50t-26.5 40t-40 26.5t-50 9.5t-49.5 -10t-39 -27.5t-26 -40.5t-9.5 -49q0 -27 9.5 -50t26.5 -40t39.5 -27t49.5 -10q56 0 90.5 36.5t34.5 91.5zM436 0v54q-11 -22 -28 -35.5t-38 -21.5t-44 -11t-45 -3q-59 0 -106 20t-80 56t-50.5 85t-17.5 106
t18 106t52 85t81 56.5t106 20.5q46 0 87 -14t65 -57v53h141v-500h-141zM500 615q-25 -17 -53 -27.5t-58 -10.5q-34 0 -66.5 9.5t-66.5 9.5q-20 0 -37 -6t-34 -14l-58 80q24 14 50 24.5t55 10.5q35 0 68.5 -9t68.5 -9q23 0 38 4.5t36 13.5z" />
    <glyph glyph-name="adieresis" unicode="&#xe4;" horiz-adv-x="627" 
d="M427 251q0 27 -9.5 50t-26.5 40t-40 26.5t-50 9.5t-49.5 -10t-39 -27.5t-26 -40.5t-9.5 -49q0 -27 9.5 -50t26.5 -40t39.5 -27t49.5 -10q56 0 90.5 36.5t34.5 91.5zM436 0v54q-11 -22 -28 -35.5t-38 -21.5t-44 -11t-45 -3q-59 0 -106 20t-80 56t-50.5 85t-17.5 106
t18 106t52 85t81 56.5t106 20.5q46 0 87 -14t65 -57v53h141v-500h-141zM151 567v136h143v-136h-143zM351 567v136h143v-136h-143z" />
    <glyph glyph-name="aring" unicode="&#xe5;" horiz-adv-x="627" 
d="M427 251q0 27 -9.5 50t-26.5 40t-40 26.5t-50 9.5t-49.5 -10t-39 -27.5t-26 -40.5t-9.5 -49q0 -27 9.5 -50t26.5 -40t39.5 -27t49.5 -10q56 0 90.5 36.5t34.5 91.5zM355 662q0 18 -12.5 31t-30.5 13t-30.5 -13.5t-12.5 -30.5q0 -18 12.5 -31.5t30.5 -13.5q19 0 31 13.5
t12 31.5zM436 0v54q-11 -22 -28 -35.5t-38 -21.5t-44 -11t-45 -3q-59 0 -106 20t-80 56t-50.5 85t-17.5 106t18 106t52 85t81 56.5t106 20.5q46 0 87 -14t65 -57v53h141v-500h-141zM425 662q0 -23 -9 -43.5t-24.5 -35.5t-36 -24t-43.5 -9t-43.5 9t-35.5 24t-24 35.5t-9 43.5
t9 43.5t24 35.5t35.5 23.5t43.5 8.5t43.5 -8.5t36 -23.5t24.5 -35.5t9 -43.5z" />
    <glyph glyph-name="ae" unicode="&#xe6;" horiz-adv-x="979" 
d="M427 250q0 57 -35.5 92t-92.5 35q-27 0 -49 -10t-38.5 -27.5t-25.5 -40.5t-9 -49q0 -27 10 -50t27 -40t40 -27t50 -10t49.5 10t39 27t25.5 40t9 50zM804 303q-24 87 -112 87q-41 0 -74.5 -22.5t-41.5 -64.5h228zM952 241q0 -11 -0.5 -19t-3.5 -19h-375q6 -45 38 -69
t76 -24q33 0 54 12t43 36h151q-15 -35 -33 -62.5t-47 -52.5q-33 -29 -73 -44.5t-84 -15.5q-45 0 -78 16.5t-57 54.5v-54h-136v54q-9 -22 -25.5 -35.5t-36.5 -21.5t-42 -11t-43 -3q-59 0 -106 20.5t-79.5 56t-50 84.5t-17.5 106t18.5 106t52 84.5t81 56t105.5 20.5
q47 0 82.5 -14t60.5 -56v53h136v-53q24 38 57 54t78 16q57 0 104 -22.5t80 -61t51.5 -88.5t18.5 -104z" />
    <glyph glyph-name="ccedilla" unicode="&#xe7;" horiz-adv-x="574" 
d="M557 190q-10 -43 -32.5 -79.5t-54.5 -64t-72 -43.5t-84 -19l-18 -36l10 2t10 1q30 0 51 -22.5t21 -51.5q0 -41 -29 -65.5t-68 -24.5q-38 0 -62 19.5t-29 57.5h61q4 -12 10.5 -18.5t19.5 -6.5q15 0 25 9t10 25q0 14 -8.5 22.5t-22.5 8.5q-9 0 -15 -3.5t-12 -10.5l-44 32
l31 64q-50 7 -91.5 30.5t-72 59t-47.5 80.5t-17 95q0 56 20.5 104.5t56 84.5t83.5 56.5t104 20.5q48 0 91.5 -15t79 -42.5t60 -66t34.5 -86.5h-151q-14 33 -43.5 51.5t-65.5 18.5q-27 0 -49 -10.5t-37.5 -28t-24 -41t-8.5 -49.5t8.5 -49t24 -40t37.5 -26.5t49 -9.5
q38 0 64 17.5t46 49.5h151z" />
    <glyph glyph-name="egrave" unicode="&#xe8;" horiz-adv-x="578" 
d="M401 303q-8 42 -40 64.5t-73 22.5q-42 0 -72.5 -22.5t-39.5 -64.5h225zM551 244q0 -22 -4 -41h-375q5 -44 36 -68.5t74 -24.5q30 0 50.5 9t41.5 30l7 7h152q-16 -38 -40 -69.5t-55 -54.5t-68.5 -36t-79.5 -13q-55 0 -103 21t-83.5 57t-56 84.5t-20.5 103.5q0 54 20 103
t54.5 85.5t82 58t103.5 21.5q58 0 106.5 -21.5t83.5 -58.5t54.5 -86.5t19.5 -106.5zM372 543l-204 131l60 91l195 -148z" />
    <glyph glyph-name="eacute" unicode="&#xe9;" horiz-adv-x="578" 
d="M401 303q-8 42 -40 64.5t-73 22.5q-42 0 -72.5 -22.5t-39.5 -64.5h225zM551 244q0 -22 -4 -41h-375q5 -44 36 -68.5t74 -24.5q30 0 50.5 9t41.5 30l7 7h152q-16 -38 -40 -69.5t-55 -54.5t-68.5 -36t-79.5 -13q-55 0 -103 21t-83.5 57t-56 84.5t-20.5 103.5q0 54 20 103
t54.5 85.5t82 58t103.5 21.5q58 0 106.5 -21.5t83.5 -58.5t54.5 -86.5t19.5 -106.5zM206 543l-51 74l195 148l60 -91z" />
    <glyph glyph-name="ecircumflex" unicode="&#xea;" horiz-adv-x="578" 
d="M401 303q-8 42 -40 64.5t-73 22.5q-42 0 -72.5 -22.5t-39.5 -64.5h225zM551 244q0 -22 -4 -41h-375q5 -44 36 -68.5t74 -24.5q30 0 50.5 9t41.5 30l7 7h152q-16 -38 -40 -69.5t-55 -54.5t-68.5 -36t-79.5 -13q-55 0 -103 21t-83.5 57t-56 84.5t-20.5 103.5q0 54 20 103
t54.5 85.5t82 58t103.5 21.5q58 0 106.5 -21.5t83.5 -58.5t54.5 -86.5t19.5 -106.5zM331 560l-42 58l-41 -58h-142l133 149h104l129 -149h-141z" />
    <glyph glyph-name="edieresis" unicode="&#xeb;" horiz-adv-x="578" 
d="M401 303q-8 42 -40 64.5t-73 22.5q-42 0 -72.5 -22.5t-39.5 -64.5h225zM551 244q0 -22 -4 -41h-375q5 -44 36 -68.5t74 -24.5q30 0 50.5 9t41.5 30l7 7h152q-16 -38 -40 -69.5t-55 -54.5t-68.5 -36t-79.5 -13q-55 0 -103 21t-83.5 57t-56 84.5t-20.5 103.5q0 54 20 103
t54.5 85.5t82 58t103.5 21.5q58 0 106.5 -21.5t83.5 -58.5t54.5 -86.5t19.5 -106.5zM121 567v136h144v-136h-144zM321 567v136h144v-136h-144z" />
    <glyph glyph-name="igrave" unicode="&#xec;" horiz-adv-x="250" 
d="M50 0v500h150v-500h-150zM201 543l-203 131l59 91l195 -148z" />
    <glyph glyph-name="iacute" unicode="&#xed;" horiz-adv-x="250" 
d="M50 0v500h150v-500h-150zM49 543l-51 74l195 148l59 -91z" />
    <glyph glyph-name="icircumflex" unicode="&#xee;" horiz-adv-x="250" 
d="M50 0v500h150v-500h-150zM161 560l-36 71l-35 -71h-92l92 149h72l90 -149h-91z" />
    <glyph glyph-name="idieresis" unicode="&#xef;" horiz-adv-x="250" 
d="M50 0v500h150v-500h-150zM1 573v123h100v-123h-100zM149 573v123h100v-123h-100z" />
    <glyph glyph-name="eth" unicode="&#xf0;" horiz-adv-x="595" 
d="M418 243q0 27 -8.5 51t-24 42t-38.5 28t-51 10q-56 0 -87.5 -34.5t-31.5 -88.5q0 -57 33 -92.5t90 -35.5q25 0 46.5 9.5t37.5 26t25 38t9 46.5zM568 246q0 -57 -23.5 -110.5t-67.5 -90.5q-38 -33 -84 -47t-97 -14q-58 0 -107 19.5t-85 54.5t-56.5 83.5t-20.5 106.5
q0 55 18 101.5t51 80.5t79 53t101 19q27 0 45 -4.5t43 -15.5q-9 20 -18.5 39.5t-20.5 38.5l-63 -20l-30 59l63 20q-18 31 -40 58l95 26q11 -12 21.5 -24.5t19.5 -26.5l71 22l37 -59l-68 -21q24 -38 48.5 -79.5t44 -86t32 -90.5t12.5 -92z" />
    <glyph glyph-name="ntilde" unicode="&#xf1;" horiz-adv-x="560" 
d="M363 0v273q0 21 -3 40t-11.5 33t-24 22.5t-39.5 8.5q-48 0 -66.5 -27t-18.5 -71v-279h-150v500h142v-53q26 38 58.5 54t78.5 16q37 0 72.5 -12.5t61.5 -38.5q34 -34 42 -70.5t8 -82.5v-313h-150zM467 615q-25 -17 -53 -27.5t-59 -10.5q-34 0 -66 9.5t-66 9.5
q-20 0 -37 -6t-35 -14l-58 80q25 14 51 24.5t55 10.5q35 0 68 -9t68 -9q23 0 38 4.5t36 13.5z" />
    <glyph glyph-name="ograve" unicode="&#xf2;" horiz-adv-x="595" 
d="M417 250q0 25 -9 48t-24.5 40.5t-37.5 28t-48 10.5t-48.5 -10t-38.5 -27.5t-25 -40.5t-9 -48q0 -26 9 -49.5t24.5 -41t38 -27.5t49.5 -10t48.5 10t37.5 27.5t24.5 40.5t8.5 49zM567 250q0 -58 -20.5 -107t-56.5 -84.5t-85.5 -55.5t-106.5 -20t-106.5 19.5t-86 54.5
t-57.5 83.5t-21 106.5t20 107.5t56 85.5t85.5 56.5t108.5 20.5q57 0 106.5 -20t86 -55.5t57 -84.5t20.5 -107zM380 543l-203 131l59 91l195 -148z" />
    <glyph glyph-name="oacute" unicode="&#xf3;" horiz-adv-x="595" 
d="M417 250q0 25 -9 48t-24.5 40.5t-37.5 28t-48 10.5t-48.5 -10t-38.5 -27.5t-25 -40.5t-9 -48q0 -26 9 -49.5t24.5 -41t38 -27.5t49.5 -10t48.5 10t37.5 27.5t24.5 40.5t8.5 49zM567 250q0 -58 -20.5 -107t-56.5 -84.5t-85.5 -55.5t-106.5 -20t-106.5 19.5t-86 54.5
t-57.5 83.5t-21 106.5t20 107.5t56 85.5t85.5 56.5t108.5 20.5q57 0 106.5 -20t86 -55.5t57 -84.5t20.5 -107zM214 543l-51 74l196 148l59 -91z" />
    <glyph glyph-name="ocircumflex" unicode="&#xf4;" horiz-adv-x="595" 
d="M417 250q0 25 -9 48t-24.5 40.5t-37.5 28t-48 10.5t-48.5 -10t-38.5 -27.5t-25 -40.5t-9 -48q0 -26 9 -49.5t24.5 -41t38 -27.5t49.5 -10t48.5 10t37.5 27.5t24.5 40.5t8.5 49zM567 250q0 -58 -20.5 -107t-56.5 -84.5t-85.5 -55.5t-106.5 -20t-106.5 19.5t-86 54.5
t-57.5 83.5t-21 106.5t20 107.5t56 85.5t85.5 56.5t108.5 20.5q57 0 106.5 -20t86 -55.5t57 -84.5t20.5 -107zM339 560l-41 58l-41 -58h-143l133 149h104l130 -149h-142z" />
    <glyph glyph-name="otilde" unicode="&#xf5;" horiz-adv-x="595" 
d="M417 250q0 25 -9 48t-24.5 40.5t-37.5 28t-48 10.5t-48.5 -10t-38.5 -27.5t-25 -40.5t-9 -48q0 -26 9 -49.5t24.5 -41t38 -27.5t49.5 -10t48.5 10t37.5 27.5t24.5 40.5t8.5 49zM567 250q0 -58 -20.5 -107t-56.5 -84.5t-85.5 -55.5t-106.5 -20t-106.5 19.5t-86 54.5
t-57.5 83.5t-21 106.5t20 107.5t56 85.5t85.5 56.5t108.5 20.5q57 0 106.5 -20t86 -55.5t57 -84.5t20.5 -107zM484 615q-25 -17 -53 -27.5t-58 -10.5q-34 0 -66.5 9.5t-66.5 9.5q-20 0 -37 -6t-34 -14l-58 80q24 14 50 24.5t55 10.5q35 0 68.5 -9t68.5 -9q23 0 38 4.5
t35 13.5z" />
    <glyph glyph-name="odieresis" unicode="&#xf6;" horiz-adv-x="595" 
d="M417 250q0 25 -9 48t-24.5 40.5t-37.5 28t-48 10.5t-48.5 -10t-38.5 -27.5t-25 -40.5t-9 -48q0 -26 9 -49.5t24.5 -41t38 -27.5t49.5 -10t48.5 10t37.5 27.5t24.5 40.5t8.5 49zM567 250q0 -58 -20.5 -107t-56.5 -84.5t-85.5 -55.5t-106.5 -20t-106.5 19.5t-86 54.5
t-57.5 83.5t-21 106.5t20 107.5t56 85.5t85.5 56.5t108.5 20.5q57 0 106.5 -20t86 -55.5t57 -84.5t20.5 -107zM126 567v136h143v-136h-143zM326 567v136h143v-136h-143z" />
    <glyph glyph-name="divide" unicode="&#xf7;" 
d="M323 168q0 -30 -22 -51t-51 -21t-51 21t-22 51q0 31 21 52t52 21q30 0 51.5 -21.5t21.5 -51.5zM33 281v117h434v-117h-434zM323 510q0 -30 -21.5 -51.5t-51.5 -21.5t-51.5 21.5t-21.5 51.5t21.5 51.5t51.5 21.5t51.5 -21.5t21.5 -51.5z" />
    <glyph glyph-name="oslash" unicode="&#xf8;" horiz-adv-x="595" 
d="M323 374q-12 3 -25 3q-26 0 -48.5 -10.5t-38.5 -27.5t-25 -40.5t-9 -48.5q0 -17 2.5 -28t9.5 -27zM417 251q0 16 -2.5 27t-7.5 25l-132 -177q10 -3 22 -3q27 0 49 10t38 27.5t24.5 41t8.5 49.5zM567 249q0 -57 -20.5 -106t-57 -84.5t-85.5 -55.5t-106 -20q-17 0 -30 1
t-25.5 3.5t-25 6.5t-28.5 10l-58 -79l-95 72l55 74q-32 37 -48 83t-16 95q0 59 20.5 108t57 84.5t86.5 55.5t108 20q17 0 30 -1t25.5 -3.5t25 -6.5t28.5 -10l55 74l96 -69l-56 -75q64 -77 64 -177z" />
    <glyph glyph-name="ugrave" unicode="&#xf9;" horiz-adv-x="562" 
d="M370 0v53q-20 -41 -54.5 -55.5t-77.5 -14.5t-80 15t-66 48q-16 18 -25 35.5t-13.5 36.5t-5.5 39.5t-1 43.5v299h150v-279q0 -44 16 -71t64 -27q45 0 65 28t20 70v279h150v-500h-142zM364 543l-204 131l60 91l195 -148z" />
    <glyph glyph-name="uacute" unicode="&#xfa;" horiz-adv-x="562" 
d="M370 0v53q-20 -41 -54.5 -55.5t-77.5 -14.5t-80 15t-66 48q-16 18 -25 35.5t-13.5 36.5t-5.5 39.5t-1 43.5v299h150v-279q0 -44 16 -71t64 -27q45 0 65 28t20 70v279h150v-500h-142zM198 543l-51 74l195 148l60 -91z" />
    <glyph glyph-name="ucircumflex" unicode="&#xfb;" horiz-adv-x="562" 
d="M370 0v53q-20 -41 -54.5 -55.5t-77.5 -14.5t-80 15t-66 48q-16 18 -25 35.5t-13.5 36.5t-5.5 39.5t-1 43.5v299h150v-279q0 -44 16 -71t64 -27q45 0 65 28t20 70v279h150v-500h-142zM323 560l-42 58l-41 -58h-142l133 149h104l129 -149h-141z" />
    <glyph glyph-name="udieresis" unicode="&#xfc;" horiz-adv-x="562" 
d="M370 0v53q-20 -41 -54.5 -55.5t-77.5 -14.5t-80 15t-66 48q-16 18 -25 35.5t-13.5 36.5t-5.5 39.5t-1 43.5v299h150v-279q0 -44 16 -71t64 -27q45 0 65 28t20 70v279h150v-500h-142zM108 567v136h143v-136h-143zM308 567v136h143v-136h-143z" />
    <glyph glyph-name="yacute" unicode="&#xfd;" horiz-adv-x="496" 
d="M255 -167h-158l79 192l-186 475h159l101 -290l97 290h159zM212 543l-51 74l195 148l59 -91z" />
    <glyph glyph-name="thorn" unicode="&#xfe;" horiz-adv-x="621" 
d="M444 253q0 26 -10 49t-27 39.5t-40 26t-49 9.5t-49 -9.5t-40 -26t-27 -39t-10 -49.5t9.5 -51t26 -41.5t39.5 -27.5t51 -10t51.5 10t40 27.5t25.5 41.5t9 51zM594 243q0 -53 -18 -100.5t-50.5 -83t-77.5 -56t-100 -20.5q-45 0 -81.5 15t-66.5 48v-213h-150v834h150v-210
q35 33 68.5 46.5t81.5 13.5q58 0 103.5 -22t77 -59.5t47.5 -87.5t16 -105z" />
    <glyph glyph-name="ydieresis" unicode="&#xff;" horiz-adv-x="496" 
d="M255 -167h-158l79 192l-186 475h159l101 -290l97 290h159zM76 567v136h144v-136h-144zM276 567v136h144v-136h-144z" />
    <glyph glyph-name="dotlessi" unicode="&#x131;" horiz-adv-x="250" 
d="M50 0v500h150v-500h-150z" />
    <glyph glyph-name="Lslash" unicode="&#x141;" horiz-adv-x="437" 
d="M57 0v216l-57 -41v142l57 41v309h170v-224l124 85v-142l-124 -85v-151h197v-150h-367z" />
    <glyph glyph-name="lslash" unicode="&#x142;" horiz-adv-x="250" 
d="M200 323v-323h-150v254l-50 -38v104l50 38v309h150v-240l50 38v-104z" />
    <glyph glyph-name="OE" unicode="&#x152;" horiz-adv-x="971" 
d="M558 336q0 40 -12.5 75t-36 61.5t-56.5 42t-74 15.5q-42 0 -75.5 -16t-56.5 -43t-35.5 -63t-12.5 -76q0 -38 13 -73.5t36 -62.5t56 -43t73 -16q42 0 75.5 16t57 43.5t36 63.5t12.5 76zM559 0v43q-43 -30 -87.5 -43t-96.5 -13q-72 0 -135 27t-110 73.5t-74 109.5t-27 135
q0 74 27 138t74 110.5t110.5 73t137.5 26.5q54 0 95.5 -12.5t85.5 -44.5v44h371v-150h-207v-103h200v-150h-200v-114h207v-150h-371z" />
    <glyph glyph-name="oe" unicode="&#x153;" horiz-adv-x="966" 
d="M419 250q0 25 -9.5 48t-25.5 40.5t-38.5 28t-47.5 10.5q-26 0 -48 -10t-38.5 -27.5t-25.5 -40.5t-9 -48q0 -26 9 -49t25.5 -40.5t39 -28t48.5 -10.5t48 10.5t38 28t25 40.5t9 48zM789 303q-9 42 -40 64.5t-73 22.5q-41 0 -73 -22.5t-40 -64.5h226zM939 245q0 -19 -5 -42
h-375q5 -45 37 -69t76 -24q32 0 53.5 11.5t43.5 34.5h152q-15 -38 -40 -70t-56.5 -55t-69.5 -35.5t-80 -12.5q-60 0 -105.5 20.5t-82.5 69.5q-11 -13 -21 -24.5t-24 -21.5q-32 -23 -71.5 -33.5t-77.5 -10.5q-58 0 -106.5 20t-84 55.5t-55.5 84t-20 106.5q0 59 20 108.5
t55.5 85t85 55t108.5 19.5q57 0 106.5 -19t84.5 -67q15 21 37 37t47 27t52 16.5t52 5.5q57 0 105 -21.5t83.5 -59t55.5 -87t20 -104.5z" />
    <glyph glyph-name="Scaron" unicode="&#x160;" horiz-adv-x="516" 
d="M490 195q0 -53 -17.5 -92.5t-48.5 -65t-74 -38t-93 -12.5t-94 13t-77 39.5t-52.5 66t-19.5 93.5v21h171q0 -17 4 -33t12 -28.5t21.5 -20.5t32.5 -8q26 0 46 18t20 45q0 15 -6.5 26.5t-17 20.5t-23 15.5t-24.5 11.5q-20 8 -39 15.5t-38 15.5q-30 13 -56.5 30t-47 39.5
t-32 51t-11.5 63.5q0 47 20 84t53 62.5t75 39t85 13.5q51 0 99 -19t81 -58q26 -30 34.5 -61t10.5 -70h-169q-4 29 -16.5 47t-44.5 18q-22 0 -40 -14.5t-18 -37.5q0 -26 22 -43t54.5 -32t70.5 -31t70.5 -39.5t54.5 -58.5t22 -87zM337 733h-148l-128 150h158l46 -64l44 64h159
z" />
    <glyph glyph-name="scaron" unicode="&#x161;" horiz-adv-x="445" 
d="M422 151q0 -41 -19 -72.5t-49 -52.5t-67 -32t-73 -11q-41 0 -79 13t-68 41q-26 25 -37 50.5t-15 61.5h149q3 -24 19 -34.5t39 -10.5q17 0 33.5 10t16.5 29q0 12 -6.5 20t-14.5 13t-15.5 7.5t-8.5 4.5q-5 3 -11.5 4t-12.5 3l-38 10l-38 10q-47 13 -77 51t-30 87
q0 39 18.5 69.5t47.5 51.5t65 32t71 11q44 0 84 -16t68 -51q17 -22 24 -42.5t9 -47.5h-147q-2 20 -12.5 28.5t-30.5 8.5q-14 0 -30.5 -7t-16.5 -25q0 -20 18.5 -31t46.5 -19.5t61 -17.5t61 -26.5t46.5 -45.5t18.5 -74zM272 573h-104l-129 150h141l42 -58l41 58h142z" />
    <glyph glyph-name="Ydieresis" unicode="&#x178;" horiz-adv-x="547" 
d="M359 243v-243h-170v243l-199 424h185l99 -268l100 268h183zM87 733v150h157v-150h-157zM304 733v150h156v-150h-156z" />
    <glyph glyph-name="Zcaron" unicode="&#x17d;" horiz-adv-x="457" 
d="M17 0v112l230 405h-230v150h421v-138l-213 -379h213v-150h-421zM304 733h-148l-127 150h158l45 -64l45 64h159z" />
    <glyph glyph-name="zcaron" unicode="&#x17e;" horiz-adv-x="405" 
d="M17 0v102l211 285h-211v113h372v-114l-196 -273h196v-113h-372zM257 573h-104l-129 150h141l42 -58l41 58h142z" />
    <glyph glyph-name="florin" unicode="&#x192;" horiz-adv-x="550" 
d="M487 611q-43 0 -59.5 -21.5t-22.5 -60.5h65l-20 -113h-65l-50 -282q-7 -38 -14.5 -75t-26.5 -71q-32 -58 -87 -87.5t-120 -29.5q-12 0 -24.5 1t-24.5 4l24 134q4 -1 8 -1h8q28 0 45.5 7t28.5 20.5t17 33.5t11 45l52 301h-65l19 113h66l5 29q7 40 26 72t47 55t63.5 35.5
t75.5 12.5h18.5t18.5 -2z" />
    <glyph glyph-name="circumflex" unicode="&#x2c6;" 
d="M292 560l-42 58l-41 -58h-142l133 149h104l129 -149h-141z" />
    <glyph glyph-name="caron" unicode="&#x2c7;" 
d="M300 560h-104l-129 149h141l42 -57l41 57h142z" />
    <glyph glyph-name="breve" unicode="&#x2d8;" 
d="M417 705q-3 -36 -16.5 -62t-36 -42t-51.5 -23.5t-63 -7.5t-63 7.5t-51.5 23.5t-36 42t-16.5 62h95q11 -26 29.5 -35t46.5 -9q24 0 41.5 10.5t26.5 33.5h95z" />
    <glyph glyph-name="dotaccent" unicode="&#x2d9;" 
d="M178 567v136h144v-136h-144z" />
    <glyph glyph-name="ring" unicode="&#x2da;" 
d="M293 662q0 17 -12.5 30.5t-30.5 13.5t-30.5 -13t-12.5 -31t12 -31.5t31 -13.5q18 0 30.5 13.5t12.5 31.5zM363 662q0 -23 -9 -43.5t-24.5 -35.5t-36 -24t-43.5 -9t-43.5 9t-36 24t-24.5 35.5t-9 43.5t9 43.5t24.5 35.5t36 23.5t43.5 8.5t43.5 -8.5t36 -23.5t24.5 -35.5
t9 -43.5z" />
    <glyph glyph-name="ogonek" unicode="&#x2db;" 
d="M369 -171q-20 -7 -38 -11t-40 -4q-20 0 -39.5 5.5t-34.5 16t-24 27t-9 39.5q0 17 7 31.5t18 26.5t24 21.5t26 18.5h75q-19 -10 -37 -25t-18 -39q0 -19 14 -31.5t32 -12.5q12 0 22.5 3t21.5 8v-74z" />
    <glyph glyph-name="tilde" unicode="&#x2dc;" 
d="M436 609q-24 -16 -51 -25t-56 -9q-18 0 -36 3.5t-35.5 8t-35 8t-35.5 3.5t-34.5 -5t-33.5 -12l-55 81q23 13 48.5 22.5t52.5 9.5q19 0 37.5 -3.5t37 -8t37 -8t37.5 -3.5q20 0 34 4t33 12z" />
    <glyph glyph-name="hungarumlaut" unicode="&#x2dd;" 
d="M158 543l-62 59l133 160l74 -75zM326 543l-62 59l133 160l74 -75z" />
    <glyph glyph-name="Delta" unicode="&#x394;" horiz-adv-x="667" 
d="M332 512l-134 -397h268zM17 0l246 667h137l250 -667h-633z" />
    <glyph glyph-name="Delta" unicode="&#x2206;" horiz-adv-x="667" 
d="M332 512l-134 -397h268zM17 0l246 667h137l250 -667h-633z" />
    <glyph glyph-name="Omega" unicode="&#x3a9;" horiz-adv-x="667" 
d="M369 0v101q33 19 57 39.5t43 53.5q20 35 28.5 76.5t8.5 81.5q0 38 -10.5 77t-32 70t-54 50.5t-75.5 19.5q-44 0 -76 -19.5t-54 -50.5t-32.5 -69.5t-10.5 -77.5q0 -85 31.5 -147t106.5 -104v-101h-270v114h138q-32 20 -56.5 41t-44.5 55q-20 35 -29 75t-9 81q0 66 22 124
t62.5 101t96.5 67.5t124 24.5t124 -24.5t96.5 -67.5t62.5 -101t22 -124q0 -56 -15.5 -106t-53.5 -92q-15 -17 -32.5 -29.5t-36.5 -24.5h138v-114h-269z" />
    <glyph glyph-name="Omega" unicode="&#x2126;" horiz-adv-x="667" 
d="M369 0v101q33 19 57 39.5t43 53.5q20 35 28.5 76.5t8.5 81.5q0 38 -10.5 77t-32 70t-54 50.5t-75.5 19.5q-44 0 -76 -19.5t-54 -50.5t-32.5 -69.5t-10.5 -77.5q0 -85 31.5 -147t106.5 -104v-101h-270v114h138q-32 20 -56.5 41t-44.5 55q-20 35 -29 75t-9 81q0 66 22 124
t62.5 101t96.5 67.5t124 24.5t124 -24.5t96.5 -67.5t62.5 -101t22 -124q0 -56 -15.5 -106t-53.5 -92q-15 -17 -32.5 -29.5t-36.5 -24.5h138v-114h-269z" />
    <glyph glyph-name="pi" unicode="&#x3c0;" horiz-adv-x="662" 
d="M549 368v-368h-127v368h-182v-368h-126v368h-77v114h587v-114h-75z" />
    <glyph glyph-name="endash" unicode="&#x2013;" 
d="M33 281v117h434v-117h-434z" />
    <glyph glyph-name="emdash" unicode="&#x2014;" horiz-adv-x="767" 
d="M0 193v127h767v-127h-767z" />
    <glyph glyph-name="quoteleft" unicode="&#x2018;" horiz-adv-x="262" 
d="M53 368v190q0 21 5.5 40.5t17 35t29 24.5t40.5 9h64v-81h-22.5t-23 -2.5t-17.5 -9.5t-7 -22v-30h70v-154h-156z" />
    <glyph glyph-name="quoteright" unicode="&#x2019;" horiz-adv-x="262" 
d="M209 477q0 -21 -5.5 -40.5t-17 -35t-29 -24.5t-40.5 -9h-64v81h22.5t23 2.5t17.5 9.5t7 22v30h-70v154h156v-190z" />
    <glyph glyph-name="quotesinglbase" unicode="&#x201a;" horiz-adv-x="262" 
d="M209 -36q0 -21 -5.5 -40.5t-17 -35t-29 -24.5t-40.5 -9h-64v80h22t22.5 2.5t18 9.5t7.5 22v31h-70v153h156v-189z" />
    <glyph glyph-name="quotedblleft" unicode="&#x201c;" horiz-adv-x="485" 
d="M53 368v190q0 21 5.5 40.5t17 35t29 24.5t40.5 9h64v-81h-22.5t-23 -2.5t-17.5 -9.5t-7 -22v-30h70v-154h-156zM276 368v190q0 21 5.5 40.5t17 35t29 24.5t40.5 9h63v-81q-10 0 -22 0.5t-22.5 -2.5t-17.5 -10t-7 -22v-30h69v-154h-155z" />
    <glyph glyph-name="quotedblright" unicode="&#x201d;" horiz-adv-x="485" 
d="M209 477q0 -21 -5.5 -40.5t-17 -35t-29 -24.5t-40.5 -9h-64v81h22.5t23 2.5t17.5 9.5t7 22v30h-70v154h156v-190zM431 477q0 -21 -5.5 -40.5t-17 -35t-28.5 -24.5t-40 -9h-64v81h22.5t23 2.5t17.5 9.5t7 22v30h-70v154h155v-190z" />
    <glyph glyph-name="quotedblbase" unicode="&#x201e;" horiz-adv-x="485" 
d="M209 -36q0 -21 -5.5 -40.5t-17 -35t-29 -24.5t-40.5 -9h-64v80h22t22.5 2.5t18 9.5t7.5 22v31h-70v153h156v-189zM431 -36q0 -21 -5.5 -40.5t-17 -35t-28.5 -24.5t-40 -9h-64v80h22t22.5 2.5t18 9.5t7.5 22v31h-70v153h155v-189z" />
    <glyph glyph-name="dagger" unicode="&#x2020;" horiz-adv-x="550" 
d="M349 371v-538h-148v538h-149v130h149v166h148v-166h149v-130h-149z" />
    <glyph glyph-name="daggerdbl" unicode="&#x2021;" horiz-adv-x="550" 
d="M349 -1v-166h-148v166h-149v130h149v242h-149v130h149v166h148v-166h149v-130h-149v-242h149v-130h-149z" />
    <glyph glyph-name="bullet" unicode="&#x2022;" horiz-adv-x="667" 
d="M471 340q0 -28 -10.5 -53.5t-29.5 -44.5t-44 -30.5t-53 -11.5q-29 0 -54 11t-44 30.5t-29.5 44.5t-10.5 54q0 28 10.5 53.5t29.5 45t44 30.5t54 11q28 0 53 -11.5t44 -30.5t29.5 -44.5t10.5 -53.5z" />
    <glyph glyph-name="ellipsis" unicode="&#x2026;" horiz-adv-x="786" 
d="M53 0v153h156v-153h-156zM315 0v153h156v-153h-156zM577 0v153h156v-153h-156z" />
    <glyph glyph-name="perthousand" unicode="&#x2030;" horiz-adv-x="1167" 
d="M253 519q0 25 -17 43t-42 18q-26 0 -43 -17.5t-17 -43.5t17 -44t43 -18t42.5 18.5t16.5 43.5zM666 148q0 25 -16.5 43.5t-42.5 18.5t-43 -18t-17 -43q0 -26 17 -44.5t43 -18.5t42.5 18t16.5 44zM1033 148q0 24 -17 43t-42 19q-26 0 -43 -17.5t-17 -43.5t17 -44.5
t43 -18.5t42.5 18.5t16.5 43.5zM357 519q0 -35 -12.5 -64.5t-34 -51.5t-51.5 -34t-65 -12t-65 12t-52 33t-34.5 50.5t-12.5 64.5t12 65t34 51.5t52 34t65 12.5q34 0 64 -12t52.5 -33.5t35 -51t12.5 -64.5zM313 0h-106l280 667h106zM770 148q0 -35 -12.5 -64.5t-34.5 -51
t-52 -33.5t-64 -12q-35 0 -65 11.5t-52 32.5t-34.5 50.5t-12.5 64.5q0 36 12.5 66t34 51.5t51.5 34t66 12.5q35 0 65 -12t51.5 -34t34 -51.5t12.5 -64.5zM1137 148q0 -35 -12.5 -64.5t-34.5 -51t-52 -33.5t-64 -12q-35 0 -65 11.5t-52 32.5t-34.5 50.5t-12.5 64.5t12 65
t34 52t51.5 34.5t65.5 12.5q35 0 65 -12t52 -33.5t34.5 -51.5t12.5 -65z" />
    <glyph glyph-name="guilsinglleft" unicode="&#x2039;" horiz-adv-x="189" 
d="M33 201v115l116 125v-140l-46 -41l46 -42v-132z" />
    <glyph glyph-name="guilsinglright" unicode="&#x203a;" horiz-adv-x="189" 
d="M40 86v133l46 41l-46 42v132l116 -118v-116z" />
    <glyph glyph-name="fraction" unicode="&#x2044;" horiz-adv-x="145" 
d="M-15 0h-105l280 667h105z" />
    <glyph glyph-name="fraction" unicode="&#x2215;" horiz-adv-x="145" 
d="M-15 0h-105l280 667h105z" />
    <glyph glyph-name="trademark" unicode="&#x2122;" horiz-adv-x="817" 
d="M207 576v-289h-114v289h-83v91h280v-91h-83zM658 287l4 262l-86 -262h-75l-85 262l3 -262h-105v380h143l82 -239l80 239h145v-380h-106z" />
    <glyph glyph-name="partialdiff" unicode="&#x2202;" 
d="M348 217q0 46 -28.5 77.5t-76.5 31.5h-10q-6 0 -15.5 -3t-14.5 -5q-31 -14 -47 -41.5t-16 -59.5q0 -23 7.5 -43t21 -35.5t32.5 -24.5t43 -9q48 0 76 33t28 79zM486 268q0 -57 -15.5 -107t-46.5 -88t-76.5 -60t-106.5 -22q-48 0 -90 17.5t-73.5 48.5t-49.5 73t-18 90
q0 44 15.5 82.5t43 67.5t65 45.5t82.5 16.5q35 0 66.5 -10.5t56.5 -36.5q-19 44 -49 74.5t-66.5 50t-79 30t-87.5 15.5l16 110q80 -9 152 -31t134 -76q65 -56 96 -130.5t31 -159.5z" />
    <glyph glyph-name="product" unicode="&#x220f;" horiz-adv-x="731" 
d="M401 -250v114h80v772h-231v-772h79v-114h-289v114h83v772h-83v114h652v-114h-82v-772h82v-114h-291z" />
    <glyph glyph-name="summation" unicode="&#x2211;" horiz-adv-x="667" 
d="M21 -250v127l244 390l-244 356v127h598v-246h-114l-13 132h-328l250 -369l-250 -403h337l8 135h119v-249h-607z" />
    <glyph glyph-name="minus" unicode="&#x2212;" horiz-adv-x="550" 
d="M42 277v113h467v-113h-467z" />
    <glyph glyph-name="radical" unicode="&#x221a;" horiz-adv-x="667" 
d="M487 713l-168 -713h-167l-58 272h-94v114h198l19 -87q8 -35 10.5 -72.5t4.5 -72.5h10q5 74 17 147.5t29 145.5l89 380h290v-114h-180z" />
    <glyph glyph-name="infinity" unicode="&#x221e;" horiz-adv-x="667" 
d="M271 339q-14 18 -31 33.5t-41 15.5q-20 0 -36 -14t-16 -35t16.5 -35t36.5 -14q23 0 40.5 16t30.5 33zM519 340q0 21 -16 34.5t-36 13.5q-24 0 -41 -15.5t-30 -33.5q13 -18 30 -33t41 -15q21 0 36.5 13.5t15.5 35.5zM650 340q0 -36 -12 -65.5t-33.5 -51.5t-51 -34
t-65.5 -12q-48 0 -85 22.5t-66 57.5q-32 -36 -70 -58t-88 -22q-36 0 -65.5 12t-51 33.5t-33.5 51t-12 65.5q0 35 12 65t33 51.5t50.5 34t65.5 12.5q49 0 85 -22.5t68 -57.5q30 35 69 57.5t87 22.5q36 0 65.5 -12t51.5 -33t34 -51t12 -66z" />
    <glyph glyph-name="integral" unicode="&#x222b;" 
d="M428 627q-14 5 -27.5 7.5t-28.5 2.5q-35 0 -46 -20t-11 -51v-61v-66v-419v-40.5t-1 -41.5q-1 -36 -5.5 -68t-28.5 -61q-27 -33 -62 -46t-77 -13q-23 0 -46 2.5t-46 7.5l23 113q14 -5 27 -7.5t28 -2.5q22 0 33.5 7t17 19.5t6.5 28.5t1 34v44v484v41t1 41q1 37 5.5 68.5
t28.5 61.5q28 34 63.5 46t77.5 12q23 0 45 -3t45 -7z" />
    <glyph glyph-name="approxequal" unicode="&#x2248;" 
d="M493 283q-17 -37 -36.5 -67.5t-56.5 -49.5q-32 -16 -65 -16q-23 0 -51 9.5t-50 17.5q-19 7 -41.5 15.5t-42.5 8.5q-31 0 -45.5 -18.5t-27.5 -43.5l-70 46q11 26 23.5 51t30 44.5t41 31t56.5 11.5q24 0 48.5 -8t49.5 -17.5t48.5 -17.5t44.5 -8q29 0 43.5 14.5t28.5 37.5z
M493 484q-17 -37 -36.5 -67.5t-56.5 -49.5q-32 -16 -65 -16q-23 0 -51 9.5t-50 17.5q-19 7 -41.5 15.5t-42.5 8.5q-16 0 -27 -5t-19 -13.5t-14.5 -19.5t-12.5 -24l-70 46q11 26 23.5 51t30 44.5t41 31t56.5 11.5q24 0 48.5 -8t49.5 -17.5t48 -17.5t44 -8q29 0 44 14t29 38z
" />
    <glyph glyph-name="notequal" unicode="&#x2260;" 
d="M226 174l-49 -97h-100l48 97h-91v114h142l35 68h-177v114h229l54 108h100l-54 -108h104v-114h-155l-35 -68h190v-114h-241z" />
    <glyph glyph-name="lessequal" unicode="&#x2264;" 
d="M33 3v114h434v-114h-434zM33 352v107l434 207v-119l-300 -142l299 -142l1 -118z" />
    <glyph glyph-name="greaterequal" unicode="&#x2265;" 
d="M33 3v114h434v-114h-434zM33 145v118l300 143l-299 141l-1 119l434 -208v-106z" />
    <glyph glyph-name="lozenge" unicode="&#x25ca;" horiz-adv-x="667" 
d="M333 487l-111 -153l111 -154l112 154zM333 -26l-259 360l259 359l260 -359z" />
    <glyph glyph-name="apple" horiz-adv-x="825" 
d="M420 221h-100q23 -38 60.5 -61t86.5 -23q57 0 97 31t64 81h178q-14 -59 -46 -107.5t-76 -83t-99 -53t-116 -18.5q-58 0 -110.5 17t-96 48t-75.5 74t-50 95h-130l36 84h76q-1 8 -1 15v15v13t1 13h-112l36 85h93q17 52 49 95t75.5 74t96 48t110.5 17q93 0 169.5 -41.5
t126.5 -119.5q19 -29 28.5 -50.5t14.5 -55.5h-178q-20 52 -62.5 84.5t-99.5 32.5q-50 0 -87.5 -23t-60.5 -61h193l-36 -85h-185q-1 -7 -1.5 -13t-0.5 -13q0 -8 0.5 -15t1.5 -15h166z" />
  </font>
</defs>
</svg>
