<?xml version="1.0" standalone="no"?>
<!DOCTYPE svg PUBLIC "-//W3C//DTD SVG 1.1//EN" "http://www.w3.org/Graphics/SVG/1.1/DTD/svg11.dtd" >
<svg xmlns="http://www.w3.org/2000/svg" xmlns:xlink="http://www.w3.org/1999/xlink" version="1.1">
<metadata>
Created by FontForge 20161013 at Mon Aug 20 18:47:52 2007
 By ,,,
Copyright (c) Volker Busse, Berlin, 2007. All rights reserved.
</metadata>
<defs>
<font id="Typewriter_Condensed" horiz-adv-x="450" >
  <font-face 
    font-family="Typewriter_Condensed"
    font-weight="400"
    font-stretch="normal"
    units-per-em="1000"
    panose-1="2 0 5 9 0 0 0 2 0 4"
    ascent="800"
    descent="-200"
    x-height="433.5"
    cap-height="627"
    bbox="-11.8824 -256 461 837.261"
    underline-thickness="65"
    underline-position="-428"
    unicode-range="U+0020-20AC"
  />
<missing-glyph 
 />
    <glyph glyph-name=".notdef" 
 />
    <glyph glyph-name=".null" horiz-adv-x="0" 
 />
    <glyph glyph-name="nonmarkingreturn" 
 />
    <glyph glyph-name="space" unicode=" " 
 />
    <glyph glyph-name="exclam" unicode="!" 
d="M279 56q0 23 -17 40t-41 17q-23 0 -40 -17t-17 -40q0 -24 17 -41t40 -17q24 0 41 17t17 41zM194 697v-473q0 -11 8.5 -19t19.5 -8t19.5 8t8.5 19v473q0 11 -8.5 20t-19.5 9t-19.5 -9t-8.5 -20z" />
    <glyph glyph-name="quotedbl" unicode="&#x22;" 
d="M129 600v-134q0 -11 8.5 -19t19.5 -8t19.5 8t8.5 19v134q0 12 -8.5 20.5t-19.5 8.5t-19.5 -8.5t-8.5 -20.5zM272 600v-134q0 -11 8.5 -19t19.5 -8t19.5 8t8.5 19v134q0 12 -8.5 20.5t-19.5 8.5t-19.5 -8.5t-8.5 -20.5z" />
    <glyph glyph-name="numbersign" unicode="#" 
d="M285 247h-89q-5 0 -18 -2t-19 -2q0 2 1 7v6q5 15 6 25l16 97h88q17 0 38 3q0 -1 -0.5 -5t-0.5 -5q-5 -19 -7 -27q-2 -16 -7.5 -49t-7.5 -48zM324 206h57q34 0 34 19q0 22 -36 22h-22q-4 0 -14.5 -2t-15.5 -2q10 34 11 38q2 15 7.5 48.5t7.5 48.5h37q23 0 35 2q15 4 15 18
q0 12 -16 19q-12 2 -36 2h-11q-6 0 -22 -4q8 23 10 36l20 124q1 6 2 14.5t2 11.5l1 6q-2 22 -22 22q-16 0 -20 -13q-3 -10 -8 -32q-24 -140 -28 -165h-87q-5 0 -11.5 -0.5t-15.5 -1.5t-14 -1q5 17 9 35q20 116 21 124q4 19 4 29q0 25 -20 25t-29 -45q-4 -25 -13.5 -81
t-13.5 -84h-41q-20 0 -34 -2q-13 -2 -15 -17q-2 -16 16 -19q14 -3 36 -3h13q9 0 22 5q-6 -24 -7 -29q-2 -8 -2 -9l-17 -98h-40q-21 0 -33 -3q-16 -1 -16 -17q0 -17 18 -19q10 -2 34 -2h12q6 0 22 4q-7 -31 -8 -37l-21 -123q-4 -19 -4 -30q0 -14 5.5 -20t17.5 -5q13 2 17 11
q3 7 8 35q8 44 29 165h88q20 0 38 3q0 -1 -1.5 -10t-2.5 -11q-2 -12 -3 -16q-18 -105 -21 -122q-3 -18 -3 -29q0 -26 22 -26q12 0 16.5 9t10.5 37q4 23 13 79.5t13 85.5z" />
    <glyph glyph-name="dollar" unicode="$" 
d="M254 257l27 -19l9 -7q68 -59 68 -99q0 -74 -106 -99q2 28 3 106.5t-1 117.5zM212 577l-2 -123q0 -9 -1 -58.5t0 -51.5q-69 46 -89 74t-20 60q0 75 112 99zM210 287l1 -255q-46 6 -86 27q-55 26 -66 26q-7 0 -12 -6t-5 -14q0 -23 47 -49q57 -28 121 -32v-64q0 -27 22 -27
q24 0 24 27v68q71 13 110.5 52.5t39.5 97.5q0 39 -20 69t-66 63q-12 8 -35.5 24t-28.5 19l-3 266q56 -11 91 -33q22 -13 32 -13q6 0 11 7t5 15q0 21 -39 40.5t-97 29.5v61q0 26 -24 26q-22 0 -22 -26v-61q-71 -12 -113.5 -53.5t-42.5 -99.5q0 -71 96 -142q6 -4 27.5 -19.5
t32.5 -23.5z" />
    <glyph glyph-name="percent" unicode="%" 
d="M108 530q28 0 45.5 -20t17.5 -51q0 -32 -17.5 -52t-45.5 -20q-29 0 -47 20t-18 52t18 51.5t47 19.5zM350 234q27 0 45.5 -19.5t18.5 -51.5q0 -31 -18.5 -51.5t-45.5 -20.5q-30 0 -48 20t-18 52t18 51.5t48 19.5zM354 563l-286 -481q-4 -8 -4 -13q0 -23 19 -23q11 0 17 11
l286 482v-1q4 10 4 14q0 10 -6 17t-14 7q-10 0 -16 -13zM350 281q-44 0 -74.5 -34t-30.5 -84t30 -83t75 -33q44 0 73 33t29 83t-29 84t-73 34zM108 576q-44 0 -73.5 -34t-29.5 -83q0 -50 29.5 -84t73.5 -34t74 34t30 84q0 49 -30 83t-74 34z" />
    <glyph glyph-name="ampersand" unicode="&#x26;" 
d="M155 387l-29 50q-17 31 -17 53q0 35 26 62t60 27t60 -27t26 -62q0 -39 -32 -71l-34 -37q-5 -6 -18 -18t-17 -16q-5 10 -10 18t-9.5 13.5t-5.5 7.5zM201 235l74 -117q-6 -8 -37 -34q-50 -39 -78 -39q-32 0 -56.5 26t-24.5 60q0 38 32 76v-1q12 13 29 34q22 20 34 39
q3 -5 27 -44zM151 314l-70 -79q-45 -51 -45 -101q0 -52 37 -95q39 -40 87 -40q43 0 88 38q11 7 30 26q8 6 23 21q11 -26 12 -28l3 -7l-1 1q3 -4 11 -15.5t12 -18.5q11 -16 22 -16q21 0 21 20q0 10 -9 24q-24 38 -39 61l78 70q19 17 22.5 21t3.5 12t-6 14.5t-13 6.5
q-10 0 -37 -21l-49 -41l-11 -11q-1 -1 -7 -6l-7 -5q-9 18 -99 162l72 77q43 49 43 107q0 57 -37 95q-39 39 -91 39q-51 0 -91 -40q-37 -40 -37 -94q0 -42 34 -98z" />
    <glyph glyph-name="quotesingle" unicode="'" 
d="M189 600v-134q0 -11 8.5 -19t19.5 -8t19.5 8t8.5 19v134q0 12 -8.5 20.5t-19.5 8.5t-19.5 -8.5t-8.5 -20.5z" />
    <glyph glyph-name="parenleft" unicode="(" 
d="M272 -45q8 -7 19 -7t19 9q8 8 8 20t-9 19q-150 143 -150 351q-1 120 50 227.5t124 155.5q10 6 12 17.5t-5 21.5q-13 21 -39 7l1 1q-87 -60 -142 -177.5t-56 -252.5q0 -236 168 -392z" />
    <glyph glyph-name="parenright" unicode=")" 
d="M139 -40h1q8 -9 19 -9q12 0 19 7q168 158 168 393q-1 136 -56 253.5t-143 176.5h1q-11 7 -22 4t-17 -13q-7 -9 -4.5 -20.5t11.5 -17.5q73 -47 124 -155t50 -228q0 -96 -37 -187.5t-113 -163.5q-8 -9 -8.5 -20.5t7.5 -19.5z" />
    <glyph glyph-name="asterisk" unicode="*" 
d="M398 540l-13 35q-95 -29 -141 -46v183h-38v-183l-141 48q-2 -8 -6 -18t-7 -21q22 -9 71 -24.5t71 -24.5l-89 -150q26 -31 30 -36q14 26 44.5 79.5t42.5 75.5l92 -153q2 4 14.5 14t15.5 15q-13 23 -49 76.5t-49 78.5z" />
    <glyph glyph-name="plus" unicode="+" 
d="M246 538l4 -1l-1 1h-2h-1zM260 174v-2l1 3zM67 322h138v-145q0 -5 2 -9l10 -9q1 -3 9 -6h-1h2h6q7 0 15 4l3 3l3 3q2 2 4 6v3l2 2v2v2q1 2 1 3v141h127q11 0 19 8.5t8 19.5t-8 19.5t-19 8.5h-127v136l-3 12l-1 3v-1q-1 2 -6 7l-1 1q-2 0 -4 2q-5 0 -7 1q-5 0 -7 2h-2
q-8 -1 -14 -6l-5 -5q-2 -3 -3 -4l-2 -4v-1q-1 -1 -1 -2v-141h-138q-11 0 -19.5 -8.5t-8.5 -19.5t8.5 -19.5t19.5 -8.5z" />
    <glyph glyph-name="comma" unicode="," 
d="M211 -163h-1q10 -4 14 -4q15 0 25 16l-1 -1q49 87 50 184q0 25 -4 45l1 -1q-1 1 -3 8.5t-2 8.5q-5 20 -24.5 34.5t-43.5 14.5q-29 0 -49.5 -21t-20.5 -50t20.5 -50t49.5 -21h23q-14 -76 -40 -120v1l-3 -8q-13 -22 9 -36z" />
    <glyph glyph-name="hyphen" unicode="-" 
d="M88 245h274q7 0 12.5 8.5t5.5 17.5q0 7 -5.5 15t-12.5 8h-274q-7 0 -13 -8t-6 -15q0 -9 6 -17.5t13 -8.5z" />
    <glyph glyph-name="hyphen" unicode="&#x2010;" 
d="M88 245h274q7 0 12.5 8.5t5.5 17.5q0 7 -5.5 15t-12.5 8h-274q-7 0 -13 -8t-6 -15q0 -9 6 -17.5t13 -8.5z" />
    <glyph glyph-name="period" unicode="." 
d="M295 70q0 29 -21 50t-50 21t-49.5 -21t-20.5 -50t20.5 -50t49.5 -21t50 21t21 50z" />
    <glyph glyph-name="slash" unicode="/" 
d="M72 -76l3 -2q8 -8 20 -7q9 0 16 5q7 4 11 20q3 10 23.5 74.5t56 175t62.5 195.5l116 366q4 11 -1 21t-16 13q-11 4 -21.5 -1t-14.5 -16h1q-65 -203 -130 -408q-66 -204 -89 -281q-10 -30 -30 -92q-1 -9 -10 -30l-1 -2v-2t-3 -7l2 2q-2 -8 3 -21l1 -1z" />
    <glyph glyph-name="zero" unicode="0" 
d="M305 133q-13 -46 -33.5 -69.5t-43.5 -22.5q-31 -1 -51 21.5t-35 70.5q-18 57 -21 160v17q0 108 22 178q14 48 35.5 72.5t48.5 23.5q56 0 81 -87q20 -65 20 -172q0 -24 -1 -33q-3 -100 -22 -159zM93 118q15 -54 48 -91t87 -37q88 2 126 128q24 82 24 174q1 11 1 33
q0 112 -22 187q-14 51 -46 86.5t-84 36.5q-96 -2 -133 -132q-24 -83 -24 -193v-20q3 -100 23 -172z" />
    <glyph glyph-name="one" unicode="1" 
d="M291 538l2 -510q0 -12 8 -20t20 -8q11 0 19.5 8.5t8.5 20.5l-1 564q-4 20 -16 25q-17 7 -29 -2l-190 -138q-23 -17 -6 -39q13 -19 39 -7q112 82 145 106z" />
    <glyph glyph-name="two" unicode="2" 
d="M112 0l233 -1q29 4 29 28q0 11 -8 19.5t-20 8.5l-215 1q5 66 82 179v-1q7 11 57 71q46 48 73.5 91t30.5 94q-1 29 -13.5 58t-44 53.5t-76.5 25.5q-1 0 -3.5 -0.5t-5.5 -0.5q-33 -4 -61 -19t-43.5 -32.5t-26.5 -36.5t-15 -30t-4 -13q-2 -10 5 -19.5t18 -12.5q26 2 33 25
q2 9 6 18.5t14.5 25.5t30.5 26.5t47 11.5h5q39 0 58 -25.5t20 -55.5v-5q0 -17 -14 -42.5t-29 -44.5t-45 -54v1q-7 -9 -30 -36t-34 -42q-90 -133 -90 -206q-1 -37 17 -52q8 -8 19 -8z" />
    <glyph glyph-name="three" unicode="3" 
d="M75 -68v1q7 -20 26 -20h6q1 0 2 0.5t2 0.5h1l2 1q11 4 25 9t39.5 18t49 28.5t50 40.5t46.5 53t34.5 67t17.5 82v9q1 96 -53 141q-28 25 -87 33q5 7 20 28.5t20 28.5q2 1 4 4.5t3 4.5q41 60 47 70q2 4 6 10.5t5 7.5q16 22 19 45q0 7 -3 12q-8 18 -26 18q-19 3 -97 3
l-116 -1q-11 -2 -19.5 -10t-8.5 -19q0 -10 9 -18.5t20 -9.5q7 0 49 0.5t66 0.5h55q-8 -12 -32 -47.5t-33 -48.5l-71 -95q-12 -16 -1 -33q13 -19 31 -11q20 5 41 5q1 0 4 -0.5t5 -0.5q20 -2 31.5 -5.5t25.5 -14.5t21.5 -35t9.5 -63v-9q0 -46 -21.5 -87.5t-49 -67t-63.5 -47
t-55.5 -29.5t-34.5 -13h1l-5 -2q-10 -3 -15.5 -14t-2.5 -21z" />
    <glyph glyph-name="four" unicode="4" 
d="M261 185v-175q0 -11 7.5 -18t18.5 -7t18 7.5t7 17.5v175h28q11 0 18.5 7.5t7.5 18.5t-7.5 18.5t-18.5 7.5h-28v100q0 11 -7 18t-18 7t-18.5 -7t-7.5 -18v-100h-123q10 81 38 164q24 76 24 209v13q0 11 -7.5 18.5t-17.5 7.5q-11 -2 -18.5 -9.5t-7.5 -17.5v-12
q0 -127 -22 -192q-43 -129 -43 -206q0 -4 1 -6q2 -8 9 -14.5t16 -6.5h151z" />
    <glyph glyph-name="five" unicode="5" 
d="M83 -76q7 -17 26 -17q3 0 11 2l11 6h-1q24 11 58 34.5t78.5 62.5t76.5 94.5t35 112.5q-2 95 -52 137q-42 34 -108 34q-38 0 -88 -12q0 11 0.5 47t0.5 52q0 73 1 95l218 -1q12 0 19.5 8t8.5 20q0 12 -8 20t-19 8l-246 2q-27 0 -29 -28v-127q-1 -32 -1 -89q0 -4 -0.5 -10
t-0.5 -9v-17q0 -1 -0.5 -4t-0.5 -5t1 -3q5 -19 18 -21v-1l2 -1h3h10q1 0 1.5 0.5t1.5 0.5q8 2 14 4l-1 -1q21 7 23 7q38 10 73 10q20 -3 25.5 -3.5t20.5 -4t19.5 -7.5t14 -12.5t12.5 -19.5t6.5 -28t4.5 -39v-4q-1 -50 -32 -98t-79 -86q-42 -34 -104 -67l-9 -4
q-11 -5 -15.5 -16t0.5 -22z" />
    <glyph glyph-name="six" unicode="6" 
d="M131 187v1q0 4 -0.5 11.5t-0.5 10.5q0 15 -1 23q2 6 2 23q0 26 12.5 47t28.5 31q28 16 56 15q4 -2 11 -2q14 -2 24 -6.5t24 -19.5t23 -50t11 -89q0 -56 -22 -93q-14 -23 -30 -33.5t-44 -11.5h-5q-78 5 -89 143zM220 -7h5q43 1 74 20.5t45.5 51t21 60t6.5 57.5
q0 128 -58 181q-36 32 -88 32q-44 -3 -93 -37q22 135 77 210q10 14 22 26t19 17t19.5 13t15.5 10q23 7 16 30q-8 24 -31 16q-7 -1 -25 -10.5t-48 -40t-56 -75.5t-45.5 -127t-18.5 -183q0 -18 2 -60q3 -88 44 -139t96 -52z" />
    <glyph glyph-name="seven" unicode="7" 
d="M163 -23q0 -10 7 -17.5t21 -8.5h5q10 1 16.5 10.5t6.5 19.5q0 1 -0.5 6.5t-1 15t-0.5 19.5q0 160 87 303q72 117 72 236q0 18 -3 45q-5 22 -28 22h-230q-25 0 -28 -24q-2 -18 -6.5 -53t-6.5 -52q-2 -11 5 -21t17 -11q12 -1 21 6t11 18l12 81l181 -1q0 -113 -63 -216
q-97 -158 -97 -333q0 -31 2 -45z" />
    <glyph glyph-name="eight" unicode="8" 
d="M227 373q-18 0 -31.5 7t-17.5 12.5t-13 18.5q-16 31 -16 73q1 21 7 40.5t25.5 39t50.5 19.5q37 0 62 -36q17 -31 17 -78q-4 -93 -84 -96zM232 313q44 -1 72 -37.5t26 -98.5v-6q3 -48 -22.5 -86.5t-81.5 -41.5h-5q-42 -1 -71.5 38.5t-31.5 93.5v5q1 56 32 96.5t82 36.5z
M68 172v-2q2 -66 42 -121t111 -57h6q44 1 76 19.5t48 47t23.5 57t6.5 56.5v5q0 51 -19.5 97t-59.5 70q61 52 61 125q0 36 -10.5 70.5t-42 64.5t-79.5 31l-4 -1q-50 -3 -81.5 -34.5t-40 -61t-8.5 -54.5q0 -86 58 -140q-42 -28 -65 -72.5t-23 -91.5q0 -2 1 -8z" />
    <glyph glyph-name="nine" unicode="9" 
d="M235 571q81 -12 85 -145l2 -80q0 -12 -1 -20q0 -4 -1 -12v-8q-12 -10 -28 -26q-23 -20 -73 -22q-44 1 -69 53q-24 50 -22 103q-2 67 21 107q17 25 35 37t51 13zM158 -81q9 -12 24 -12q9 0 11 2q31 21 52.5 38.5t49.5 54t44.5 79t28 111.5t10.5 155q0 15 -2 83
q-2 100 -42.5 148.5t-105.5 49.5l-6 -1q-36 -2 -63.5 -17.5t-43.5 -37.5t-26.5 -51.5t-13.5 -55t-3 -51.5q1 -28 7.5 -57.5t21 -65t45 -59.5t72.5 -29h4q42 1 94 35q-8 -66 -20.5 -111.5t-32.5 -75.5t-35.5 -44t-44.5 -36q-3 -2 -9.5 -6.5t-9.5 -6.5q-10 -6 -11.5 -18
t5.5 -21z" />
    <glyph glyph-name="colon" unicode=":" 
d="M295 98q0 29 -21 50t-50 21t-49.5 -21t-20.5 -50t20.5 -50t49.5 -21t50 21t21 50zM295 349q0 29 -21 50t-50 21t-49.5 -21t-20.5 -50t20.5 -50t49.5 -21t50 21t21 50z" />
    <glyph glyph-name="semicolon" unicode=";" 
d="M295 322q0 29 -21 50t-50 21t-49.5 -21t-20.5 -50t20.5 -50t49.5 -21t50 21t21 50zM211 -163h-1q10 -4 14 -4q15 0 25 16l-1 -1q49 87 50 184q0 25 -4 45l-4 16q-5 20 -24.5 34.5t-43.5 14.5q-29 0 -49.5 -21t-20.5 -50t20.5 -50t49.5 -21h23q-14 -76 -40 -120v1l-3 -8
q-13 -22 9 -36z" />
    <glyph glyph-name="less" unicode="&#x3c;" 
d="M115 308l88 48l102 63q3 2 9 5l17 10q13 12 13 22q0 9 -7 15.5t-17 6.5q-9 0 -42 -20v1q-26 -16 -78 -49t-78 -49q-17 -10 -29 -22q-8 -13 -8 -31q0 -24 9 -32q8 -11 28 -24l156 -99v1q30 -18 42 -18q10 0 17 6t7 14q0 13 -13 23l-26 16l-102 62q-7 3 -22 12h1
q-32 18 -67 39z" />
    <glyph glyph-name="equal" unicode="=" 
d="M92 386h266q11 0 19.5 8t8.5 20q0 11 -8.5 19.5t-19.5 8.5h-266q-11 0 -20 -8.5t-9 -19.5q0 -12 8.5 -20t20.5 -8zM92 230h266q11 0 19.5 8t8.5 19q0 12 -8.5 20t-19.5 8h-266q-12 0 -20.5 -8t-8.5 -20q0 -11 9 -19t20 -8z" />
    <glyph glyph-name="greater" unicode="&#x3e;" 
d="M225 257l85 51q-27 14 -85 48l-102 63q-3 2 -9 5l-17 10q-13 12 -13 22q0 9 7 15.5t17 6.5q9 0 42 -20v1q25 -16 78 -49t78 -49q19 -12 29 -22q8 -13 8 -31q0 -24 -9 -32q-8 -11 -28 -24l-156 -99v1q-30 -18 -42 -18q-10 0 -17 6t-7 14q0 13 13 23l26 16q20 11 59 35.5
t43 26.5z" />
    <glyph glyph-name="question" unicode="?" 
d="M278 56q0 23 -16.5 40t-40.5 17q-23 0 -40 -17t-17 -40q0 -24 17 -41t40 -17q24 0 40.5 17t16.5 41zM250 215v84q0 43 26 61l18 13q1 1 7 5.5t14.5 10.5t14.5 11q42 39 42 94q0 58 -41 95t-106 37q-55 0 -114 -31q-29 -13 -29 -31q0 -9 5 -15.5t12 -6.5q9 0 33 11h-1
q53 27 92 27q46 0 76 -24t30 -62q0 -39 -47 -75q-57 -41 -65 -58q-11 -24 -11 -61v-85q0 -25 22 -25t22 25z" />
    <glyph glyph-name="at" unicode="@" 
d="M287 172v1q0 -52 50 -52q43 0 77 54q34 53 34 124q0 99 -61 161q-60 63 -154 63q-95 0 -163 -75q-66 -75 -66 -183q0 -110 66 -185t163 -75q61 0 107 15q48 16 48 35q0 12 -12 12q-10 0 -29 -8q-5 -2 -12.5 -4t-10.5 -3l-8 -2q-50 -12 -81 -12q-85 0 -142 64t-57 162
q0 96 58 160q58 66 140 66q80 0 131 -54q52 -52 52 -136q0 -59 -23 -103q-22 -43 -55 -43q-13 0 -21 10.5t-7 27.5q2 22 3 31l20 114q1 6 3 14.5t3 13.5t1 10t-4 7.5t-11 1.5q-13 -1 -19 -37q-25 49 -77 47q-50 -2 -83 -45t-33 -109q0 -53 26.5 -87t65.5 -34q53 0 81 53z
M233 359q27 0 43 -21t16 -58q0 -54 -23 -90t-57 -36q-28 0 -45.5 25t-17.5 64q0 48 24.5 82t59.5 34z" />
    <glyph glyph-name="A" unicode="A" 
d="M159 204l63 358l66 -358h-129zM181 608l-109 -577q-3 -12 2.5 -21t16.5 -11q12 -2 22 3.5t11 16.5l24 130h151l27 -129q3 -22 27 -22q3 0 5 1q10 1 16.5 11t4.5 21q-18 91 -58.5 288t-59.5 288q-3 23 -26 25h-26q-9 1 -17 -6t-11 -18z" />
    <glyph glyph-name="B" unicode="B" 
d="M152 364v202h35q27 0 59 -22.5t35 -56.5q1 -6 1 -22q0 -52 -36 -82q-30 -22 -94 -19zM152 57v251l32 1q6 -2 9 -2q25 -1 52 -19q50 -35 51 -112q-1 -37 -10.5 -61t-28.5 -35.5t-29 -14.5t-33 -7q-6 -1 -43 -1zM105 9v-1q8 -8 19 -8q54 0 74 1q21 0 46 9t50 28t41.5 54.5
t16.5 82.5v4q1 97 -74 158q59 53 59 128q0 18 -1 28q-9 63 -55 96t-94 33h-63q-11 0 -19 -8q-9 -9 -9 -20v-566q0 -13 9 -19z" />
    <glyph glyph-name="C" unicode="C" 
d="M228 -10h11q30 3 55 16.5t39.5 30.5t24.5 35t14 29t4 13q3 13 -1.5 23t-13.5 12q-13 4 -24.5 -2.5t-14.5 -18.5q-1 -4 -3 -10t-10 -21.5t-17.5 -27t-26 -20t-34.5 -7.5q-2 1 -6 1q-29 7 -50 33q-17 23 -32 82.5t-17 144.5q-1 9 -1 28q2 80 11 131.5t26 75t30.5 31.5
t37.5 13h11q26 0 51 -19q11 -11 17 -23l-1 1l5 -5q12 -25 35 -13q10 5 14 17t-1 21q-1 3 -5 9.5t-14 18t-22.5 21.5t-33 17.5t-43.5 7.5q-11 0 -19 -1q-68 -5 -112.5 -84t-39.5 -248q5 -184 57 -261q35 -48 99 -51z" />
    <glyph glyph-name="D" unicode="D" 
d="M149 57v516q70 -8 104 -48h-1q38 -40 45 -123q4 -56 4 -97q0 -13 -2 -59q-5 -102 -46 -151q-17 -19 -48 -29.5t-56 -8.5zM116 3l2 -1q2 -2 33 -2q92 0 144 59q52 63 60 184q2 22 2 62q0 41 -4 99q-8 107 -59 158q-32 36 -77 51.5t-78 15.5q-6 0 -13 -0.5t-9 -0.5
q-11 -2 -18 -10t-7 -18v-570q0 -23 24 -27z" />
    <glyph glyph-name="E" unicode="E" 
d="M168 303h104q11 0 19 7.5t8 17.5q0 12 -7.5 19.5t-18.5 8.5h-105v217l172 -1q11 0 19 8t8 18q0 12 -7.5 20.5t-18.5 8.5l-200 1q-11 0 -19 -8q-8 -7 -8 -20v-573q0 -11 7.5 -19t18.5 -8l202 -1q11 0 18.5 7.5t8.5 18.5q0 11 -8.5 18.5t-19.5 8.5q-28 0 -87.5 1t-85.5 1
v249z" />
    <glyph glyph-name="F" unicode="F" 
d="M152 293h102q15 0 22.5 8.5t7.5 20.5q0 13 -9 22t-20 9h-103v214l175 1q12 0 20.5 9t8.5 22q0 12 -9 21t-21 8l-203 -1q-11 0 -20 -8.5t-9 -21.5v-567q0 -13 8.5 -22t20.5 -9q13 0 21 8.5t8 22.5v263z" />
    <glyph glyph-name="G" unicode="G" 
d="M341 1q12 0 20 8t8 20l2 261q0 13 -8 21.5t-21 8.5h-91q-27 0 -29 -28q0 -11 8 -19t20 -8h62q4 -28 4 -82q2 -61 -15 -94q-16 -31 -67 -31h-4q-94 0 -96 242v7q1 60 8.5 107.5t19 75.5t26 46t26.5 24.5t23 6.5h7q37 -1 55 -23l-1 1q5 -6 10 -20q1 -11 11.5 -18.5
t21.5 -7.5q11 3 18 13t6 20q0 3 -2.5 11.5t-11 22.5t-21.5 26.5t-36.5 21.5t-52.5 9h-8q-71 -6 -112 -86.5t-42 -228.5v-8q0 -146 36 -221q17 -36 48 -57t66 -21h7q36 0 74 25q13 -25 31 -25z" />
    <glyph glyph-name="H" unicode="H" 
d="M326 -3q12 0 20.5 8.5t8.5 21.5l2 573q0 13 -9 21.5t-21 8.5t-20.5 -8.5t-8.5 -21.5l-1 -246h-146v246q0 13 -8.5 21.5t-20.5 8.5t-21 -8.5t-9 -21.5v-573q0 -13 9 -21.5t21 -8.5t20.5 8.5t8.5 21.5v278h146v-278q0 -13 8 -21.5t21 -8.5z" />
    <glyph glyph-name="I" unicode="I" 
d="M129 1h190q12 0 20.5 7t8.5 18q0 10 -9 17.5t-20 7.5h-67l1 526h67q11 0 19.5 7.5t8.5 18.5t-8 17.5t-20 6.5h-191q-12 0 -19.5 -6.5t-7.5 -17.5t8 -18.5t19 -7.5h68l-2 -526h-66q-11 0 -19 -7.5t-8 -17.5q0 -25 27 -25z" />
    <glyph glyph-name="J" unicode="J" 
d="M225 -6q45 0 77 15.5t46.5 40t20 45t5.5 39.5v464q0 14 -8.5 23t-21.5 9q-12 0 -20.5 -9.5t-8.5 -22.5v-465q-1 -11 -3.5 -22t-11 -27t-27.5 -25.5t-47 -10.5q-49 -1 -77 49q-5 8 -8.5 17.5t-4.5 15.5l-1 6q-2 13 -11.5 21t-22.5 7q-11 -2 -18 -12t-6 -23q0 -4 2.5 -15.5
t12 -33t24 -40t43.5 -32.5t66 -14z" />
    <glyph glyph-name="K" unicode="K" 
d="M181 312l119 -298q9 -18 27 -18q6 0 12 2q12 4 16.5 15.5t0.5 23.5q-97 226 -137 324q17 31 52.5 95t47.5 86l21 39q7 11 3.5 24t-13.5 18q-10 6 -22 2.5t-17 -14.5l-142 -262v250q0 13 -8.5 21.5t-20.5 8.5t-20.5 -8.5t-8.5 -21.5v-570q0 -13 8.5 -21.5t20.5 -8.5
t20.5 8.5t8.5 21.5v230q1 1 10.5 18t21.5 35z" />
    <glyph glyph-name="L" unicode="L" 
d="M123 0h203q12 0 21 8.5t9 20.5t-9 21.5t-21 9.5h-174v541q0 12 -8 20.5t-21 8.5q-11 0 -20 -8.5t-9 -20.5v-572q0 -12 10 -21h-1q8 -8 20 -8z" />
    <glyph glyph-name="M" unicode="M" 
d="M356 519l1 -490q2 -31 29 -31q11 0 19 9.5t8 22.5l-9 568q0 13 -8 22t-20 9h-19q-19 0 -25 -20l-108 -305l-98 306h1q-5 20 -26 20h-18q-12 0 -20 -8.5t-9 -21.5q-2 -95 -7.5 -284.5t-8.5 -283.5q-1 -14 6.5 -23t19.5 -10q12 0 19.5 9t8.5 22q2 56 5 235.5t6 253.5
l95 -295h-1q5 -19 26 -19q20 0 27 18z" />
    <glyph glyph-name="N" unicode="N" 
d="M326 1l9 -1q2 -1 4 -1q10 0 17 7q9 7 9 19l-2 571q0 11 -7.5 18.5t-18.5 7.5t-18.5 -8t-7.5 -18l2 -455l-169 466v-1q-6 21 -28 17l-11 -1q-20 -8 -20 -26l-1 -569q0 -11 7 -18.5t18 -7.5t18.5 7.5t7.5 18.5l2 459l169 -469q5 -15 20 -16z" />
    <glyph glyph-name="O" unicode="O" 
d="M226 576q47 1 75 -71q26 -62 26 -198v-7q0 -124 -30 -187q-28 -62 -70 -62h-5q-24 0 -44 19.5t-36.5 80t-17.5 157.5v10q0 126 26 191q28 66 76 67zM221 -9h6q42 0 73.5 26.5t49.5 69.5q35 83 35 213v4q-10 335 -161 330h-5q-43 -2 -74.5 -30.5t-47.5 -72.5
q-32 -83 -32 -216v-9q0 -144 40 -226t116 -89z" />
    <glyph glyph-name="P" unicode="P" 
d="M151 304v266q29 -1 50.5 -6t46 -17.5t37.5 -39t14 -66.5q0 -36 -12.5 -63t-27.5 -40t-40 -21.5t-36.5 -9.5t-31.5 -3zM93 596v-569q0 -13 8.5 -21.5t20.5 -8.5q13 0 21 8.5t8 21.5l1 222q72 0 122 30q36 21 59.5 63.5t22.5 104.5q-1 45 -17 79.5t-39 53t-52 30.5
t-51.5 15t-42.5 3q-11 0 -23.5 -1t-13.5 -1q-24 -4 -24 -30z" />
    <glyph glyph-name="Q" unicode="Q" 
d="M224 573q23 2 43.5 -16.5t33.5 -52.5q26 -57 26 -196v-7q1 -109 -31 -186q0 -1 -2 -4.5t-5.5 -12t-8.5 -22.5l-19 48q-3 11 -14.5 16.5t-22.5 1.5t-17 -15.5t-2 -22.5l5 -6q11 -22 24 -43q-110 13 -113 253v10q0 119 31 189q25 62 72 66zM307 -49h-1q13 -10 23 -10
q13 0 22 16v-1q7 23 -21 46q-1 1 -10 9.5t-14 15.5q25 23 45 64q36 85 36 210v4q0 71 -8 126.5t-25.5 103t-51.5 72.5t-82 24q-44 -2 -75.5 -30t-48.5 -72q-34 -85 -34 -211v-13q0 -141 40 -221.5t118 -87.5h6q-5 0 1 1q3 0 11 1l8 1h-1q8 2 18 2q1 -1 4 -6t3 -6
q9 -13 37 -38z" />
    <glyph glyph-name="R" unicode="R" 
d="M150 314l2 262q28 1 51 -3.5t45.5 -16.5t35.5 -38.5t14 -64.5q0 -35 -10.5 -61t-25 -40t-36.5 -23t-38.5 -11.5t-37.5 -3.5zM203 268l94 -258q5 -15 25 -15h6q12 4 18 16t2 23v-1q-16 39 -49.5 122.5t-48.5 122.5l20 10h-1q84 48 83 170q-1 42 -15.5 74.5t-35.5 50.5
t-48 29t-49 14.5t-42 2.5q-20 0 -44 -3q-9 -1 -15.5 -9.5t-6.5 -18.5v-575q0 -12 8 -20t19 -8t19 8t8 20v239q23 0 53 6z" />
    <glyph glyph-name="S" unicode="S" 
d="M225 -3q30 -1 50 7.5t45 29.5q44 43 44 108q0 15 -2 25q-12 56 -78 137q-20 22 -25 30q-13 17 -24 29q-27 34 -40 52t-27 48.5t-12 53.5q8 57 69 60q28 0 42 -15.5t29 -48.5q5 -11 15.5 -15.5t21.5 0.5t15 15.5t-1 21.5q-37 95 -122 95q-52 1 -88.5 -32t-36.5 -87
q0 -35 17 -73t30 -55t43 -53q16 -20 24 -28q32 -39 44.5 -55t29.5 -44.5t19 -46.5v-5q0 -1 0.5 -4t0.5 -5q0 -18 -8 -38t-17 -28q-31 -24 -58 -24q-24 -1 -50 18.5t-39 41.5q-5 10 -16 13t-21 -3q-9 -5 -12 -16.5t2 -21.5q54 -83 136 -87z" />
    <glyph glyph-name="T" unicode="T" 
d="M195 566v-537q0 -13 9.5 -22t21.5 -9q14 0 22.5 9t8.5 22v536h77q13 0 22.5 9.5t9.5 21.5q0 30 -31 32q-37 0 -110 0.5t-109 0.5q-13 0 -21.5 -9t-10.5 -23q0 -12 9 -21t22 -9z" />
    <glyph glyph-name="U" unicode="U" 
d="M221 -8h9q64 -2 94.5 40.5t30.5 96.5q0 2 0.5 4t0.5 3v462q0 12 -9.5 21t-21.5 9t-20.5 -8.5t-8.5 -21.5v-469q0 -1 -0.5 -4t-0.5 -5q-1 -15 -3 -24.5t-9 -22.5t-22.5 -20t-38.5 -7q-22 0 -37 9t-21.5 26.5t-8.5 28t-3 27.5v461q0 13 -8 21.5t-21 8.5q-11 0 -20 -9
t-9 -21v-453q0 -146 127 -153z" />
    <glyph glyph-name="V" unicode="V" 
d="M217 -4h19q21 0 28 23l114 571q4 11 -3 22t-18 13q-12 2 -22 -5t-12 -19l-96 -503l-101 503q-2 12 -12 19t-22 5q-10 -3 -17 -13.5t-5 -21.5q19 -90 60 -285t59 -286q7 -23 28 -23z" />
    <glyph glyph-name="W" unicode="W" 
d="M141 -5h7q16 0 23 20l56 239l54 -238q8 -20 24 -20h5q23 0 26 24q33 243 77 577q2 11 -5 21t-17 11t-18 -5.5t-10 -17.5l-61 -465l-49 218v-1q-6 22 -25 22q-18 0 -25 -21l-53 -219l-63 466q-6 26 -30 23q-10 -1 -16 -11t-4 -21l78 -578q1 -10 8.5 -17t17.5 -7z" />
    <glyph glyph-name="X" unicode="X" 
d="M92 580l100 -265l-118 -281q-3 -10 2 -20t15 -14q24 -8 38 16q15 38 49 125.5t41 104.5l79 -229v2q5 -11 16 -15.5t23 -0.5q11 3 16.5 13t1.5 21v-1q-17 45 -53 139t-54 139l118 282q4 9 -1.5 19t-15.5 14q-24 8 -38 -17q-5 -12 -39.5 -99.5t-48.5 -122.5l-81 221v-1
q-10 25 -39 16q-11 -3 -14.5 -16.5t3.5 -29.5z" />
    <glyph glyph-name="Y" unicode="Y" 
d="M190 269v-242q0 -13 8.5 -22t20.5 -9t20.5 9t8.5 22v241l118 320q3 12 -2 24.5t-16 16.5t-22 -1.5t-16 -18.5l1 1q-15 -47 -51.5 -157.5t-37.5 -112.5l-83 268l1 -1q-12 28 -40 20q-11 -4 -15.5 -16t-0.5 -25h-1q17 -52 53 -158.5t54 -158.5z" />
    <glyph glyph-name="Z" unicode="Z" 
d="M126 0h197q11 0 20 9t9 21q0 11 -9 20t-20 9h-156l185 526q5 14 -5 26q-7 13 -23 13h-177q-12 0 -20 -8.5t-8 -20.5t8 -21t20 -9h137l-186 -525q-5 -14 5 -27t23 -13z" />
    <glyph glyph-name="bracketleft" unicode="[" 
d="M244 -104v788q0 15 -9 42q31 -9 38 -9h19q33 0 33 30t-33 30h-56q-30 0 -41 -13.5t-11 -48.5v-850q0 -35 11 -48.5t41 -13.5h56q33 0 33 30t-33 30h-19q-11 0 -38 -8q9 26 9 41z" />
    <glyph glyph-name="backslash" unicode="\" 
d="M376 -76l-3 -2q-6 -6 -18 -8q-12 1 -18 6q-7 4 -11 20q-3 10 -23.5 74.5t-56 175t-62.5 195.5l-117 366q-4 11 1.5 21t16.5 13q10 4 20.5 -3t15.5 -21q2 0 129 -401q66 -204 89 -281q10 -30 30 -92q1 -5 3 -11t4 -11.5t3 -7.5v-1l6 -13l-4 6q3 -12 -1 -18q-4 -2 -4 -6
l1 1zM374 -81l2 5v-2l-1 -1q-1 -1 -1 -2z" />
    <glyph glyph-name="bracketright" unicode="]" 
d="M264 684q0 15 9 42q-31 -9 -38 -9h-19q-33 0 -33 30t33 30h56q30 0 41 -13.5t11 -48.5v-850q0 -35 -11 -48.5t-41 -13.5h-56q-33 0 -33 30t33 30h19q11 0 38 -8q-9 26 -9 41v788z" />
    <glyph glyph-name="asciicircum" unicode="^" 
d="M226 664l50 -82l63 -102q3 -5 5.5 -10t4.5 -8t3.5 -5t1.5 -3l1 -1q11 -12 21 -12t16 6.5t6 16.5q0 11 -20 42h1q-11 17 -45 71.5t-52 84.5q-14 21 -23 30q-12 7 -31 7q-24 0 -32 -8q-7 -5 -24 -29l-98 -156h1q-19 -29 -19 -42q0 -10 6 -16.5t15 -6.5q10 0 22 12
q7 11 16 27q38 63 63 102q2 2 5.5 9t5.5 10q4 8 18.5 31.5t18.5 31.5z" />
    <glyph glyph-name="underscore" unicode="_" 
d="M28 -185h395q11 0 19 8t8 20q0 11 -8 19t-19 8h-395q-11 0 -19.5 -8t-8.5 -19q0 -12 8.5 -20t19.5 -8z" />
    <glyph glyph-name="grave" unicode="`" 
d="M301 629l-126 136q-21 -34 -28 -46q89 -90 132 -133q3 5 10.5 20z" />
    <glyph glyph-name="a" unicode="a" 
d="M231 201q47 8 69 8v-116q-7 -12 -18 -23q-18 -18 -54 -21q-2 0 -5 -0.5t-5 -0.5h-8q-19 3 -29.5 6.5t-21 19.5t-10.5 44q1 37 20.5 56t61.5 27zM133 21q33 -27 79 -27h13q32 5 74 28q4 -14 12 -22t18 -8q12 1 20.5 6.5t7.5 16.5l-1 321q0 35 -20 63q-31 43 -103 43
q-37 0 -67 -16.5t-39.5 -28.5t-13.5 -19q-5 -11 -2 -22t13 -16q11 -6 22 -3t16 13t16 17q21 19 55 19q29 -1 44.5 -8.5t18 -14.5t3.5 -18v-71q-1 -2 -1 -12q-6 -2 -35 -7q-75 -10 -105 -26q-63 -32 -66 -109v-5q0 -62 41 -94z" />
    <glyph glyph-name="b" unicode="b" 
d="M139 81l-11 13q-1 45 -1 238q37 47 91 46q62 -2 83 -43t22 -120q0 -28 -4.5 -52t-14 -50t-30.5 -41.5t-50 -16.5q-50 -1 -85 26zM70 568l1 -539q0 -13 8 -22t20 -9q18 0 30 25q48 -29 95 -29q12 0 20 1h-2q134 20 137 204q2 95 -21 159q-17 36 -53.5 59t-86.5 19
q-40 -2 -92 -37v169q0 13 -8 22t-20 9t-20 -9t-8 -22z" />
    <glyph glyph-name="c" unicode="c" 
d="M106 83q14 -37 46 -62.5t77 -25.5q34 1 61 13.5t41 29t22.5 35.5t11 29t2.5 13q1 12 -6 20.5t-18 10.5q-11 1 -20 -6t-11 -19q0 -1 -2 -7l1 2q-2 -9 -5.5 -17.5t-12 -21t-25 -20t-39.5 -6.5q-28 1 -43 13t-29 41q-19 45 -19 120q0 62 17 102q15 30 30 42.5t44 13.5
q40 0 61 -27v1q7 -8 15 -33q1 -8 11 -12.5t21 -2.5q26 7 21 33q0 3 -3 12t-12 24t-22.5 28.5t-37.5 23.5t-54 10h-5q-44 -2 -75.5 -28.5t-45.5 -62.5q-21 -56 -21 -124q0 -86 24 -142z" />
    <glyph glyph-name="d" unicode="d" 
d="M317 344l-2 -264q-40 -31 -89 -31q-96 0 -96 167q0 161 99 166q19 1 45.5 -10.5t42.5 -27.5zM203 -8q9 -1 21 -1q47 0 91 28q15 -25 28 -25q28 0 28 31l1 546q0 31 -26 31q-12 0 -19.5 -9t-7.5 -22l-1 -169q-52 37 -90 37q-55 0 -91.5 -34t-51 -82t-14.5 -104
q-1 -21 1.5 -48t12.5 -69.5t40.5 -73t77.5 -36.5z" />
    <glyph glyph-name="e" unicode="e" 
d="M307 257l-163 3q5 44 13 64v-1q20 59 68 62q21 0 34 -6t17.5 -12t13.5 -22q15 -32 17 -88zM214 -2h13q30 0 54.5 11.5t39.5 29t21 27.5t10 18q11 22 -13 34q-9 6 -19.5 3.5t-15.5 -10.5l-8 -12l1 1q-30 -52 -81 -46q-20 3 -34 17.5t-26 44.5q-12 39 -14 94h192
q11 0 19 7.5t9 19.5q0 1 0.5 8.5t0.5 13.5q0 62 -21 105q-15 32 -46.5 53.5t-77.5 19.5q-45 -2 -74 -30.5t-41 -64.5q-15 -42 -17 -125q0 -67 17 -118q12 -38 39.5 -68t71.5 -33z" />
    <glyph glyph-name="f" unicode="f" 
d="M225 384h66q11 0 19.5 7.5t8.5 18.5q0 10 -8.5 17t-19.5 7h-66v71q0 23 8 41q1 0 2 2t2 3l-1 -1q10 13 30 14q22 0 50 -11q11 -5 22.5 0t15.5 15q5 12 0.5 23.5t-16.5 15.5q-40 15 -71 15q-31 1 -55 -15t-33 -39q-12 -21 -12 -58v-75l-46 1q-12 0 -20 -7t-9 -18
q0 -22 29 -26h46v-358q0 -13 8.5 -21t19.5 -8q13 0 21.5 8t8.5 21v357z" />
    <glyph glyph-name="g" unicode="g" 
d="M309 351v-256q-10 -24 -41.5 -37t-49.5 -9q-32 9 -53 46q-24 48 -24 122q2 52 8 84.5t18 48.5t21 21.5t27 10.5l-1 -1q1 1 4.5 2t4.5 1h7q29 0 57 -16q11 -6 22 -17zM220 -6h5q54 0 84 38q0 -5 0.5 -27.5t0.5 -28.5v-16q-2 -32 -6.5 -51t-17 -27.5t-20 -10.5t-30.5 -5
q-29 0 -48 7q-4 2 -12 6.5t-11 6.5q-13 20 -37 10q-9 -4 -13 -15t0 -20q19 -26 47 -36.5t75 -14.5q51 0 88 34q41 36 41 119q0 11 -0.5 193t-0.5 230v22q0 10 -8.5 18t-19.5 9q-12 -2 -20 -12l1 1q0 -1 -5 -6t-5 -6q-1 1 -9 5t-10 6q-25 16 -59 17h-11q-57 -1 -96.5 -57.5
t-37.5 -162.5v-4q1 -83 34.5 -147.5t100.5 -74.5z" />
    <glyph glyph-name="h" unicode="h" 
d="M297 325v-298q0 -12 8.5 -20.5t21.5 -8.5q12 0 21.5 8.5t9.5 20.5v308q0 38 -15 59q-16 23 -38.5 35.5t-67.5 9.5q-46 -7 -86 -33v191q0 14 -8.5 23t-21.5 9q-12 0 -21 -9.5t-9 -22.5v-570q0 -12 9 -20.5t21 -8.5q13 0 21.5 8.5t8.5 20.5v308q38 47 88 48q29 1 44 -18.5
t14 -39.5z" />
    <glyph glyph-name="i" unicode="i" 
d="M267 575q0 22 -15 37.5t-37 15.5t-38 -15.5t-16 -37.5t16 -37.5t38 -15.5t37 15.5t15 37.5zM131 0h188q27 0 27 24q0 10 -8 17t-19 7h-63v357q0 11 -8 19t-20 8h-78q-12 0 -20.5 -7.5t-8.5 -18.5q0 -25 29 -25h52v-333h-71q-11 0 -19.5 -7t-8.5 -17q0 -24 28 -24z" />
    <glyph glyph-name="j" unicode="j" 
d="M355 565q0 21 -15 36t-36 15q-20 0 -34.5 -15t-14.5 -36t14.5 -35.5t34.5 -14.5q21 0 36 14.5t15 35.5zM223 -178q77 -6 114 50q15 24 18 82v452q0 12 -10 20q-8 8 -19 8h-153q-12 0 -20 -8.5t-8 -19.5q0 -12 8 -20t20 -8h125v-425q-1 -3 -1 -12q-1 -18 -5 -29t-21 -22
t-48 -11q-38 0 -91 18v-1q-25 7 -36 -16q-4 -11 2 -21.5t16 -15.5q66 -21 109 -21z" />
    <glyph glyph-name="k" unicode="k" 
d="M305 11q7 -13 25 -13q6 0 16 4l-1 -1q25 15 11 42l-133 212l116 140q15 24 -4 40q-9 8 -21 7t-20 -9q-3 -3 -15.5 -18.5t-17.5 -21.5q-97 -118 -113 -140l1 346q1 13 -6.5 21.5t-19.5 8.5t-21.5 -8.5t-9.5 -20.5l-1 -572q0 -12 9 -20.5t21 -8.5q11 0 19 8.5t8 20.5v143
q24 30 35 41z" />
    <glyph glyph-name="l" unicode="l" 
d="M137 0h177q12 0 19.5 7t7.5 19q0 10 -8 17.5t-19 7.5h-62v542q0 10 -9 19t-19 9h-83q-12 0 -20.5 -7.5t-8.5 -18.5q0 -10 8.5 -16.5t20.5 -6.5h57v-521h-61q-12 0 -20.5 -7.5t-8.5 -17.5q0 -12 8.5 -19t20.5 -7z" />
    <glyph glyph-name="m" unicode="m" 
d="M369 -3q28 1 28 28v279q0 44 -1 53q-4 35 -27 56t-54 21q-39 -2 -74 -43q-31 45 -69 45q-29 -2 -65 -27q-4 14 -12.5 25t-16.5 11q-11 0 -19 -8.5t-8 -19.5l2 -395q0 -12 8 -20t19 -8t19 8t8 20l-1 242q2 6 2 56q-1 71 50 69q6 0 13.5 -2.5t17 -16t10.5 -35.5
q1 -12 1 -54q-1 -5 -1 -254q0 -12 8 -20t19 -8t18.5 8t7.5 20q1 141 1 237v64q0 35 16 49t32.5 11.5t24.5 -10.5l4 -4v1q8 -8 10.5 -14.5t3.5 -26.5v-19q0 -5 0.5 -23t0.5 -31q0 -51 -0.5 -140t-0.5 -92v-4q0 -12 7.5 -20t17.5 -8z" />
    <glyph glyph-name="n" unicode="n" 
d="M296 334v-307q0 -12 8 -20.5t21 -8.5q11 0 20 8.5t9 20.5v303q0 32 -16 61q-11 21 -36 35.5t-56 13.5h-9q-36 -4 -80 -31q-13 25 -31 25q-12 0 -21 -8.5t-9 -19.5l-1 -380q0 -13 8.5 -21t20.5 -8t20.5 8t8.5 21l1 316q10 16 27.5 28.5t33.5 14.5q39 6 60 -12t21 -39z" />
    <glyph glyph-name="o" unicode="o" 
d="M226 379q52 0 72 -53q18 -40 18 -107v-7q0 -64 -19 -104q-12 -28 -27 -40.5t-45 -15.5q-27 1 -41.5 13t-29.5 40q-21 47 -19 101v4q0 65 16 113q13 29 28 41t47 15zM102 80q15 -36 46 -61t76 -25q49 1 81.5 27.5t46.5 63.5q20 50 20 126v8q0 78 -19 129q-14 37 -46.5 64
t-77.5 25h-4q-49 0 -83 -28t-47 -68q-15 -43 -18 -121v-14q0 -68 25 -126z" />
    <glyph glyph-name="p" unicode="p" 
d="M132 84v115v142q34 37 93 37q91 0 91 -157q-1 -84 -24.5 -119.5t-63.5 -46.5h-13q-44 0 -83 29zM75 381l-1 -525q0 -13 8.5 -22t21.5 -9q11 0 18.5 9t7.5 22v169l22 -12q47 -16 62 -17q4 0 16 2q60 2 102.5 60.5t41.5 167.5q0 209 -151 214q-37 1 -88 -31q-16 22 -33 22
q-29 -5 -27 -50z" />
    <glyph glyph-name="q" unicode="q" 
d="M315 343l2 -7q0 -59 2 -249q-42 -31 -85 -31q-9 0 -13 1q-16 5 -23 7.5t-23 14t-23.5 27t-15 45.5t-7.5 71q1 62 23.5 108t75.5 47q22 3 47.5 -8t39.5 -26zM215 -1q7 -1 18 -1q45 1 86 31l1 -172q0 -13 7.5 -21.5t18.5 -8.5q14 0 23 9t9 22v538q2 12 -5 22.5t-19 12.5
q-16 3 -34 -21q-40 25 -91 30q-6 0 -13 -1q-46 -5 -77.5 -30t-44.5 -62t-17.5 -66t-4.5 -59q-4 -106 39.5 -162.5t103.5 -60.5z" />
    <glyph glyph-name="r" unicode="r" 
d="M135 405v-382q0 -12 8 -20t19 -8q12 0 20 8t8 20v276q0 41 29.5 63.5t64.5 19.5q22 -2 39 -20q7 -8 19 -8t20 8q19 21 0 40q-33 34 -79 34q-45 -2 -90 -36q-10 33 -31 33q-11 0 -19 -8.5t-8 -19.5z" />
    <glyph glyph-name="s" unicode="s" 
d="M230 -4h5q57 0 92 36.5t33 82.5v4q-1 30 -13 53t-33.5 38t-37 22.5t-38.5 15.5q-49 20 -65.5 33.5t-16.5 43.5q7 58 73 59q38 0 61 -18q3 -2 7.5 -6.5t6.5 -5.5q8 -11 19.5 -14.5t21.5 2.5q11 6 13 18.5t-5 23.5q-4 7 -14 17.5t-41 24.5t-69 14q-57 1 -92.5 -34
t-36.5 -78v-7q0 -29 11 -51.5t33 -37.5t36.5 -21.5t38.5 -15.5q25 -11 31.5 -13.5t21.5 -11t18.5 -14.5t8 -17t4.5 -25q-2 -31 -15.5 -44t-56.5 -19q-32 0 -66 22q-12 7 -22 19l-4 2q-18 21 -41 5q-8 -7 -8.5 -19t7.5 -22q56 -61 133 -62z" />
    <glyph glyph-name="t" unicode="t" 
d="M115 385h46v-282q0 -37 13 -60q8 -19 29 -33t48 -14q-1 0 0 1h16q47 6 83 39q8 8 8 20t-8 19q-8 8 -20 8t-20 -8h1q-5 -6 -25.5 -15t-25.5 -8h-6q-22 2 -30 14l-1 2q-1 2 -2 2q-7 11 -7 37l2 278h104q11 0 18 7t7 18q0 10 -7.5 17t-17.5 7h-104l2 149q0 11 -9 19.5
t-20 8.5t-19 -8t-8 -19l-1 -150h-46q-10 0 -17.5 -7t-7.5 -17q0 -11 7.5 -18t17.5 -7z" />
    <glyph glyph-name="u" unicode="u" 
d="M201 -5h1q4 -1 9 -1q7 0 13.5 0.5t11.5 1t10 2t8 2t8 2.5t7 3t6.5 4l6 4t7 4.5t7.5 4.5q14 -22 30 -22q12 0 20.5 9t8.5 21l-1 379q-1 12 -9.5 21t-20.5 9t-20.5 -9t-8.5 -21l2 -326l-8 -7q-8 -7 -15 -12t-21.5 -10.5t-31.5 -6.5h-6q-27 3 -45 24t-18 50v287
q0 12 -8.5 20t-20.5 8t-20.5 -8.5t-8.5 -19.5l3 -294q0 -5 0.5 -12t6 -26t15.5 -34.5t31.5 -29.5t50.5 -17z" />
    <glyph glyph-name="v" unicode="v" 
d="M210 -2h26q19 0 29 22q17 62 53.5 190.5t53.5 189.5v-1q3 12 -2.5 22.5t-17.5 14.5h1q-13 4 -24.5 -2t-13.5 -18l-91 -342l-89 341q-3 12 -13.5 18.5t-23.5 2.5q-11 -2 -17 -13t-3 -24v1q17 -63 51.5 -190t51.5 -190q5 -22 29 -22z" />
    <glyph glyph-name="w" unicode="w" 
d="M147 -2q11 0 17.5 3t8 5.5t3.5 9.5q7 29 26 102.5t21 80.5l51 -183h-1q8 -21 30 -18q22 2 25 24l69 377q2 12 -4.5 22t-17.5 13q-11 2 -21.5 -5t-11.5 -18l-47 -310l-45 157q-7 21 -28 19q-21 0 -27 -20v1l-42 -157l-46 311q-3 11 -13 17.5t-20 4.5q-11 -2 -17.5 -12
t-4.5 -23l70 -379q3 -20 25 -22z" />
    <glyph glyph-name="x" unicode="x" 
d="M103 2v1q8 -4 14 -4q17 0 26 14h-1q31 62 84 165l81 -166v1q9 -15 26 -15q7 0 15 4q10 6 13 18t-3 23l-99 176l96 166q6 11 3 24t-13 19q-11 7 -22.5 3.5t-17.5 -14.5v1q-13 -27 -44.5 -88t-34.5 -66l-77 156v-1q-5 11 -16.5 14.5t-22.5 -3.5q-23 -13 -11 -41
q4 -6 40 -71t54 -98l-101 -175q-7 -10 -3.5 -23t14.5 -20z" />
    <glyph glyph-name="y" unicode="y" 
d="M64 -224q1 -13 10.5 -21.5t22.5 -9.5q27 3 50.5 15.5t36 25t23 30t12.5 23t4 11.5h-1q26 91 78.5 272.5t78.5 271.5q5 13 0.5 24.5t-16.5 15.5q-12 5 -24 -2t-15 -20l-85 -285l-106 287q-4 12 -16 18t-24 1q-12 -4 -16 -17t0 -27q22 -59 69 -185t69 -185l-46 -148l-1 -3
q-2 -4 -3 -6.5t-3.5 -7.5t-5 -8.5t-6 -8t-7.5 -8t-9.5 -7t-11 -6t-12.5 -4t-15 -1.5q-13 -1 -22 -11t-9 -24z" />
    <glyph glyph-name="z" unicode="z" 
d="M120 0h209q12 0 20.5 8t8.5 20q0 11 -9 19.5t-20 8.5h-163l174 337v-1q7 15 -3 32q-5 10 -21 10h-183q-11 0 -19 -8.5t-8 -19.5q0 -12 8 -20t19 -8h137l-175 -338q-7 -13 1 -27q6 -13 24 -13z" />
    <glyph glyph-name="braceleft" unicode="{" 
d="M195 315q23 14 31 20.5t17.5 28t9.5 57.5v146q0 79 49 92q4 1 14 3t14 3q8 8 8 14q0 19 -31 19q-59 0 -80 -34q-17 -27 -17 -93v-146q0 -65 -37 -84q-15 -6 -15 -29q0 -15 15 -24q37 -19 37 -84v-147q0 -76 22 -99q22 -27 78 -27q28 0 28 18q0 16 -19 18q-36 3 -51 25
t-15 70v145q0 43 -12.5 68t-45.5 40z" />
    <glyph glyph-name="bar" unicode="|" 
d="M189 709v-799q0 -11 8.5 -19t19.5 -8t19.5 8t8.5 19v799q0 12 -8.5 20.5t-19.5 8.5t-19.5 -8.5t-8.5 -20.5z" />
    <glyph glyph-name="braceright" unicode="}" 
d="M225 62v145q0 74 53 107q-53 24 -53 107v146q0 81 -49 92q-4 1 -14 3t-14 3q-8 8 -8 14q0 19 31 19q58 0 79 -34q18 -30 18 -93v-146q0 -65 37 -84q15 -6 15 -29q0 -15 -15 -24q-37 -19 -37 -84v-147q0 -76 -22 -99q-22 -27 -78 -27q-28 0 -28 18q0 16 19 18q36 3 51 25
t15 70z" />
    <glyph glyph-name="asciitilde" unicode="~" 
d="M429 419l-22 24q-42 -101 -91 -101q-13 0 -85 42q-68 40 -100 40q-48 0 -74 -42q-9 -12 -37 -86q1 -1 23 -26l3 6q39 75 38 75q20 28 49 28q24 0 95 -43q62 -40 87 -40q69 0 114 123z" />
    <glyph glyph-name="exclamdown" unicode="&#xa1;" 
d="M163 667q0 -24 17 -41t41 -17q23 0 40 17t17 41t-17 41t-40 17q-24 0 -41 -17t-17 -41zM248 26v472q0 12 -8.5 20t-19.5 8t-19.5 -8t-8.5 -20v-472q0 -12 8.5 -20.5t19.5 -8.5t19.5 8.5t8.5 20.5z" />
    <glyph glyph-name="brokenbar" unicode="&#xa6;" 
d="M239 478v210h-28v-210h28zM239 124v218h-28v-218h28z" />
    <glyph glyph-name="section" unicode="&#xa7;" 
d="M265 153l-131 106q-31 26 -31 52q0 39 46 78q20 17 68 34l100 -78q49 -39 49 -74q0 -53 -101 -118zM204 147l87 -70q42 -32 42 -67q0 -26 -28.5 -48.5t-68.5 -25.5q-34 -1 -55 4q-23 6 -67 34v-1q-14 6 -19 5q-17 -2 -17 -21q0 -17 34 -36q63 -34 123 -29
q61 5 101.5 40.5t40.5 83.5q0 43 -80 114q111 76 111 151q0 43 -57 93h1q-13 10 -46 37q-21 15 -61.5 44.5t-55.5 40.5q-34 28 -34 59q0 25 25.5 48.5t59.5 26.5q43 2 79 -19q27 -14 32 -13q8 0 14 7t6 16q0 20 -38 38q-41 18 -94 13q-55 -5 -90 -40q-37 -36 -37 -82
q0 -26 15 -49t56 -54q-58 -26 -91 -64t-33 -78q0 -29 26 -60t88 -77l-1 1q16 -8 32 -22z" />
    <glyph glyph-name="guillemotleft" unicode="&#xab;" 
d="M126 297l81 107q9 9 9 24q0 29 -20 29q-9 0 -27 -23l-82 -106q-30 -36 -30 -53t30 -54l82 -106q18 -23 28 -23q19 0 19 29q0 16 -9 25l-81 106q-10 13 -26 23q18 12 26 22zM303 297l83 107q9 12 9 24q0 29 -20 29q-9 0 -29 -23q-20 -27 -81 -106q-30 -38 -30 -53t30 -54
l81 -106q21 -23 29 -23q20 0 20 29q0 13 -9 25l-83 106q-7 10 -22 23q17 14 22 22z" />
    <glyph glyph-name="minus" unicode="&#xad;" 
d="M92 238h266q11 0 19.5 8t8.5 20q0 11 -8.5 19t-19.5 8h-266q-11 0 -20 -8t-9 -19q0 -12 8.5 -20t20.5 -8z" />
    <glyph glyph-name="overscore" unicode="&#xaf;" 
d="M92 238h266q11 0 19.5 8t8.5 20q0 11 -8.5 19t-19.5 8h-266q-11 0 -20 -8t-9 -19q0 -12 8.5 -20t20.5 -8z" />
    <glyph glyph-name="plusminus" unicode="&#xb1;" 
d="M246 583l4 -1h-1q-1 1 -2 1h-1zM260 218v-2l1 3zM92 67h266q11 0 19.5 8t8.5 20q0 11 -8.5 19t-19.5 8h-266q-11 0 -20 -8t-9 -19q0 -12 8.5 -20t20.5 -8zM67 366h138v-145q0 -5 2 -9l10 -9q2 -2 9 -5h-1h2h6q7 0 15 4q1 0 3 2l3 3q2 2 4 6v3l2 2v2v2q1 2 1 3v141h127
q11 0 19 8.5t8 19.5q0 12 -8 20t-19 8h-127v136l-3 12l-1 3v-1l-6 8l-1 1q-2 0 -4 2q-5 0 -7 1q-5 0 -7 2h-2q-8 -1 -14 -6l-5 -6q-2 -3 -3 -4l-2 -4v-1q-1 -1 -1 -2v-141h-138q-11 0 -19.5 -8t-8.5 -20q0 -11 8.5 -19.5t19.5 -8.5z" />
    <glyph glyph-name="acute" unicode="&#xb4;" 
d="M295 721l-25 43q-66 -71 -119 -129l4 -8t6 -11.5t5 -10.5q28 24 129 116z" />
    <glyph glyph-name="mu" unicode="&#xb5;" 
d="M202 -5q4 -1 9 -1q44 1 85 28q14 -22 30 -22q12 0 20.5 9t8.5 21l-1 379q-1 12 -9.5 21t-20.5 9t-20.5 -9t-8.5 -21l1 -312q0 -8 -5.5 -19.5t-23.5 -23.5t-46 -12h-6q-32 2 -52 41q-4 10 -7 27l-1 2l-3 296q0 12 -8.5 20t-20.5 8t-20.5 -8.5t-8.5 -19.5l3 -294v-343
q0 -11 8.5 -19t19.5 -8q12 0 20 8t8 19v242q1 -1 10.5 -5t10.5 -4q12 -6 28 -9z" />
    <glyph glyph-name="paragraph" unicode="&#xb6;" 
d="M416 675v46h-182q-91 0 -145.5 -53.5t-54.5 -143.5q0 -71 38 -135q41 -70 107 -66l27 1v-448h38v799h102v-799h38v799h32z" />
    <glyph glyph-name="guillemotright" unicode="&#xbb;" 
d="M66 404q-9 12 -9 24q0 29 20 29q9 0 29 -23l81 -106q30 -38 30 -53t-30 -54q-61 -79 -81 -106q-21 -23 -29 -23q-20 0 -20 29q0 13 9 25l83 106q7 10 22 23q-17 14 -22 22zM245 404q-9 9 -9 24q0 29 20 29q9 0 27 -23l82 -106q30 -36 30 -53t-30 -54l-82 -106
q-18 -23 -28 -23q-19 0 -19 29q0 16 9 25q20 27 81 106q8 10 26 23q-17 11 -26 22z" />
    <glyph glyph-name="questiondown" unicode="&#xbf;" 
d="M176 568q0 -24 16.5 -40.5t40.5 -16.5q23 0 40 16.5t17 40.5t-17 41t-40 17q-24 0 -40.5 -17t-16.5 -41zM204 409v-84q0 -43 -26 -61l-18 -13l-17 -13q-2 -1 -5.5 -3t-6 -3.5t-3.5 -1.5q-46 -49 -46 -100q0 -59 41 -95.5t106 -36.5q54 0 113 31q30 13 30 31q0 8 -5 14.5
t-12 6.5q-11 0 -33 -10h1q-50 -27 -92 -27q-46 0 -76 24t-30 62q0 37 47 75q57 41 65 57q11 26 11 62v85q0 24 -22 24t-22 -24z" />
    <glyph glyph-name="Agrave" unicode="&#xc0;" 
d="M171 782l110 -78q9 -5 20.5 -3t17.5 10q15 22 -7 39q-18 13 -54.5 39t-54.5 39q-9 8 -20.5 5.5t-18.5 -12.5q-16 -21 7 -39zM159 204l63 358l66 -358h-129zM181 608l-109 -577q-3 -12 2.5 -21t16.5 -11q12 -2 22 3.5t11 16.5l24 130h151l27 -129q3 -22 27 -22q3 0 5 1
q10 1 16.5 11t4.5 21q-18 91 -58.5 288t-59.5 288q-3 23 -26 25h-26q-9 1 -17 -6t-11 -18z" />
    <glyph glyph-name="Aacute" unicode="&#xc1;" 
d="M257 818l-116 -67v1q-10 -5 -13 -16.5t3 -22.5q15 -20 38 -10q19 11 58 33.5t58 34.5q10 5 14 15t-1 17q-6 12 -18.5 16.5t-22.5 -1.5zM159 204l63 358l66 -358h-129zM181 608l-109 -577q-3 -12 2.5 -21t16.5 -11q12 -2 22 3.5t11 16.5l24 130h151l27 -129q3 -22 27 -22
q3 0 5 1q10 1 16.5 11t4.5 21q-18 91 -58.5 288t-59.5 288q-3 23 -26 25h-26q-9 1 -17 -6t-11 -18z" />
    <glyph glyph-name="Acircumflex" unicode="&#xc2;" 
d="M129 671l94 60l86 -67q8 -4 19 -2.5t15 8.5q7 11 5.5 22t-10.5 18q-16 13 -101 77q-18 12 -31 -1l-102 -65q-22 -16 -12 -34q6 -13 17 -17.5t20 1.5zM159 204l63 358l66 -358h-129zM181 608l-109 -577q-3 -12 2.5 -21t16.5 -11q12 -2 22 3.5t11 16.5l24 130h151l27 -129
q3 -22 27 -22q3 0 5 1q10 1 16.5 11t4.5 21q-18 91 -58.5 288t-59.5 288q-3 23 -26 25h-26q-9 1 -17 -6t-11 -18z" />
    <glyph glyph-name="Atilde" unicode="&#xc3;" 
d="M133 756q-27 -29 -27 -35t6.5 -10.5t14.5 -4.5q11 0 19 8v-1q29 27 42 26q11 -2 24 -7q59 -28 70 -28q15 0 41 29q22 23 22 36q0 14 -20 14q-13 0 -26 -15q-16 -18 -32 -18q-19 0 -52 18h1q-36 15 -41 15q-13 -3 -42 -27zM159 204l63 358l66 -358h-129zM181 608
l-109 -577q-3 -12 2.5 -21t16.5 -11q12 -2 22 3.5t11 16.5l24 130h151l27 -129q3 -22 27 -22q3 0 5 1q10 1 16.5 11t4.5 21q-18 91 -58.5 288t-59.5 288q-3 23 -26 25h-26q-9 1 -17 -6t-11 -18z" />
    <glyph glyph-name="Adieresis" unicode="&#xc4;" 
d="M179 733q0 19 -13 32t-31 13t-31 -13t-13 -32t13 -32t31 -13t31 13t13 32zM354 733q0 19 -13 32t-32 13q-18 0 -31 -13t-13 -32t13 -32t31 -13q19 0 32 13t13 32zM159 204l63 358l66 -358h-129zM181 608l-109 -577q-3 -12 2.5 -21t16.5 -11q12 -2 22 3.5t11 16.5l24 130
h151l27 -129q3 -22 27 -22q3 0 5 1q10 1 16.5 11t4.5 21q-18 91 -58.5 288t-59.5 288q-3 23 -26 25h-26q-9 1 -17 -6t-11 -18z" />
    <glyph glyph-name="Aring" unicode="&#xc5;" 
d="M260 733q0 19 -13 32t-31 13q-19 0 -32 -13t-13 -32t13 -32t32 -13q18 0 31 13t13 32zM159 204l63 358l66 -358h-129zM181 608l-109 -577q-3 -12 2.5 -21t16.5 -11q12 -2 22 3.5t11 16.5l24 130h151l27 -129q3 -22 27 -22q3 0 5 1q10 1 16.5 11t4.5 21q-18 91 -58.5 288
t-59.5 288q-3 23 -26 25h-26q-9 1 -17 -6t-11 -18z" />
    <glyph glyph-name="AE" unicode="&#xc6;" 
d="M103 204l111 336l3 -46l7 -143q1 -22 3.5 -73t3.5 -74h-128zM278 282h85q11 0 18.5 7.5t6.5 17.5q-1 12 -9 20.5t-19 9.5h-86l-5 88q-1 23 -4 77.5t-4 79.5l136 -1q10 0 17.5 7.5t6.5 16.5q0 13 -8.5 22t-19.5 9h-158q-6 0 -16 -4q-10 1 -20.5 -7t-15.5 -18
q-31 -93 -96.5 -289t-96.5 -289q-4 -11 0.5 -20t14.5 -10q11 -2 21 4t14 18l44 128h150l7 -122v-8q3 -21 23 -21q3 0 5 1l6 1h154q11 0 18 7.5t8 19.5q-1 22 -29 28q-21 0 -68.5 0.5t-68.5 0.5z" />
    <glyph glyph-name="Ccedilla" unicode="&#xc7;" 
d="M206 -170h-1q12 -4 15 -4q14 0 25 15l-1 -1q43 85 49 162q30 16 50.5 44t26.5 45.5t6 22.5q3 13 -1.5 23t-13.5 12q-13 4 -24.5 -2.5t-14.5 -18.5q-1 -4 -3 -10t-10 -21.5t-17.5 -27t-26 -20t-34.5 -7.5q-2 1 -6 1q-29 7 -50 33q-17 23 -32 82.5t-17 144.5q-1 9 -1 28
q2 80 11 131.5t26 75t30.5 31.5t37.5 13h11q26 0 51 -19q11 -11 17 -23l-1 1l5 -5q12 -25 35 -13q10 5 14 17t-1 21q-1 3 -5 9.5t-14 18t-22.5 21.5t-33 17.5t-43.5 7.5q-11 0 -19 -1q-68 -5 -112.5 -84t-39.5 -248q5 -184 57 -261q35 -49 110 -52q-9 -55 -38 -116l-3 -7
q-5 -9 -3 -20t11 -16z" />
    <glyph glyph-name="Egrave" unicode="&#xc8;" 
d="M171 782l109 -78q9 -5 21 -3t17 10q15 22 -6 39q-18 13 -54.5 39t-54.5 39q-10 8 -21 5.5t-18 -12.5q-8 -9 -5.5 -20.5t12.5 -18.5zM175 303h104q11 0 19 7.5t8 17.5q0 12 -7.5 19.5t-18.5 8.5h-105v217l172 -1q11 0 19 8t8 18q0 12 -7.5 20.5t-18.5 8.5l-200 1
q-11 0 -19 -8q-8 -7 -8 -20v-573q0 -11 7.5 -19t18.5 -8l202 -1q11 0 18.5 7.5t8.5 18.5q0 11 -8.5 18.5t-19.5 8.5q-28 0 -87.5 1t-85.5 1v249z" />
    <glyph glyph-name="Eacute" unicode="&#xc9;" 
d="M273 818l-116 -67v1q-10 -5 -13 -16.5t3 -22.5q15 -20 38 -10q12 7 53 31t63 37q10 5 13 16t-3 21v1q-5 8 -16.5 11t-21.5 -2zM167 303h104q11 0 19 7.5t8 17.5q0 12 -7.5 19.5t-18.5 8.5h-105v217l172 -1q11 0 19 8t8 18q0 12 -7.5 20.5t-18.5 8.5l-200 1q-11 0 -19 -8
q-8 -7 -8 -20v-573q0 -11 7.5 -19t18.5 -8l202 -1q11 0 18.5 7.5t8.5 18.5q0 11 -8 18t-19 9q-28 0 -87.5 1t-86.5 1v249z" />
    <glyph glyph-name="Ecircumflex" unicode="&#xca;" 
d="M142 715l94 60l87 -67q7 -4 18 -2.5t16 8.5q15 23 -6 41q-77 59 -100 77q-19 11 -31 -1l-103 -66q-22 -15 -12 -34q7 -13 17.5 -17.5t19.5 1.5zM160 303h104q11 0 19 7.5t8 17.5q0 12 -7.5 19.5t-18.5 8.5h-105v217l172 -1q11 0 19 8t8 18q0 12 -7.5 20.5t-18.5 8.5
l-200 1q-11 0 -19 -8q-8 -7 -8 -20v-573q0 -11 7.5 -19t18.5 -8l202 -1q11 0 18.5 7.5t8.5 18.5q0 11 -8.5 18.5t-19.5 8.5q-28 0 -87.5 1t-85.5 1v249z" />
    <glyph glyph-name="Edieresis" unicode="&#xcb;" 
d="M193 752q0 19 -13 32.5t-31 13.5t-31 -13.5t-13 -32.5q0 -18 13 -31.5t31 -13.5t31 13.5t13 31.5zM368 752q0 19 -13 32.5t-32 13.5q-18 0 -31 -13.5t-13 -32.5q0 -18 13 -31.5t31 -13.5q19 0 32 13.5t13 31.5zM170 303h104q11 0 19 7.5t8 17.5q0 12 -7.5 19.5t-18.5 8.5
h-105v217l172 -1q11 0 19 8t8 18q0 12 -7.5 20.5t-18.5 8.5l-200 1q-11 0 -19 -8q-7 -7 -7 -20v-573q0 -11 7.5 -19t17.5 -8l202 -1q11 0 18.5 7.5t8.5 18.5q0 11 -8.5 18.5t-19.5 8.5q-28 0 -87 1t-86 1v249z" />
    <glyph glyph-name="Igrave" unicode="&#xcc;" 
d="M172 782l109 -78q9 -5 20.5 -3t17.5 10q15 22 -6 39q-18 12 -55 39t-55 39q-9 8 -20.5 5.5t-18.5 -12.5q-16 -22 8 -39zM129 1h190q12 0 20.5 7t8.5 18q0 10 -9 17.5t-20 7.5h-67l1 526h67q11 0 19.5 7.5t8.5 18.5t-8 17.5t-20 6.5h-191q-12 0 -19.5 -6.5t-7.5 -17.5
t8 -18.5t19 -7.5h68l-2 -526h-66q-11 0 -19 -7.5t-8 -17.5q0 -25 27 -25z" />
    <glyph glyph-name="Iacute" unicode="&#xcd;" 
d="M273 818l-116 -67v1q-9 -5 -12 -16.5t3 -22.5q6 -9 17.5 -11.5t20.5 1.5q19 11 57.5 33.5t57.5 34.5q11 5 14 16t-4 21v1q-14 21 -38 9zM129 1h190q12 0 20.5 7t8.5 18q0 10 -9 17.5t-20 7.5h-67l1 526h67q11 0 19.5 7.5t8.5 18.5t-8 17.5t-20 6.5h-191q-12 0 -19.5 -6.5
t-7.5 -17.5t8 -18.5t19 -7.5h68l-2 -526h-66q-11 0 -19 -7.5t-8 -17.5q0 -25 27 -25z" />
    <glyph glyph-name="Icircumflex" unicode="&#xce;" 
d="M142 715l94 60l87 -67q7 -4 18 -2.5t16 8.5q15 23 -6 41q-77 59 -100 77q-19 11 -31 -1l-103 -66q-22 -15 -12 -34q7 -13 17.5 -17.5t19.5 1.5zM135 1h190q12 0 20 6.5t8 18.5q0 10 -8.5 17.5t-19.5 7.5h-67l1 526h67q11 0 19 7.5t8 18.5t-7.5 17.5t-19.5 6.5h-191
q-12 0 -20 -6.5t-8 -17.5t8.5 -18.5t19.5 -7.5h68l-2 -526h-66q-11 0 -19.5 -7.5t-8.5 -17.5q0 -12 8 -18.5t20 -6.5z" />
    <glyph glyph-name="Idieresis" unicode="&#xcf;" 
d="M193 752q0 19 -13 32.5t-30 13.5q-19 0 -32 -13.5t-13 -32.5q0 -18 13 -31.5t32 -13.5q17 0 30 13.5t13 31.5zM368 752q0 19 -13 32.5t-32 13.5q-18 0 -31 -13.5t-13 -32.5q0 -18 13 -31.5t31 -13.5q19 0 32 13.5t13 31.5zM134 1h189q29 0 29 25q0 10 -8.5 17.5
t-20.5 7.5h-66l1 526h67q11 0 19 7.5t8 18.5t-7.5 17.5t-19.5 6.5h-191q-12 0 -20 -6.5t-8 -17.5t8.5 -18.5t19.5 -7.5h68l-2 -526h-66q-11 0 -19.5 -7.5t-8.5 -17.5q0 -12 8 -18.5t20 -6.5z" />
    <glyph glyph-name="Ntilde" unicode="&#xd1;" 
d="M133 756q-27 -29 -27 -35t6.5 -10.5t14.5 -4.5q11 0 19 8v-1q29 27 42 26q11 -2 24 -7q59 -28 70 -28q15 0 41 29q22 23 22 36q0 14 -20 14q-13 0 -26 -15q-16 -18 -32 -18q-19 0 -52 18h1q-36 15 -41 15q-13 -3 -42 -27zM326 1l9 -1q2 -1 4 -1q10 0 17 7q9 7 9 19
l-2 571q0 11 -7.5 18.5t-18.5 7.5t-18.5 -8t-7.5 -18l2 -393l-19 -3l-150 407v-1q-6 21 -28 17l-11 -1q-20 -8 -20 -26l-1 -569q0 -11 7 -18.5t18 -7.5t18.5 7.5t7.5 18.5l2 396l18 3l151 -409q5 -15 20 -16z" />
    <glyph glyph-name="Ograve" unicode="&#xd2;" 
d="M155 782l109 -78q9 -5 21 -3t17 10q15 22 -6 39q-18 13 -54.5 39t-54.5 39q-9 8 -20.5 5.5t-18.5 -12.5q-16 -21 7 -39zM226 576q47 1 75 -71q26 -62 26 -198v-7q0 -124 -30 -187q-28 -62 -70 -62h-5q-24 0 -44 19.5t-36.5 80t-17.5 157.5v10q0 126 26 191q28 66 76 67z
M221 -9h6q42 0 73.5 26.5t49.5 69.5q35 83 35 213v4q-10 335 -161 330h-5q-43 -2 -74.5 -30.5t-47.5 -72.5q-32 -83 -32 -216v-9q0 -144 40 -226t116 -89z" />
    <glyph glyph-name="Oacute" unicode="&#xd3;" 
d="M263 818l-116 -67v1q-10 -5 -13 -16.5t4 -22.5q13 -20 38 -10q19 11 57.5 33.5t57.5 34.5q10 5 13 16t-3 21v1q-5 8 -16.5 11t-21.5 -2zM226 576q47 1 75 -71q26 -62 26 -198v-7q0 -124 -30 -187q-28 -62 -70 -62h-5q-24 0 -44 19.5t-36.5 80t-17.5 157.5v10
q0 126 26 191q28 66 76 67zM221 -9h6q42 0 73.5 26.5t49.5 69.5q35 83 35 213v4q-10 335 -161 330h-5q-43 -2 -74.5 -30.5t-47.5 -72.5q-32 -83 -32 -216v-9q0 -144 40 -226t116 -89z" />
    <glyph glyph-name="Ocircumflex" unicode="&#xd4;" 
d="M134 684l94 59l87 -67q7 -4 18 -2.5t16 8.5q15 23 -6 41q-85 64 -101 77q-18 11 -30 -1l-103 -66q-22 -15 -12 -34q7 -13 17.5 -17.5t19.5 2.5zM226 576q47 1 75 -71q26 -62 26 -198v-7q0 -124 -30 -187q-28 -62 -70 -62h-5q-24 0 -44 19.5t-36.5 80t-17.5 157.5v10
q0 126 26 191q28 66 76 67zM221 -9h6q42 0 73.5 26.5t49.5 69.5q35 83 35 213v4q-10 335 -161 330h-5q-43 -2 -74.5 -30.5t-47.5 -72.5q-32 -83 -32 -216v-9q0 -144 40 -226t116 -89z" />
    <glyph glyph-name="Otilde" unicode="&#xd5;" 
d="M133 756q-27 -29 -27 -35t6.5 -10.5t14.5 -4.5q11 0 19 8v-1q29 27 42 26q11 -2 24 -7q59 -28 70 -28q15 0 41 29q22 23 22 36q0 14 -20 14q-13 0 -26 -15q-16 -18 -32 -18q-19 0 -52 18h1q-36 15 -41 15q-13 -3 -42 -27zM226 576q47 1 75 -71q26 -62 26 -198v-7
q0 -124 -30 -187q-28 -62 -70 -62h-5q-24 0 -44 19.5t-36.5 80t-17.5 157.5v10q0 126 26 191q28 66 76 67zM221 -9h6q42 0 73.5 26.5t49.5 69.5q35 83 35 213v4q-10 335 -161 330h-5q-43 -2 -74.5 -30.5t-47.5 -72.5q-32 -83 -32 -216v-9q0 -144 40 -226t116 -89z" />
    <glyph glyph-name="Odieresis" unicode="&#xd6;" 
d="M179 733q0 19 -13 32t-31 13t-31 -13t-13 -32t13 -32t31 -13t31 13t13 32zM354 733q0 19 -13 32t-32 13q-18 0 -31 -13t-13 -32t13 -32t31 -13q19 0 32 13t13 32zM226 576q47 1 75 -71q26 -62 26 -198v-7q0 -124 -30 -187q-28 -62 -70 -62h-5q-24 0 -44 19.5t-36.5 80
t-17.5 157.5v10q0 126 26 191q28 66 76 67zM221 -9h6q42 0 73.5 26.5t49.5 69.5q35 83 35 213v4q-10 335 -161 330h-5q-43 -2 -74.5 -30.5t-47.5 -72.5q-32 -83 -32 -216v-9q0 -144 40 -226t116 -89z" />
    <glyph glyph-name="multiply" unicode="&#xd7;" 
d="M103 2v1q8 -4 14 -4q17 0 26 14h-1q31 62 84 165l81 -166v1q9 -15 26 -15q7 0 15 4q10 6 13 18t-3 23l-99 176l96 166q6 11 3 24t-13 19q-11 7 -22.5 3.5t-17.5 -14.5v1q-13 -27 -44.5 -88t-34.5 -66l-77 156v-1q-5 11 -16.5 14.5t-22.5 -3.5q-23 -13 -11 -41
q4 -6 40 -71t54 -98l-101 -175q-7 -10 -3.5 -23t14.5 -20z" />
    <glyph glyph-name="Oslash" unicode="&#xd8;" 
d="M222 576q53 -2 75 -71q3 -6 6 -15l-1 1l5 -15q-28 -40 -84 -115q-15 -20 -50.5 -68.5t-45.5 -61.5q-3 45 -3 77v10q0 126 26 191q16 36 32 50.5t40 16.5zM227 51h-5q-54 7 -85 93q5 7 29.5 41t37.5 52q9 12 27.5 37.5t25.5 34.5q4 6 10.5 15.5t7.5 10.5v-1q8 9 27 36.5
t21 30.5q4 -76 4 -94v-7q0 -124 -30 -187q-28 -62 -70 -62zM438 586l-1 2q-4 7 -18 12q-9 2 -18 -1q-7 -1 -10 -9q-4 -6 -16 -22q-2 -2 -13 -16.5t-15 -19.5q-36 100 -117 102h-11q-43 -2 -74.5 -30.5t-47.5 -72.5q-32 -83 -32 -216v-9q0 -88 13 -144l-56 -77q-7 -9 -5 -20
t11 -19q21 -16 39 6l30 40q38 -93 124 -101h6q42 0 73.5 26.5t48.5 69.5q35 80 35 213v4q-4 94 -17 160q1 2 5 8t6 8q4 5 15.5 21t19.5 26q7 10 17 23l1 1q1 1 1 2l3 5l2 2q5 9 3 17q0 1 -0.5 3t-0.5 4q-1 1 -1 2z" />
    <glyph glyph-name="Ugrave" unicode="&#xd9;" 
d="M167 782l109 -78q10 -5 21.5 -3t17.5 10q15 22 -7 39q-18 13 -54.5 39t-54.5 39q-9 8 -20.5 5.5t-18.5 -12.5q-16 -21 7 -39zM221 -8h9q64 -2 94.5 40.5t30.5 96.5q0 2 0.5 4t0.5 3v462q0 12 -9.5 21t-21.5 9t-20.5 -8.5t-8.5 -21.5v-469q0 -1 -0.5 -4t-0.5 -5
q-1 -15 -3 -24.5t-9 -22.5t-22.5 -20t-38.5 -7q-22 0 -37 9t-21.5 26.5t-8.5 28t-3 27.5v461q0 13 -8 21.5t-21 8.5q-11 0 -20 -9t-9 -21v-453q0 -146 127 -153z" />
    <glyph glyph-name="Uacute" unicode="&#xda;" 
d="M281 818l-117 -67v1q-9 -5 -12 -16.5t3 -22.5q6 -9 17.5 -11.5t20.5 1.5q19 11 57.5 33.5t57.5 34.5q10 5 13.5 16t-2.5 21v1q-6 8 -17 11t-21 -2zM221 -8h9q64 -2 94.5 40.5t30.5 96.5q0 2 0.5 4t0.5 3v462q0 12 -9.5 21t-21.5 9t-20.5 -8.5t-8.5 -21.5v-469
q0 -1 -0.5 -4t-0.5 -5q-1 -15 -3 -24.5t-9 -22.5t-22.5 -20t-38.5 -7q-22 0 -37 9t-21.5 26.5t-8.5 28t-3 27.5v461q0 13 -8 21.5t-21 8.5q-11 0 -20 -9t-9 -21v-453q0 -146 127 -153z" />
    <glyph glyph-name="Ucircumflex" unicode="&#xdb;" 
d="M143 715l93 60l87 -67q7 -4 18 -2.5t16 8.5q15 23 -5 41q-85 64 -101 77q-19 11 -31 -1l-103 -66q-22 -16 -11 -34q6 -13 16.5 -17.5t20.5 1.5zM221 -8h9q64 -2 94.5 40.5t30.5 96.5q0 2 0.5 4t0.5 3v462q0 12 -9.5 21t-21.5 9t-20.5 -8.5t-8.5 -21.5v-469q0 -1 -0.5 -4
t-0.5 -5q-1 -15 -3 -24.5t-9 -22.5t-22.5 -20t-38.5 -7q-22 0 -37 9t-21.5 26.5t-8.5 28t-3 27.5v461q0 13 -8 21.5t-21 8.5q-11 0 -20 -9t-9 -21v-453q0 -146 127 -153z" />
    <glyph glyph-name="Udieresis" unicode="&#xdc;" 
d="M181 755q0 18 -13 31.5t-30 13.5q-19 0 -32 -13.5t-13 -31.5q0 -19 13 -32.5t32 -13.5q17 0 30 13.5t13 32.5zM356 755q0 18 -13 31.5t-32 13.5q-18 0 -31 -13.5t-13 -31.5q0 -19 13 -32.5t31 -13.5q19 0 32 13.5t13 32.5zM221 -8h9q64 -2 94.5 40.5t30.5 96.5q0 2 0.5 4
t0.5 3v462q0 12 -9.5 21t-21.5 9t-20.5 -8.5t-8.5 -21.5v-469q0 -1 -0.5 -4t-0.5 -5q-1 -15 -3 -24.5t-9 -22.5t-22.5 -20t-38.5 -7q-22 0 -37 9t-21.5 26.5t-8.5 28t-3 27.5v461q0 13 -8 21.5t-21 8.5q-11 0 -20 -9t-9 -21v-453q0 -146 127 -153z" />
    <glyph glyph-name="germandbls" unicode="&#xdf;" 
d="M216 -7l28 -2q54 0 91 32q53 46 53 146q0 74 -22.5 128t-65.5 74q63 53 64 115q3 52 -33 93t-99 42q-56 0 -98.5 -44t-42.5 -108v-450q0 -11 8 -19t20 -8q11 0 18.5 8t7.5 19v450q0 43 27.5 71t59.5 27q39 -1 58.5 -25t19.5 -56q0 -36 -37 -71l-39 -31q-8 -5 -11.5 -14
t0.5 -17q6 -19 36 -17q0 -4 -3 -4q77 -12 79 -163q-2 -39 -9.5 -64.5t-22 -37.5t-24.5 -15.5t-27 -6.5q-4 -1 -6 -1q-4 0 -11 0.5t-8 0.5q-11 2 -20 -3.5t-11 -16.5t3.5 -20.5t16.5 -11.5z" />
    <glyph glyph-name="agrave" unicode="&#xe0;" 
d="M290 641l-116 -67v1q-10 -5 -13 -16.5t3 -22.5q15 -20 38 -10q19 11 58 34t58 34q10 5 14 15t-1 17q-6 12 -18.5 16.5t-22.5 -1.5zM231 201q47 8 69 8v-116q-7 -12 -18 -23q-18 -18 -54 -21q-2 0 -5 -0.5t-5 -0.5h-8q-19 3 -29.5 6.5t-21 19.5t-10.5 44q1 37 20.5 56
t61.5 27zM133 21q33 -27 79 -27h13q32 5 74 28q4 -14 12 -22t18 -8q12 1 20.5 6.5t7.5 16.5l-1 321q0 35 -20 63q-31 43 -103 43q-37 0 -67 -16.5t-39.5 -28.5t-13.5 -19q-5 -11 -2 -22t13 -16q11 -6 22 -3t16 13t16 17q21 19 55 19q29 -1 44.5 -8.5t18 -14.5t3.5 -18v-71
q-1 -2 -1 -12q-6 -2 -35 -7q-75 -10 -105 -26q-63 -32 -66 -109v-5q0 -62 41 -94z" />
    <glyph glyph-name="aacute" unicode="&#xe1;" 
d="M290 641l-116 -67v1q-10 -5 -13 -16.5t3 -22.5q15 -20 38 -10q19 11 58 34t58 34q10 5 14 15t-1 17q-6 12 -18.5 16.5t-22.5 -1.5zM231 201q47 8 69 8v-116q-7 -12 -18 -23q-18 -18 -54 -21q-2 0 -5 -0.5t-5 -0.5h-8q-19 3 -29.5 6.5t-21 19.5t-10.5 44q1 37 20.5 56
t61.5 27zM133 21q33 -27 79 -27h13q32 5 74 28q4 -14 12 -22t18 -8q12 1 20.5 6.5t7.5 16.5l-1 321q0 35 -20 63q-31 43 -103 43q-37 0 -67 -16.5t-39.5 -28.5t-13.5 -19q-5 -11 -2 -22t13 -16q11 -6 22 -3t16 13t16 17q21 19 55 19q29 -1 44.5 -8.5t18 -14.5t3.5 -18v-71
q-1 -2 -1 -12q-6 -2 -35 -7q-75 -10 -105 -26q-63 -32 -66 -109v-5q0 -62 41 -94z" />
    <glyph glyph-name="acircumflex" unicode="&#xe2;" 
d="M152 523l93 60l87 -67q7 -4 18.5 -2.5t15.5 8.5q7 10 5 21.5t-10 18.5q-16 13 -101 77q-19 11 -31 -1l-103 -66q-22 -16 -11 -34q6 -12 16.5 -16.5t20.5 1.5zM231 201q47 8 69 8v-116q-7 -12 -18 -23q-18 -18 -54 -21q-2 0 -5 -0.5t-5 -0.5h-8q-19 3 -29.5 6.5t-21 19.5
t-10.5 44q1 37 20.5 56t61.5 27zM133 21q33 -27 79 -27h13q32 5 74 28q4 -14 12 -22t18 -8q12 1 20.5 6.5t7.5 16.5l-1 321q0 35 -20 63q-31 43 -103 43q-37 0 -67 -16.5t-39.5 -28.5t-13.5 -19q-5 -11 -2 -22t13 -16q11 -6 22 -3t16 13t16 17q21 19 55 19q29 -1 44.5 -8.5
t18 -14.5t3.5 -18v-71q-1 -2 -1 -12q-6 -2 -35 -7q-75 -10 -105 -26q-63 -32 -66 -109v-5q0 -62 41 -94z" />
    <glyph glyph-name="atilde" unicode="&#xe3;" 
d="M176 614q-13 -3 -43 -28q-27 -29 -27 -35q0 -5 6.5 -10t14.5 -5q11 0 19 9v-1q29 26 42 25q11 -2 24 -7q62 -28 70 -28q14 0 41 29q22 25 22 36q0 6 -6 10.5t-14 4.5q-12 0 -26 -16q-15 -17 -32 -17q-21 0 -52 17h1q-10 4 -18.5 7.5t-14.5 6t-7 2.5zM231 201q47 8 69 8
v-116q-7 -12 -18 -23q-18 -18 -54 -21q-2 0 -5 -0.5t-5 -0.5h-8q-19 3 -29.5 6.5t-21 19.5t-10.5 44q1 37 20.5 56t61.5 27zM133 21q33 -27 79 -27h13q32 5 74 28q4 -14 12 -22t18 -8q12 1 20.5 6.5t7.5 16.5l-1 321q0 35 -20 63q-31 43 -103 43q-37 0 -67 -16.5
t-39.5 -28.5t-13.5 -19q-5 -11 -2 -22t13 -16q11 -6 22 -3t16 13t16 17q21 19 55 19q29 -1 44.5 -8.5t18 -14.5t3.5 -18v-71q-1 -2 -1 -12q-6 -2 -35 -7q-75 -10 -105 -26q-63 -32 -66 -109v-5q0 -62 41 -94z" />
    <glyph glyph-name="adieresis" unicode="&#xe4;" 
d="M199 556q0 19 -13 32t-30 13q-19 0 -31.5 -13t-12.5 -32t12.5 -32t31.5 -13q17 0 30 13t13 32zM374 556q0 19 -13 32t-31 13q-19 0 -32 -13t-13 -32t13 -32t32 -13q18 0 31 13t13 32zM231 201q47 8 69 8v-116q-7 -12 -18 -23q-18 -18 -54 -21q-2 0 -5 -0.5t-5 -0.5h-8
q-19 3 -29.5 6.5t-21 19.5t-10.5 44q1 37 20.5 56t61.5 27zM133 21q33 -27 79 -27h13q32 5 74 28q4 -14 12 -22t18 -8q12 1 20.5 6.5t7.5 16.5l-1 321q0 35 -20 63q-31 43 -103 43q-37 0 -67 -16.5t-39.5 -28.5t-13.5 -19q-5 -11 -2 -22t13 -16q11 -6 22 -3t16 13t16 17
q21 19 55 19q29 -1 44.5 -8.5t18 -14.5t3.5 -18v-71q-1 -2 -1 -12q-6 -2 -35 -7q-75 -10 -105 -26q-63 -32 -66 -109v-5q0 -62 41 -94z" />
    <glyph glyph-name="aring" unicode="&#xe5;" 
d="M297 559q0 23 -17 39.5t-40 16.5q-22 0 -38.5 -16.5t-16.5 -39.5t16.5 -40t38.5 -17q23 0 40 17t17 40zM231 201q47 8 69 8v-116q-7 -12 -18 -23q-18 -18 -54 -21q-2 0 -5 -0.5t-5 -0.5h-8q-19 3 -29.5 6.5t-21 19.5t-10.5 44q1 37 20.5 56t61.5 27zM133 21
q33 -27 79 -27h13q32 5 74 28q4 -14 12 -22t18 -8q12 1 20.5 6.5t7.5 16.5l-1 321q0 35 -20 63q-31 43 -103 43q-37 0 -67 -16.5t-39.5 -28.5t-13.5 -19q-5 -11 -2 -22t13 -16q11 -6 22 -3t16 13t16 17q21 19 55 19q29 -1 44.5 -8.5t18 -14.5t3.5 -18v-71q-1 -2 -1 -12
q-6 -2 -35 -7q-75 -10 -105 -26q-63 -32 -66 -109v-5q0 -62 41 -94z" />
    <glyph glyph-name="ae" unicode="&#xe6;" 
d="M387 257h-142l1 8v9q5 38 8 49q19 59 61 62q17 0 27.5 -6t15.5 -12.5t13 -21.5l-2 1q1 0 2 -2l1 -2q13 -43 15 -85zM136 201l-1 -1q2 0 6.5 1t6.5 2q2 0 6.5 2t13.5 3t28 1q0 -20 1 -26v-89q-5 -13 -12 -20q-2 -2 -2 -3q-15 -18 -49 -22q-2 0 -5 -0.5t-4 -0.5h-7
q-14 3 -20 5.5t-15.5 9.5t-13.5 20.5t-4 34.5q1 36 18 55.5t53 27.5zM304 -2h12q17 0 32.5 5.5t25.5 13.5t19.5 18.5t13.5 18.5t9 16l4 9q11 26 -10 40q-16 12 -29 -10l-5 -10q-7 -16 -12.5 -24.5t-21 -16.5t-37.5 -4q-33 6 -52 62q-7 23 -11 64v30h165q20 0 23 26
q0 1 0.5 9t0.5 14q0 61 -18 105q-31 76 -105 73q-42 -3 -75 -48q-36 53 -94 53q-30 0 -55 -15.5t-33.5 -27t-13.5 -20.5q-10 -25 9 -40q8 -5 17 -1.5t14 12.5q0 6 12 17v-1q20 20 50 20q25 -1 38.5 -8.5t15.5 -14.5t3 -18q0 -5 1 -7v-60q-1 -3 -1 -14q-14 -7 -30 -10
q-134 -18 -147 -134v-5q0 -61 36 -95q27 -26 65 -26h11q31 6 65 30q6 -32 25 -32q18 2 25 35q30 -26 58 -29z" />
    <glyph glyph-name="ccedilla" unicode="&#xe7;" 
d="M168 -163h-1q12 -4 15 -4q15 0 24 16l-1 -1q35 61 48 150q45 8 73 38.5t34.5 50.5t6.5 28q1 12 -6 20.5t-18 10.5q-11 1 -20 -6t-11 -18q0 -4 -2 -8l1 2q-2 -9 -5.5 -17.5t-12 -21t-25 -20t-39.5 -6.5q-28 1 -43 13t-29 41q-19 45 -19 120q0 62 17 102q15 30 30 42.5
t44 13.5q40 0 61 -27v1q7 -8 15 -33q1 -8 11 -12.5t21 -2.5q26 7 21 33q0 3 -3 12t-12 24t-22.5 28.5t-37.5 23.5t-54 10h-5q-44 -2 -75.5 -28.5t-45.5 -62.5q-21 -56 -21 -124q0 -87 24 -143q24 -63 96 -84q-10 -61 -39 -118v1l-3 -8q-13 -22 8 -36z" />
    <glyph glyph-name="egrave" unicode="&#xe8;" 
d="M172 599l109 -78q9 -5 20.5 -3t17.5 10q7 9 4.5 20.5t-10.5 18.5q-55 39 -110 77q-9 8 -20 6.5t-19 -12.5q-7 -9 -4.5 -20.5t12.5 -18.5zM307 257l-163 3q5 44 13 64v-1q20 59 68 62q21 0 34 -6t17.5 -12t13.5 -22q15 -32 17 -88zM214 -2h13q30 0 54.5 11.5t39.5 29
t21 27.5t10 18q11 22 -13 34q-9 6 -19.5 3.5t-15.5 -10.5l-8 -12l1 1q-30 -52 -81 -46q-20 3 -34 17.5t-26 44.5q-12 39 -14 94h192q9 0 17.5 7t10.5 19q0 1 0.5 9t0.5 14q0 62 -21 105q-15 32 -46.5 53.5t-77.5 19.5q-45 -2 -74 -30.5t-41 -64.5q-15 -42 -17 -125
q0 -67 17 -118q12 -38 39.5 -68t71.5 -33z" />
    <glyph glyph-name="eacute" unicode="&#xe9;" 
d="M290 641l-116 -67v1q-10 -5 -13 -16.5t3 -22.5q15 -20 38 -10q19 11 58 34t58 34q10 5 13 16t-3 21v1q-5 8 -16.5 11t-21.5 -2zM307 257l-163 3q5 44 13 64v-1q20 59 68 62q21 0 34 -6t17.5 -12t13.5 -22q15 -32 17 -88zM214 -2h13q30 0 54.5 11.5t39.5 29t21 27.5t10 18
q11 22 -13 34q-9 6 -19.5 3.5t-15.5 -10.5l-8 -12l1 1q-30 -52 -81 -46q-20 3 -34 17.5t-26 44.5q-12 39 -14 94h192q11 0 19 7.5t9 19.5q0 1 0.5 8.5t0.5 13.5q0 62 -21 105q-15 32 -46.5 53.5t-77.5 19.5q-45 -2 -74 -30.5t-41 -64.5q-15 -42 -17 -125q0 -67 17 -118
q12 -38 39.5 -68t71.5 -33z" />
    <glyph glyph-name="ecircumflex" unicode="&#xea;" 
d="M152 523l93 60l87 -67q7 -4 18.5 -2.5t15.5 8.5q7 10 5 21.5t-10 18.5q-16 13 -101 77q-19 11 -31 -1l-103 -66q-22 -16 -11 -34q6 -12 16.5 -16.5t20.5 1.5zM317 257l-163 3q5 44 13 64v-1q20 59 68 62q21 0 34 -6t17.5 -12t13.5 -22q15 -32 17 -88zM224 -2h13
q30 0 54.5 11.5t39.5 29t21 27.5t10 18q11 22 -13 34q-9 6 -19.5 3.5t-15.5 -10.5l-8 -12l1 1q-30 -52 -81 -46q-20 3 -34 17.5t-26 44.5q-12 39 -14 94h192q9 0 17.5 7t10.5 19q0 1 0.5 9t0.5 14q0 62 -21 105q-15 32 -46.5 53.5t-77.5 19.5q-45 -2 -74 -30.5t-41 -64.5
q-15 -42 -17 -125q0 -67 17 -118q12 -38 39.5 -68t71.5 -33z" />
    <glyph glyph-name="edieresis" unicode="&#xeb;" 
d="M189 556q0 19 -13 32t-30 13q-19 0 -32 -13t-13 -32t13 -32t32 -13q17 0 30 13t13 32zM364 556q0 19 -13 32t-31 13q-19 0 -32 -13t-13 -32t13 -32t32 -13q18 0 31 13t13 32zM307 257l-163 3q5 44 13 64v-1q20 59 68 62q21 0 34 -6t17.5 -12t13.5 -22q15 -32 17 -88z
M214 -2h13q80 0 124 84q1 1 1 2q11 22 -13 34q-9 6 -19.5 3.5t-15.5 -10.5l-8 -12l1 1q-30 -52 -81 -46q-39 6 -60 62q-12 39 -14 94h192q10 0 18.5 7.5t9.5 19.5q0 1 0.5 8.5t0.5 13.5q0 62 -21 105q-15 32 -46.5 53.5t-77.5 19.5q-45 -2 -74 -30.5t-41 -64.5
q-15 -42 -17 -125q0 -67 17 -118q12 -38 39.5 -68t71.5 -33z" />
    <glyph glyph-name="igrave" unicode="&#xec;" 
d="M123 599l109 -78q10 -5 21.5 -3t16.5 10q7 9 5 20.5t-11 18.5q-79 56 -109 77q-9 8 -20.5 6.5t-18.5 -12.5q-7 -9 -5 -20.5t12 -18.5zM131 0h188q27 0 27 24q0 10 -8 17t-19 7h-63v357q0 11 -8 19t-20 8h-78q-12 0 -20.5 -7.5t-8.5 -18.5q0 -25 29 -25h52v-333h-71
q-11 0 -19.5 -7t-8.5 -17q0 -24 28 -24z" />
    <glyph glyph-name="iacute" unicode="&#xed;" 
d="M290 641l-116 -67v1q-10 -5 -13 -16.5t3 -22.5q15 -20 38 -10q19 11 58 34t58 34q10 5 13 16t-3 21v1q-5 8 -16.5 11t-21.5 -2zM131 0h188q27 0 27 24q0 10 -8 17t-19 7h-63v357q0 11 -8 19t-20 8h-78q-12 0 -20.5 -7.5t-8.5 -18.5q0 -25 29 -25h52v-333h-71
q-11 0 -19.5 -7t-8.5 -17q0 -24 28 -24z" />
    <glyph glyph-name="icircumflex" unicode="&#xee;" 
d="M126 523l94 60l87 -67q7 -4 18 -2.5t16 8.5q7 10 5 21.5t-11 18.5q-18 14 -52 40t-48 37q-19 11 -31 -1l-103 -66q-22 -14 -12 -34q7 -12 17.5 -16.5t19.5 1.5zM132 0h187q28 0 28 24q0 10 -8.5 17t-19.5 7h-63v357q0 11 -8 19t-20 8h-78q-11 0 -20 -8t-9 -18
q0 -11 8.5 -18t20.5 -7h53v-333h-71q-12 0 -20.5 -7t-8.5 -17q0 -24 29 -24z" />
    <glyph glyph-name="idieresis" unicode="&#xef;" 
d="M177 556q0 19 -13 32t-30 13q-19 0 -32 -13t-13 -32t13 -32t32 -13q17 0 30 13t13 32zM352 556q0 19 -13 32t-32 13q-18 0 -31 -13t-13 -32t13 -32t31 -13q19 0 32 13t13 32zM131 0h188q28 0 28 24q0 10 -8.5 17t-19.5 7h-63v357q0 11 -8 19t-20 8h-78q-11 0 -20 -8
t-9 -18q0 -11 8.5 -18t20.5 -7h52v-333h-71q-11 0 -19.5 -7t-8.5 -17q0 -24 28 -24z" />
    <glyph glyph-name="ntilde" unicode="&#xf1;" 
d="M133 586q-27 -29 -27 -35q0 -5 6.5 -10t14.5 -5q11 0 19 9v-1q29 26 42 25q11 -2 24 -7q62 -28 70 -28q14 0 41 29q22 25 22 36q0 6 -6 10.5t-14 4.5q-12 0 -26 -16q-15 -17 -32 -17q-21 0 -52 17h1q-38 16 -41 16q-13 -4 -42 -28zM296 334v-307q0 -12 8 -20.5t21 -8.5
q11 0 20 8.5t9 20.5v303q0 32 -16 61q-11 21 -36 35.5t-56 13.5h-9q-37 -5 -80 -31q-13 25 -31 25q-12 0 -21 -8.5t-9 -19.5l-1 -380q0 -13 8.5 -21t20.5 -8t20.5 8t8.5 21l1 316q10 16 27.5 28.5t33.5 14.5q61 9 81 -51z" />
    <glyph glyph-name="ograve" unicode="&#xf2;" 
d="M172 599l109 -78q9 -5 20.5 -3t17.5 10q7 9 4.5 20.5t-10.5 18.5q-55 39 -110 77q-9 8 -20 6.5t-19 -12.5q-7 -9 -4.5 -20.5t12.5 -18.5zM226 379q52 0 72 -53q18 -40 18 -107v-7q0 -64 -19 -104q-12 -28 -27 -40.5t-45 -15.5q-27 1 -41.5 13t-29.5 40q-21 47 -19 101v4
q0 65 16 113q13 29 28 41t47 15zM102 80q15 -36 46 -61t76 -25q49 1 81.5 27.5t46.5 63.5q20 50 20 126v8q0 78 -19 129q-14 37 -46.5 64t-77.5 25h-4q-49 0 -83 -28t-47 -68q-15 -43 -18 -121v-14q0 -68 25 -126z" />
    <glyph glyph-name="oacute" unicode="&#xf3;" 
d="M290 641l-116 -67v1q-10 -5 -13 -16.5t3 -22.5q15 -20 38 -10q19 11 58 34t58 34q10 5 13 16t-3 21v1q-5 8 -16.5 11t-21.5 -2zM226 379q52 0 72 -53q18 -40 18 -107v-7q0 -64 -19 -104q-12 -28 -27 -40.5t-45 -15.5q-27 1 -41.5 13t-29.5 40q-21 47 -19 101v4
q0 65 16 113q13 29 28 41t47 15zM102 80q15 -36 46 -61t76 -25q49 1 81.5 27.5t46.5 63.5q20 50 20 126v8q0 78 -19 129q-14 37 -46.5 64t-77.5 25h-4q-49 0 -83 -28t-47 -68q-15 -43 -18 -121v-14q0 -68 25 -126z" />
    <glyph glyph-name="ocircumflex" unicode="&#xf4;" 
d="M135 523l94 60l87 -67q7 -4 18 -2.5t16 8.5q7 10 5 21.5t-11 18.5q-18 14 -52 40t-48 37q-19 11 -31 -1l-103 -66q-22 -14 -12 -34q7 -12 17.5 -16.5t19.5 1.5zM226 379q52 0 72 -53q18 -40 18 -107v-7q0 -64 -19 -104q-12 -28 -27 -40.5t-45 -15.5q-27 1 -41.5 13
t-29.5 40q-21 47 -19 101v4q0 65 16 113q13 29 28 41t47 15zM102 80q15 -36 46 -61t76 -25q49 1 81.5 27.5t46.5 63.5q20 50 20 126v8q0 78 -19 129q-14 37 -46.5 64t-77.5 25h-4q-49 0 -83 -28t-47 -68q-15 -43 -18 -121v-14q0 -68 25 -126z" />
    <glyph glyph-name="otilde" unicode="&#xf5;" 
d="M176 586q-11 -1 -43 -28q-27 -29 -27 -35q0 -5 6.5 -9.5t14.5 -4.5q11 0 19 8v-1q29 26 42 25q11 -2 24 -7q62 -28 70 -28q14 0 41 29q22 25 22 36q0 15 -20 15q-13 0 -26 -16q-15 -17 -32 -17q-21 0 -52 17h1q-34 15 -40 16zM226 379q52 0 72 -53q18 -40 18 -107v-7
q0 -64 -19 -104q-12 -28 -27 -40.5t-45 -15.5q-27 1 -41.5 13t-29.5 40q-21 47 -19 101v4q0 65 16 113q13 29 28 41t47 15zM102 80q15 -36 46 -61t76 -25q49 1 81.5 27.5t46.5 63.5q20 50 20 126v8q0 78 -19 129q-14 37 -46.5 64t-77.5 25h-4q-49 0 -83 -28t-47 -68
q-15 -43 -18 -121v-14q0 -68 25 -126z" />
    <glyph glyph-name="odieresis" unicode="&#xf6;" 
d="M183 547q0 18 -13 31.5t-30 13.5q-19 0 -32 -13.5t-13 -31.5q0 -19 13 -32.5t32 -13.5q17 0 30 13.5t13 32.5zM358 547q0 18 -13 31.5t-31 13.5q-19 0 -32 -13.5t-13 -31.5q0 -19 13 -32.5t32 -13.5q18 0 31 13.5t13 32.5zM226 379q52 0 72 -53q18 -40 18 -107v-7
q0 -64 -19 -104q-12 -28 -27 -40.5t-45 -15.5q-27 1 -41.5 13t-29.5 40q-21 47 -19 101v4q0 65 16 113q13 29 28 41t47 15zM102 80q15 -36 46 -61t76 -25q49 1 81.5 27.5t46.5 63.5q20 50 20 126v8q0 78 -19 129q-14 37 -46.5 64t-77.5 25h-4q-49 0 -83 -28t-47 -68
q-15 -43 -18 -121v-14q0 -68 25 -126z" />
    <glyph glyph-name="divide" unicode="&#xf7;" 
d="M284 190q0 20 -14 34q-14 18 -39 18q-23 0 -38 -18q-12 -15 -12 -37q0 -19 15.5 -35t37.5 -16t37 17q13 20 13 37zM284 489q0 23 -12 37q-15 20 -37 20q-24 0 -39 -15.5t-15 -36.5q0 -19 12 -38q16 -19 38 -19t38 19q15 15 15 33zM98 311h266q11 0 19.5 8t8.5 20
q0 11 -8.5 19t-19.5 8h-266q-11 0 -20 -8t-9 -19q0 -12 8.5 -20t20.5 -8z" />
    <glyph glyph-name="oslash" unicode="&#xf8;" 
d="M226 52q-42 -3 -71 48l27 31q6 6 10 10.5t5 5.5q35 40 71 85q23 26 45 53l2 -34v-9.5v-12.5v-10v-7q0 -63 -18 -104q-12 -28 -27 -40.5t-44 -15.5zM226 382q51 4 71 -54q-38 -43 -81 -94q-35 -40 -78 -83q-4 48 -3 56v3q0 68 16 113q14 30 28.5 43t46.5 16zM413 410
l-1 10q-2 9 -9 9q-6 4 -15 0q-8 -1 -14 -10q-2 -3 -8 -9q-3 -4 -14.5 -18t-14.5 -18q-15 29 -44.5 46.5t-63.5 16.5h-4q-49 0 -83 -28t-47 -68q-15 -43 -18 -121v-14q0 -60 17 -111l-41 -49q-8 -8 -9 -19.5t6 -18.5q5 -6 14.5 -3.5t17.5 10.5l33 39q49 -60 109 -60
q49 1 81.5 27.5t46.5 63.5q20 50 20 126v8q0 63 -15 116v2l23 24q5 7 24 29q7 7 9 20z" />
    <glyph glyph-name="ugrave" unicode="&#xf9;" 
d="M172 599l109 -78q9 -5 20.5 -3t17.5 10q7 9 4.5 20.5t-10.5 18.5q-55 39 -110 77q-9 8 -20 6.5t-19 -12.5q-7 -9 -4.5 -20.5t12.5 -18.5zM201 -5h1q4 -1 9 -1q7 0 13.5 0.5t11.5 1t10 2t8 2t8 2.5t7 3t6.5 4l6 4t7 4.5t7.5 4.5q14 -22 30 -22q12 0 20.5 9t8.5 21l-1 379
q-1 12 -9.5 21t-20.5 9t-20.5 -9t-8.5 -21l2 -326l-8 -7q-8 -7 -15 -12t-21.5 -10.5t-31.5 -6.5h-6q-27 3 -45 24t-18 50v287q0 12 -8.5 20t-20.5 8t-20.5 -8.5t-8.5 -19.5l3 -294q0 -5 0.5 -12t6 -26t15.5 -34.5t31.5 -29.5t50.5 -17z" />
    <glyph glyph-name="uacute" unicode="&#xfa;" 
d="M290 641l-116 -67v1q-10 -5 -13 -16.5t3 -22.5q15 -20 38 -10q19 11 58 34t58 34q10 5 13 16t-3 21v1q-5 8 -16.5 11t-21.5 -2zM201 -5h1q4 -1 9 -1q7 0 13.5 0.5t11.5 1t10 2t8 2t8 2.5t7 3t6.5 4l6 4t7 4.5t7.5 4.5q14 -22 30 -22q12 0 20.5 9t8.5 21l-1 379
q-1 12 -9.5 21t-20.5 9t-20.5 -9t-8.5 -21l2 -326l-8 -7q-8 -7 -15 -12t-21.5 -10.5t-31.5 -6.5h-6q-27 3 -45 24t-18 50v287q0 12 -8.5 20t-20.5 8t-20.5 -8.5t-8.5 -19.5l3 -294q0 -5 0.5 -12t6 -26t15.5 -34.5t31.5 -29.5t50.5 -17z" />
    <glyph glyph-name="ucircumflex" unicode="&#xfb;" 
d="M129 530l94 60l86 -67q8 -4 19 -2.5t15 8.5q7 10 5.5 21.5t-10.5 18.5q-16 13 -101 77q-18 13 -30 -1l-103 -65q-22 -16 -12 -34q7 -13 17.5 -17.5t19.5 1.5zM201 -5h1q4 -1 9 -1q7 0 13.5 0.5t11.5 1t10 2t8 2t8 2.5t7 3t6.5 4l6 4t7 4.5t7.5 4.5q14 -22 30 -22
q12 0 20.5 9t8.5 21l-1 379q-1 12 -9.5 21t-20.5 9t-20.5 -9t-8.5 -21l2 -326l-8 -7q-8 -7 -15 -12t-21.5 -10.5t-31.5 -6.5h-6q-27 3 -45 24t-18 50v287q0 12 -8.5 20t-20.5 8t-20.5 -8.5t-8.5 -19.5l3 -294q0 -5 0.5 -12t6 -26t15.5 -34.5t31.5 -29.5t50.5 -17z" />
    <glyph glyph-name="udieresis" unicode="&#xfc;" 
d="M176 561q0 19 -13 32t-31 13t-31 -13t-13 -32t13 -32t31 -13t31 13t13 32zM351 561q0 19 -13 32t-32 13q-18 0 -31 -13t-13 -32t13 -32t31 -13q19 0 32 13t13 32zM201 -5h1q4 -1 9 -1q7 0 13.5 0.5t11.5 1t10 2t8 2t8 2.5t7 3t6.5 4l6 4t7 4.5t7.5 4.5q14 -22 30 -22
q12 0 20.5 9t8.5 21l-1 379q-1 12 -9.5 21t-20.5 9t-20.5 -9t-8.5 -21l2 -326l-8 -7q-8 -7 -15 -12t-21.5 -10.5t-31.5 -6.5h-6q-27 3 -45 24t-18 50v287q0 12 -8.5 20t-20.5 8t-20.5 -8.5t-8.5 -19.5l3 -294q0 -5 0.5 -12t6 -26t15.5 -34.5t31.5 -29.5t50.5 -17z" />
    <glyph glyph-name="OE" unicode="&#x152;" 
d="M209 576l21 -1v-526l-23 2q-20 4 -32.5 11.5t-29 29.5t-25.5 70.5t-10 121.5v10q0 144 27 215q16 36 32 50.5t40 16.5zM282 302h97q11 0 18.5 8t7.5 18q0 11 -7.5 19t-17.5 10h-98v224l122 -1q10 0 17.5 7.5t7.5 18.5q0 13 -7 21.5t-17 8.5h-174q66 1 -10 19q1 -1 5 -2
t5 -2l-5 -15h5h-5l-1 -4l-15 3q-1 0 -4 -1q-43 -2 -74.5 -30.5t-46.5 -72.5q-33 -80 -33 -240v-9q0 -143 38.5 -214t119.5 -77h-1q1 -1 5 -1l192 -2q10 0 17 7.5t8 18.5q0 12 -8 20t-18 9q-19 0 -62 0.5t-61 0.5v258z" />
    <glyph glyph-name="oe" unicode="&#x153;" 
d="M393 252h-137q3 16 3 31q2 28 4 35q18 62 62 63q36 -1 50 -37l4 -8q11 -24 14 -84zM137 381l64 -54q12 -33 12 -102v-35q-2 -58 -13 -83v1q-10 -30 -24 -43.5t-39 -14.5q-14 0 -23.5 6.5t-14 14t-12.5 25.5q-1 1 -3 9q-19 56 -15 101v4q0 69 11 112l4 9q9 27 18 37t35 13
zM316 -12h11q24 0 44 11.5t32 29t17 28t8 18.5q9 21 -12 37q-17 7 -26 -11l-5 -10q-9 -16 -14.5 -24.5t-20 -16.5t-33.5 -5q-35 6 -53 64q-6 22 -8 56q0 3 -0.5 9t-0.5 8v5q0 1 0.5 8.5t0.5 8.5h158q19 0 21 26q0 1 0.5 9t0.5 15q0 65 -16 106q-13 32 -38.5 54t-62.5 21
q-44 -4 -85 -69q-40 77 -93 76h-5q-38 0 -65 -29.5t-37 -69.5q-14 -42 -17 -122v-15q0 -71 21 -129q11 -35 36.5 -60.5t61.5 -25.5q57 1 96 74q36 -71 84 -77z" />
    <glyph glyph-name="tilde" unicode="&#x2dc;" 
d="M432 409l-23 28q-42 -98 -90 -98q-13 0 -85 38q-72 36 -100 36q-40 0 -73 -39q-15 -22 -38 -81q4 -5 11 -11.5t12 -13.5q25 50 41 73q20 26 49 26t95 -38q67 -36 87 -36q70 0 114 116z" />
    <glyph glyph-name="endash" unicode="&#x2013;" 
d="M92 238h266q11 0 19.5 8t8.5 20q0 11 -8.5 19t-19.5 8h-266q-11 0 -20 -8t-9 -19q0 -12 8.5 -20t20.5 -8z" />
    <glyph glyph-name="emdash" unicode="&#x2014;" 
d="M92 238h266q11 0 19.5 8t8.5 20q0 11 -8.5 19t-19.5 8h-266q-11 0 -20 -8t-9 -19q0 -12 8.5 -20t20.5 -8z" />
    <glyph glyph-name="quoteleft" unicode="&#x2018;" 
d="M189 600v-134q0 -11 8.5 -19t19.5 -8t19.5 8t8.5 19v134q0 12 -8.5 20.5t-19.5 8.5t-19.5 -8.5t-8.5 -20.5z" />
    <glyph glyph-name="quoteright" unicode="&#x2019;" 
d="M189 600v-134q0 -11 8.5 -19t19.5 -8t19.5 8t8.5 19v134q0 12 -8.5 20.5t-19.5 8.5t-19.5 -8.5t-8.5 -20.5z" />
    <glyph glyph-name="quotesinglbase" unicode="&#x201a;" 
d="M211 -163h-1q10 -4 14 -4q15 0 25 16l-1 -1q49 87 50 184q0 25 -4 45l1 -1q-1 1 -3 8.5t-2 8.5q-5 20 -24.5 34.5t-43.5 14.5q-29 0 -49.5 -21t-20.5 -50t20.5 -50t49.5 -21h23q-14 -76 -40 -120v1l-3 -8q-13 -22 9 -36z" />
    <glyph glyph-name="quotedblleft" unicode="&#x201c;" 
d="M129 600v-134q0 -11 8.5 -19t19.5 -8t19.5 8t8.5 19v134q0 12 -8.5 20.5t-19.5 8.5t-19.5 -8.5t-8.5 -20.5zM272 600v-134q0 -11 8.5 -19t19.5 -8t19.5 8t8.5 19v134q0 12 -8.5 20.5t-19.5 8.5t-19.5 -8.5t-8.5 -20.5z" />
    <glyph glyph-name="quotedblright" unicode="&#x201d;" 
d="M129 600v-134q0 -11 8.5 -19t19.5 -8t19.5 8t8.5 19v134q0 12 -8.5 20.5t-19.5 8.5t-19.5 -8.5t-8.5 -20.5zM272 600v-134q0 -11 8.5 -19t19.5 -8t19.5 8t8.5 19v134q0 12 -8.5 20.5t-19.5 8.5t-19.5 -8.5t-8.5 -20.5z" />
    <glyph glyph-name="quotedblbase" unicode="&#x201e;" 
d="M129 600v-134q0 -11 8.5 -19t19.5 -8t19.5 8t8.5 19v134q0 12 -8.5 20.5t-19.5 8.5t-19.5 -8.5t-8.5 -20.5zM272 600v-134q0 -11 8.5 -19t19.5 -8t19.5 8t8.5 19v134q0 12 -8.5 20.5t-19.5 8.5t-19.5 -8.5t-8.5 -20.5z" />
    <glyph glyph-name="20AC" unicode="&#x20ac;" 
d="M56 230h61q14 -128 55 -189q34 -48 98 -51h12q30 3 55 16.5t39.5 30.5t24.5 35t14 29t4 13q3 13 -2 23t-14 12q-13 4 -24.5 -2.5t-14.5 -18.5q-1 -4 -3 -10t-10 -21.5t-17.5 -27t-26 -20t-34.5 -7.5q-2 1 -6 1q-29 7 -50 33q-30 40 -44 154h149q11 0 19.5 8t8.5 19
q0 12 -8.5 20t-19.5 8h-154v18q-1 10 -1 42h155q11 0 19.5 8t8.5 20q0 11 -8.5 19t-19.5 8h-152q6 57 16 94t26 54t27.5 23t32.5 11h12q25 0 50 -19q13 -13 18 -23l-1 1l4 -5q12 -25 35 -13q10 5 14 17t-1 21q-1 3 -5 9.5t-14 18t-22.5 21.5t-33 17.5t-43.5 7.5
q-11 0 -19 -1q-56 -4 -97 -60t-53 -174h-60q-11 0 -20 -8t-9 -19q0 -12 8.5 -20t20.5 -8h57q0 -31 1 -42v-18h-58q-12 0 -20.5 -8t-8.5 -20q0 -11 9 -19t20 -8z" />
    <glyph glyph-name="CR" 
 />
    <glyph glyph-name="_272" 
d="M133 756q-27 -29 -27 -35t6.5 -10.5t14.5 -4.5q11 0 19 8v-1q29 27 42 26q11 -2 24 -7q59 -28 70 -28q15 0 41 29q22 23 22 36q0 14 -20 14q-13 0 -26 -15q-16 -18 -32 -18q-19 0 -52 18h1q-36 15 -41 15q-13 -3 -42 -27zM159 204l54 294h18l57 -294h-129zM181 608
l-109 -577q-3 -12 2.5 -21t16.5 -11q12 -2 22 3.5t11 16.5l24 130h151l27 -129q3 -22 27 -22q3 0 5 1q10 1 16.5 11t4.5 21q-18 91 -58.5 288t-59.5 288q-3 23 -26 25h-26q-9 1 -17 -6t-11 -18z" />
    <glyph glyph-name="_285" 
d="M171 599l110 -78q9 -5 20.5 -3t17.5 10q7 9 4.5 20.5t-11.5 18.5q-79 56 -109 77q-9 8 -20 6.5t-19 -12.5q-7 -9 -5 -20.5t12 -18.5zM231 201q2 1 6.5 1.5t7.5 0.5q36 6 55 6v-116q-7 -12 -18 -23q-18 -18 -54 -21q-2 0 -5 -0.5t-5 -0.5h-8q-19 3 -29.5 6.5t-21 19.5
t-10.5 44q1 37 20.5 56t61.5 27zM133 21q33 -27 79 -27h13q32 5 74 28q4 -14 12 -22t18 -8q12 1 20.5 6.5t7.5 16.5l-1 77q3 6 0 16v228q0 35 -20 63q-31 43 -103 43q-37 0 -67 -16.5t-39.5 -28.5t-13.5 -19q-5 -11 -2 -22t13 -16q11 -6 22 -3t16 13t16 17q21 19 55 19
q29 -1 44 -8.5t17.5 -14.5t3.5 -18q0 -3 2 -7l-1 -64q-1 -2 -1 -12q-11 -4 -35 -8q-156 -21 -171 -134v-5q0 -62 41 -94z" />
    <glyph glyph-name="_286" 
d="M290 641l-116 -67v1q-10 -5 -13 -16.5t3 -22.5q15 -20 38 -10q19 11 58 34t58 34q10 5 14 15t-1 17q-6 12 -18.5 16.5t-22.5 -1.5zM231 201q2 1 6.5 1.5t7.5 0.5q36 6 55 6v-116q-7 -12 -18 -23q-18 -18 -54 -21q-2 0 -5 -0.5t-5 -0.5h-8q-19 3 -29.5 6.5t-21 19.5
t-10.5 44q1 37 20.5 56t61.5 27zM133 21q33 -27 79 -27h13q32 5 74 28q4 -14 12 -22t18 -8q12 1 20.5 6.5t7.5 16.5l-1 77q3 6 0 16v228q0 35 -20 63q-31 43 -103 43q-37 0 -67 -16.5t-39.5 -28.5t-13.5 -19q-5 -11 -2 -22t13 -16q11 -6 22 -3t16 13t16 17q21 19 55 19
q29 -1 44 -8.5t17.5 -14.5t3.5 -18q0 -3 2 -7l-1 -64q-1 -2 -1 -12q-11 -4 -35 -8q-156 -21 -171 -134v-5q0 -62 41 -94z" />
    <glyph glyph-name="_287" 
d="M152 523l93 60l87 -67q7 -4 18.5 -2.5t15.5 8.5q7 10 5 21.5t-10 18.5q-16 13 -101 77q-19 11 -31 -1l-103 -66q-22 -16 -11 -34q6 -12 16.5 -16.5t20.5 1.5zM231 201q2 1 6.5 1.5t6.5 0.5q39 6 56 6v-116q-7 -12 -19 -23q-16 -17 -53 -21q-2 0 -5 -0.5t-5 -0.5h-9
q-19 3 -29.5 6.5t-20.5 19.5t-10 44q2 37 20.5 56.5t61.5 26.5zM133 21q33 -27 78 -27h14q32 5 74 28q7 -30 30 -30q12 1 20.5 6.5t7.5 16.5l-1 77q3 6 0 16v228q0 33 -20 63q-33 43 -103 43q-37 0 -67 -16.5t-39.5 -28.5t-13.5 -19q-6 -11 -2.5 -22t13.5 -16q10 -6 21.5 -3
t16.5 13t15 17q23 19 56 19q29 -1 44 -8.5t17.5 -14.5t3.5 -18q0 -3 2 -7l-1 -64q-1 -2 -1 -12q-12 -4 -35 -8q-157 -21 -171 -134v-5q0 -63 41 -94z" />
    <glyph glyph-name="_288" 
d="M176 614q-13 -3 -43 -28q-27 -29 -27 -35q0 -5 6.5 -10t14.5 -5q11 0 19 9v-1q29 26 42 25q11 -2 24 -7q62 -28 70 -28q14 0 41 29q22 25 22 36q0 6 -6 10.5t-14 4.5q-12 0 -26 -16q-15 -17 -32 -17q-21 0 -52 17h1q-10 4 -18.5 7.5t-14.5 6t-7 2.5zM231 201q2 1 6.5 1.5
t7.5 0.5q36 6 55 6v-116q-7 -12 -18 -23q-18 -18 -54 -21q-2 0 -5 -0.5t-5 -0.5h-8q-19 3 -29.5 6.5t-21 19.5t-10.5 44q1 37 20.5 56t61.5 27zM133 21q33 -27 79 -27h13q32 5 74 28q4 -14 12 -22t18 -8q12 1 20.5 6.5t7.5 16.5l-1 77q3 6 0 16v228q0 35 -20 63
q-31 43 -103 43q-37 0 -67 -16.5t-39.5 -28.5t-13.5 -19q-5 -11 -2 -22t13 -16q11 -6 22 -3t16 13t16 17q21 19 55 19q29 -1 44 -8.5t17.5 -14.5t3.5 -18q0 -3 2 -7l-1 -64q-1 -2 -1 -12q-11 -4 -35 -8q-156 -21 -171 -134v-5q0 -62 41 -94z" />
    <glyph glyph-name="_289" 
d="M199 556q0 19 -13 32t-30 13q-19 0 -31.5 -13t-12.5 -32t12.5 -32t31.5 -13q17 0 30 13t13 32zM374 556q0 19 -13 32t-31 13q-19 0 -32 -13t-13 -32t13 -32t32 -13q18 0 31 13t13 32zM231 201q2 1 6.5 1.5t6.5 0.5q39 6 56 6v-116q-7 -12 -19 -23q-16 -17 -53 -21
q-2 0 -5 -0.5t-5 -0.5h-9q-19 3 -29.5 6.5t-20.5 19.5t-10 44q2 37 20.5 56.5t61.5 26.5zM133 21q33 -27 78 -27h14q32 5 74 28q7 -30 30 -30q12 1 20.5 6.5t7.5 16.5l-2 77q5 6 0 16v228q0 34 -19 63q-33 43 -103 43q-37 0 -67 -16.5t-39.5 -28.5t-13.5 -19
q-6 -11 -2.5 -22t13.5 -16q10 -6 21.5 -3t16.5 13t15 17q23 19 56 19q29 -1 44 -8.5t17.5 -14.5t3.5 -18q0 -3 2 -7l-1 -64q-1 -2 -1 -12q-12 -4 -35 -8q-157 -21 -171 -134v-5q0 -63 41 -94z" />
    <glyph glyph-name="_290" 
d="M226 52l-71 48l27 31q6 6 10 10.5t5 5.5q35 40 71 85q23 26 45 53v-34q2 -20 2 -32v-7q0 -63 -18 -104q-12 -28 -27 -40.5t-44 -15.5zM226 379l71 -51q-38 -43 -81 -94q-35 -40 -78 -83q-4 48 -3 56v3q0 68 16 113q13 29 28 41t47 15zM413 415l-2 4q-1 7 -5 11h-1l-1 -1
q-8 5 -15 2q-8 -1 -15 -12q-2 -3 -8 -9q-3 -4 -13.5 -16.5t-13.5 -16.5q-48 63 -110 60h-4q-49 0 -83 -28t-47 -68q-15 -43 -18 -121v-14q0 -60 17 -111l-41 -49q-8 -8 -9 -19.5t6 -18.5q5 -6 14.5 -3.5t17.5 10.5l15 -13q-16 12 18 52q49 -60 109 -60q49 1 81.5 27.5
t46.5 63.5q20 50 20 126v8q0 63 -15 116v2l23 24q6 8 11 13l6 9q4 4 7 4v2v1q7 7 9 20v5q0 -1 1 -1z" />
    <glyph glyph-name="_269" 
d="M171 782l110 -78q9 -5 20.5 -3t17.5 10q15 22 -7 39q-18 13 -54.5 39t-54.5 39q-9 8 -20.5 5.5t-18.5 -12.5q-16 -21 7 -39zM159 204l54 294h18l57 -294h-129zM181 608l-109 -577q-3 -12 2.5 -21t16.5 -11q12 -2 22 3.5t11 16.5l24 130h151l27 -129q3 -22 27 -22q3 0 5 1
q10 1 16.5 11t4.5 21q-18 91 -58.5 288t-59.5 288q-3 23 -26 25h-26q-9 1 -17 -6t-11 -18z" />
    <glyph glyph-name="_270" 
d="M257 818l-116 -67v1q-10 -5 -13 -16.5t3 -22.5q15 -20 38 -10q19 11 58 33.5t58 34.5q10 5 14 15t-1 17q-6 12 -18.5 16.5t-22.5 -1.5zM159 204l54 294h18l57 -294h-129zM181 608l-109 -577q-3 -12 2.5 -21t16.5 -11q12 -2 22 3.5t11 16.5l24 130h151l27 -129
q3 -22 27 -22q3 0 5 1q10 1 16.5 11t4.5 21q-18 91 -58.5 288t-59.5 288q-3 21 -25 25h-27q-9 1 -17 -6t-11 -18z" />
    <glyph glyph-name="_271" 
d="M129 671l94 60l86 -67q8 -4 19 -2.5t15 8.5q7 11 5.5 22t-10.5 18q-16 13 -101 77q-18 12 -31 -1l-102 -65q-22 -16 -12 -34q6 -13 17 -17.5t20 1.5zM159 204l54 294h18l57 -294h-129zM181 608l-109 -577q-3 -12 2.5 -21t16.5 -11q12 -2 22 3.5t11 16.5l24 130h151
l27 -129q3 -22 27 -22q3 0 5 1q10 1 16.5 11t4.5 21q-18 91 -58.5 288t-59.5 288q-3 21 -25 25h-27q-9 1 -17 -6t-11 -18z" />
    <glyph glyph-name="_274" 
d="M260 733q0 19 -13 32t-31 13q-19 0 -32 -13t-13 -32t13 -32t32 -13q18 0 31 13t13 32zM159 204l54 294h18l57 -294h-129zM181 608l-109 -577q-3 -12 2.5 -21t16.5 -11q12 -2 22 3.5t11 16.5l24 130h151l27 -129q3 -22 27 -22q3 0 5 1q10 1 16.5 11t4.5 21
q-18 91 -58.5 288t-59.5 288q-3 21 -25 25h-27q-9 1 -17 -6t-11 -18z" />
    <glyph glyph-name="_273" 
d="M179 733q0 19 -13 32t-31 13t-31 -13t-13 -32t13 -32t31 -13t31 13t13 32zM354 733q0 19 -13 32t-32 13q-18 0 -31 -13t-13 -32t13 -32t31 -13q19 0 32 13t13 32zM159 204l54 294h18l57 -294h-129zM181 608l-109 -577q-3 -12 2.5 -21t16.5 -11q12 -2 22 3.5t11 16.5
l24 130h151l27 -129q3 -22 27 -22q3 0 5 1q10 1 16.5 11t4.5 21q-18 91 -58.5 288t-59.5 288q-3 23 -26 25h-26q-9 1 -17 -6t-11 -18z" />
    <glyph glyph-name="_275" 
d="M103 204l94 292l20 -2l7 -143q1 -22 3.5 -73t3.5 -74h-128zM284 281h85q11 0 18.5 7.5t6.5 17.5q-1 12 -9 20.5t-19 9.5h-86l-5 88q-1 23 -4 77.5t-4 79.5l136 -1q10 0 17.5 7.5t6.5 16.5q0 13 -8.5 22t-19.5 9l-164 1q-6 0 -16 -4q-10 1 -20.5 -7t-15.5 -18
q-31 -93 -96.5 -289t-96.5 -289q-4 -11 0.5 -20t14.5 -10q11 -2 21 4t14 18l44 128h150l7 -122v-8q3 -21 23 -21q3 0 5 1l6 1l160 -1q11 0 18 7.5t8 19.5q-1 22 -29 28q-21 0 -68.5 0.5t-68.5 0.5z" />
    <glyph glyph-name="_276" 
d="M155 782l109 -78q9 -5 21 -3t17 10q15 22 -6 39q-18 13 -54.5 39t-54.5 39q-9 8 -20.5 5.5t-18.5 -12.5q-16 -21 7 -39zM222 576l75 -71q30 -72 30 -198v-7q0 -124 -30 -187q-28 -62 -70 -62h-5q-24 0 -44 19.5t-36.5 80t-17.5 157.5v10q0 126 26 191q16 36 32 50.5
t40 16.5zM221 -9h6q42 0 73.5 26.5t49.5 69.5q35 83 35 213v4q-10 312 -161 331q-2 0 -5 -1q-43 -2 -74.5 -30.5t-47.5 -72.5q-32 -83 -32 -216v-9q0 -144 40 -226t116 -89z" />
    <glyph glyph-name="_277" 
d="M263 818l-116 -67v1q-10 -5 -13 -16.5t4 -22.5q13 -20 38 -10q19 11 57.5 33.5t57.5 34.5q10 5 13 16t-3 21v1q-5 8 -16.5 11t-21.5 -2zM222 576l75 -71q30 -72 30 -198v-7q0 -124 -30 -187q-28 -62 -70 -62h-5q-24 0 -44 19.5t-36.5 80t-17.5 157.5v10q0 126 26 191
q16 36 32 50.5t40 16.5zM221 -9h6q42 0 73.5 26.5t49.5 69.5q35 83 35 213v4q-10 312 -161 331q-2 0 -5 -1q-43 -2 -74.5 -30.5t-47.5 -72.5q-32 -83 -32 -216v-9q0 -144 40 -226t116 -89z" />
    <glyph glyph-name="_278" 
d="M134 684l94 59l87 -67q7 -4 18 -2.5t16 8.5q15 23 -6 41q-85 64 -101 77q-18 11 -30 -1l-103 -66q-22 -15 -12 -34q7 -13 17.5 -17.5t19.5 2.5zM222 576l75 -71q30 -72 30 -198v-7q0 -124 -30 -187q-28 -62 -70 -62h-5q-24 0 -44 19.5t-36.5 80t-17.5 157.5v10
q0 126 26 191q16 36 32 50.5t40 16.5zM221 -9h6q42 0 73.5 26.5t49.5 69.5q35 83 35 213v4q-10 312 -161 331q-2 0 -5 -1q-43 -2 -74.5 -30.5t-47.5 -72.5q-32 -83 -32 -216v-9q0 -144 40 -226t116 -89z" />
    <glyph glyph-name="_279" 
d="M133 756q-27 -29 -27 -35t6.5 -10.5t14.5 -4.5q11 0 19 8v-1q29 27 42 26q11 -2 24 -7q59 -28 70 -28q15 0 41 29q22 23 22 36q0 14 -20 14q-13 0 -26 -15q-16 -18 -32 -18q-19 0 -52 18h1q-36 15 -41 15q-13 -3 -42 -27zM222 576l75 -71q30 -72 30 -198v-7
q0 -124 -30 -187q-28 -62 -70 -62h-5q-24 0 -44 19.5t-36.5 80t-17.5 157.5v10q0 126 26 191q16 36 32 50.5t40 16.5zM221 -9h6q42 0 73.5 26.5t49.5 69.5q35 83 35 213v4q-10 312 -161 331q-2 0 -5 -1q-43 -2 -74.5 -30.5t-47.5 -72.5q-32 -83 -32 -216v-9q0 -144 40 -226
t116 -89z" />
    <glyph glyph-name="_280" 
d="M179 733q0 19 -13 32t-31 13t-31 -13t-13 -32t13 -32t31 -13t31 13t13 32zM354 733q0 19 -13 32t-32 13q-18 0 -31 -13t-13 -32t13 -32t31 -13q19 0 32 13t13 32zM222 576l75 -71q30 -72 30 -198v-7q0 -124 -30 -187q-28 -62 -70 -62h-5q-24 0 -44 19.5t-36.5 80
t-17.5 157.5v10q0 126 26 191q16 36 32 50.5t40 16.5zM221 -9h6q42 0 73.5 26.5t49.5 69.5q35 83 35 213v4q-10 312 -161 331q-2 0 -5 -1q-43 -2 -74.5 -30.5t-47.5 -72.5q-32 -83 -32 -216v-9q0 -144 40 -226t116 -89z" />
    <glyph glyph-name="_281" 
d="M167 782l109 -78q10 -5 21.5 -3t17.5 10q15 22 -7 39q-18 13 -54.5 39t-54.5 39q-9 8 -20.5 5.5t-18.5 -12.5q-16 -21 7 -39zM221 -8h9q37 0 65 18.5t41 44.5v1q14 27 19 73q0 2 0.5 4t0.5 3v462q0 12 -9.5 21t-21.5 9t-20.5 -8.5t-8.5 -21.5v-469q0 -1 -0.5 -4t-0.5 -5
q-1 -15 -3 -24.5t-9 -22.5t-22.5 -20t-38.5 -7q-22 0 -37 9t-21.5 26.5t-8.5 28t-3 27.5v461q0 13 -8 21.5t-21 8.5q-11 0 -20 -9t-9 -21v-453q0 -12 5 -33t17.5 -47t40 -47t64.5 -26z" />
    <glyph glyph-name="_282" 
d="M281 818l-117 -67v1q-9 -5 -12 -16.5t3 -22.5q6 -9 17.5 -11.5t20.5 1.5q19 11 57.5 33.5t57.5 34.5q10 5 13.5 16t-2.5 21v1q-6 8 -17 11t-21 -2zM221 -8h9q37 0 65 18.5t41 44.5v1q14 27 19 73q0 2 0.5 4t0.5 3v462q0 12 -9.5 21t-21.5 9t-20.5 -8.5t-8.5 -21.5v-469
q0 -1 -0.5 -4t-0.5 -5q-1 -15 -3 -24.5t-9 -22.5t-22.5 -20t-38.5 -7q-22 0 -37 9t-21.5 26.5t-8.5 28t-3 27.5v461q0 13 -8 21.5t-21 8.5q-11 0 -20 -9t-9 -21v-453q0 -12 5 -33t17.5 -47t40 -47t64.5 -26z" />
    <glyph glyph-name="_283" 
d="M143 715l93 60l87 -67q7 -4 18 -2.5t16 8.5q15 23 -5 41q-85 64 -101 77q-19 11 -31 -1l-103 -66q-22 -16 -11 -34q6 -13 16.5 -17.5t20.5 1.5zM221 -8h9q37 0 65 18.5t41 44.5v1q14 29 19 73q0 2 0.5 4t0.5 3v462q0 12 -9.5 21t-21.5 9t-20.5 -8.5t-8.5 -21.5v-469
q0 -1 -0.5 -4t-0.5 -5q-1 -15 -3 -24.5t-9 -22.5t-22.5 -20t-38.5 -7q-22 0 -37 9t-21.5 26.5t-8.5 28t-3 27.5v461q0 13 -8.5 21.5t-20.5 8.5q-11 0 -20 -9t-9 -21v-453q0 -12 5 -33t17.5 -47t40 -47t64.5 -26z" />
    <glyph glyph-name="_284" 
d="M181 755q0 18 -13 31.5t-30 13.5q-19 0 -32 -13.5t-13 -31.5q0 -19 13 -32.5t32 -13.5q17 0 30 13.5t13 32.5zM356 755q0 18 -13 31.5t-32 13.5q-18 0 -31 -13.5t-13 -31.5q0 -19 13 -32.5t31 -13.5q19 0 32 13.5t13 32.5zM221 -8h9q37 0 65 18.5t41 44.5v1q14 27 19 73
q0 2 0.5 4t0.5 3v462q0 12 -9.5 21t-21.5 9t-20.5 -8.5t-8.5 -21.5v-469q0 -1 -0.5 -4t-0.5 -5q-1 -15 -3 -24.5t-9 -22.5t-22.5 -20t-38.5 -7q-22 0 -37 9t-21.5 26.5t-8.5 28t-3 27.5v461q0 13 -8 21.5t-21 8.5q-11 0 -20 -9t-9 -21v-453q0 -12 5 -33t17.5 -47t40 -47
t64.5 -26z" />
    <glyph glyph-name="_246" 
d="M172 599l109 -78q9 -5 20.5 -3t17.5 10q7 9 4.5 20.5t-10.5 18.5q-55 39 -110 77q-9 8 -20 6.5t-19 -12.5q-7 -9 -4.5 -20.5t12.5 -18.5zM201 -5h1q4 -1 9 -1q7 0 13.5 0.5t11.5 1t10 2t8 2t8 2.5t7 3t6.5 4l6 4t7 4.5t7.5 4.5q14 -22 30 -22q12 0 20.5 9t8.5 21l-1 379
q-1 12 -9.5 21t-20.5 9t-20.5 -9t-8.5 -21l2 -326l-8 -7q-8 -7 -15 -12t-21.5 -10.5t-31.5 -6.5h-6q-27 3 -45 24t-18 50v287q0 12 -8.5 20t-20.5 8t-20.5 -8.5t-8.5 -19.5l3 -294q0 -5 0.5 -12t6 -26t15.5 -34.5t31.5 -29.5t50.5 -17z" />
    <glyph glyph-name="_247" 
d="M290 641l-116 -67v1q-10 -5 -13 -16.5t3 -22.5q15 -20 38 -10q19 11 58 34t58 34q10 5 13 16t-3 21v1q-5 8 -16.5 11t-21.5 -2zM201 -5h1q4 -1 9 -1q7 0 13.5 0.5t11.5 1t10 2t8 2t8 2.5t7 3t6.5 4l6 4t7 4.5t7.5 4.5q14 -22 30 -22q12 0 20.5 9t8.5 21l-1 379
q-1 12 -9.5 21t-20.5 9t-20.5 -9t-8.5 -21l2 -326l-8 -7q-8 -7 -15 -12t-21.5 -10.5t-31.5 -6.5h-6q-27 3 -45 24t-18 50v287q0 12 -8.5 20t-20.5 8t-20.5 -8.5t-8.5 -19.5l3 -294q0 -5 0.5 -12t6 -26t15.5 -34.5t31.5 -29.5t50.5 -17z" />
    <glyph glyph-name="_248" 
d="M129 530l94 60l86 -67q8 -4 19 -2.5t15 8.5q7 10 5.5 21.5t-10.5 18.5q-16 13 -101 77q-18 13 -30 -1l-103 -65q-22 -16 -12 -34q7 -13 17.5 -17.5t19.5 1.5zM201 -5h1q4 -1 9 -1q7 0 13.5 0.5t11.5 1t10 2t8 2t8 2.5t7 3t6.5 4l6 4t7 4.5t7.5 4.5q14 -22 30 -22
q12 0 20.5 9t8.5 21l-1 379q-1 12 -9.5 21t-20.5 9t-20.5 -9t-8.5 -21l2 -326l-8 -7q-8 -7 -15 -12t-21.5 -10.5t-31.5 -6.5h-6q-27 3 -45 24t-18 50v287q0 12 -8.5 20t-20.5 8t-20.5 -8.5t-8.5 -19.5l3 -294q0 -5 0.5 -12t6 -26t15.5 -34.5t31.5 -29.5t50.5 -17z" />
    <glyph glyph-name="_249" 
d="M176 561q0 19 -13 32t-31 13t-31 -13t-13 -32t13 -32t31 -13t31 13t13 32zM351 561q0 19 -13 32t-32 13q-18 0 -31 -13t-13 -32t13 -32t31 -13q19 0 32 13t13 32zM201 -5h1q4 -1 9 -1q7 0 13.5 0.5t11.5 1t10 2t8 2t8 2.5t7 3t6.5 4l6 4t7 4.5t7.5 4.5q14 -22 30 -22
q12 0 20.5 9t8.5 21l-1 379q-1 12 -9.5 21t-20.5 9t-20.5 -9t-8.5 -21l2 -326l-8 -7q-8 -7 -15 -12t-21.5 -10.5t-31.5 -6.5h-6q-27 3 -45 24t-18 50v287q0 12 -8.5 20t-20.5 8t-20.5 -8.5t-8.5 -19.5l3 -294q0 -5 0.5 -12t6 -26t15.5 -34.5t31.5 -29.5t50.5 -17z" />
    <glyph glyph-name="_245" 
d="M226 52q-42 -3 -71 48l27 31q6 6 10 10.5t5 5.5q35 40 71 85q23 26 45 53l2 -34v-9.5v-12.5v-10v-7q0 -63 -18 -104q-12 -28 -27 -40.5t-44 -15.5zM226 382q51 4 71 -54q-38 -43 -81 -94q-35 -40 -78 -83q-4 48 -3 56v3q0 68 16 113q14 30 28.5 43t46.5 16zM413 410
l-1 10q-2 9 -9 9q-6 4 -15 0q-8 -1 -14 -10q-2 -3 -8 -9q-3 -4 -14.5 -18t-14.5 -18q-15 29 -44.5 46.5t-63.5 16.5h-4q-49 0 -83 -28t-47 -68q-15 -43 -18 -121v-14q0 -60 17 -111l-41 -49q-8 -8 -9 -19.5t6 -18.5q5 -6 14.5 -3.5t17.5 10.5l33 39q49 -60 109 -60
q49 1 81.5 27.5t46.5 63.5q20 50 20 126v8q0 63 -15 116v2l23 24q5 7 24 29q7 7 9 20z" />
    <glyph glyph-name="_243" 
d="M172 599l109 -78q9 -5 20.5 -3t17.5 10q7 9 4.5 20.5t-10.5 18.5q-55 39 -110 77q-9 8 -20 6.5t-19 -12.5q-7 -9 -4.5 -20.5t12.5 -18.5zM226 379q52 0 72 -53q18 -40 18 -107v-7q0 -64 -19 -104q-12 -28 -27 -40.5t-45 -15.5q-27 1 -41.5 13t-29.5 40q-21 47 -19 101v4
q0 65 16 113q13 29 28 41t47 15zM102 80q15 -36 46 -61t76 -25q49 1 81.5 27.5t46.5 63.5q20 50 20 126v8q0 78 -19 129q-14 37 -46.5 64t-77.5 25h-4q-49 0 -83 -28t-47 -68q-15 -43 -18 -121v-14q0 -68 25 -126z" />
    <glyph glyph-name="_244" 
d="M290 641l-116 -67v1q-10 -5 -13 -16.5t3 -22.5q15 -20 38 -10q19 11 58 34t58 34q10 5 13 16t-3 21v1q-5 8 -16.5 11t-21.5 -2zM226 379q52 0 72 -53q18 -40 18 -107v-7q0 -64 -19 -104q-12 -28 -27 -40.5t-45 -15.5q-27 1 -41.5 13t-29.5 40q-21 47 -19 101v4
q0 65 16 113q13 29 28 41t47 15zM102 80q15 -36 46 -61t76 -25q49 1 81.5 27.5t46.5 63.5q20 50 20 126v8q0 78 -19 129q-14 37 -46.5 64t-77.5 25h-4q-49 0 -83 -28t-47 -68q-15 -43 -18 -121v-14q0 -68 25 -126z" />
    <glyph glyph-name="_239" 
d="M123 599l109 -78q10 -5 21.5 -3t16.5 10q7 9 5 20.5t-11 18.5q-79 56 -109 77q-9 8 -20.5 6.5t-18.5 -12.5q-7 -9 -5 -20.5t12 -18.5zM131 0h188q27 0 27 24q0 10 -8 17t-19 7h-63v357q0 11 -8 19t-20 8h-78q-12 0 -20.5 -7.5t-8.5 -18.5q0 -25 29 -25h52v-333h-71
q-11 0 -19.5 -7t-8.5 -17q0 -24 28 -24z" />
    <glyph glyph-name="_240" 
d="M290 641l-116 -67v1q-10 -5 -13 -16.5t3 -22.5q15 -20 38 -10q19 11 58 34t58 34q10 5 13 16t-3 21v1q-5 8 -16.5 11t-21.5 -2zM131 0h188q27 0 27 24q0 10 -8 17t-19 7h-63v357q0 11 -8 19t-20 8h-78q-12 0 -20.5 -7.5t-8.5 -18.5q0 -25 29 -25h52v-333h-71
q-11 0 -19.5 -7t-8.5 -17q0 -24 28 -24z" />
    <glyph glyph-name="_241" 
d="M126 523l94 60l87 -67q7 -4 18 -2.5t16 8.5q7 10 5 21.5t-11 18.5q-18 14 -52 40t-48 37q-19 11 -31 -1l-103 -66q-22 -14 -12 -34q7 -12 17.5 -16.5t19.5 1.5zM132 0h187q28 0 28 24q0 10 -8.5 17t-19.5 7h-63v357q0 11 -8 19t-20 8h-78q-11 0 -20 -8t-9 -18
q0 -11 8.5 -18t20.5 -7h53v-333h-71q-12 0 -20.5 -7t-8.5 -17q0 -24 29 -24z" />
    <glyph glyph-name="_242" 
d="M177 556q0 19 -13 32t-30 13q-19 0 -32 -13t-13 -32t13 -32t32 -13q17 0 30 13t13 32zM352 556q0 19 -13 32t-32 13q-18 0 -31 -13t-13 -32t13 -32t31 -13q19 0 32 13t13 32zM131 0h188q28 0 28 24q0 10 -8.5 17t-19.5 7h-63v357q0 11 -8 19t-20 8h-78q-11 0 -20 -8
t-9 -18q0 -11 8.5 -18t20.5 -7h52v-333h-71q-11 0 -19.5 -7t-8.5 -17q0 -24 28 -24z" />
    <glyph glyph-name="_233" 
d="M387 257h-142l1 8v9q5 38 8 49q19 59 61 62q17 0 27.5 -6t15.5 -12.5t13 -21.5l-2 1q1 0 2 -2l1 -2q13 -43 15 -85zM136 201l-1 -1q2 0 6.5 1t6.5 2q2 0 6.5 2t13.5 3t28 1q0 -20 1 -26v-89q-5 -13 -12 -20q-2 -2 -2 -3q-15 -18 -49 -22q-2 0 -5 -0.5t-4 -0.5h-7
q-14 3 -20 5.5t-15.5 9.5t-13.5 20.5t-4 34.5q1 36 18 55.5t53 27.5zM304 -2h12q17 0 32.5 5.5t25.5 13.5t19.5 18.5t13.5 18.5t9 16l4 9q11 26 -10 40q-16 12 -29 -10l-5 -10q-7 -16 -12.5 -24.5t-21 -16.5t-37.5 -4q-33 6 -52 62q-7 23 -11 64v30h165q20 0 23 26
q0 1 0.5 9t0.5 14q0 61 -18 105q-31 76 -105 73q-42 -3 -75 -48q-36 53 -94 53q-30 0 -55 -15.5t-33.5 -27t-13.5 -20.5q-10 -25 9 -40q8 -5 17 -1.5t14 12.5q0 6 12 17v-1q20 20 50 20q25 -1 38.5 -8.5t15.5 -14.5t3 -18q0 -5 1 -7v-60q-1 -3 -1 -14q-14 -7 -30 -10
q-134 -18 -147 -134v-5q0 -61 36 -95q27 -26 65 -26h11q31 6 65 30q6 -32 25 -32q18 2 25 35q30 -26 58 -29z" />
    <glyph glyph-name="_234" 
d="M168 -163h-1q12 -4 15 -4q15 0 24 16l-1 -1q35 61 48 150q45 8 73 38.5t34.5 50.5t6.5 28q1 12 -6 20.5t-18 10.5q-11 1 -20 -6t-11 -18q0 -4 -2 -8l1 2q-2 -9 -5.5 -17.5t-12 -21t-25 -20t-39.5 -6.5q-28 1 -43 13t-29 41q-19 45 -19 120q0 62 17 102q15 30 30 42.5
t44 13.5q40 0 61 -27v1q7 -8 15 -33q1 -8 11 -12.5t21 -2.5q26 7 21 33q0 3 -3 12t-12 24t-22.5 28.5t-37.5 23.5t-54 10h-5q-44 -2 -75.5 -28.5t-45.5 -62.5q-21 -56 -21 -124q0 -87 24 -143q24 -63 96 -84q-10 -61 -39 -118v1l-3 -8q-13 -22 8 -36z" />
    <glyph glyph-name="_235" 
d="M172 599l109 -78q9 -5 20.5 -3t17.5 10q7 9 4.5 20.5t-10.5 18.5q-55 39 -110 77q-9 8 -20 6.5t-19 -12.5q-7 -9 -4.5 -20.5t12.5 -18.5zM307 257l-163 3q5 44 13 64v-1q20 59 68 62q21 0 34 -6t17.5 -12t13.5 -22q15 -32 17 -88zM214 -2h13q30 0 54.5 11.5t39.5 29
t21 27.5t10 18q11 22 -13 34q-9 6 -19.5 3.5t-15.5 -10.5l-8 -12l1 1q-30 -52 -81 -46q-20 3 -34 17.5t-26 44.5q-12 39 -14 94h192q9 0 17.5 7t10.5 19q0 1 0.5 9t0.5 14q0 62 -21 105q-15 32 -46.5 53.5t-77.5 19.5q-45 -2 -74 -30.5t-41 -64.5q-15 -42 -17 -125
q0 -67 17 -118q12 -38 39.5 -68t71.5 -33z" />
    <glyph glyph-name="_236" 
d="M290 641l-116 -67v1q-10 -5 -13 -16.5t3 -22.5q15 -20 38 -10q19 11 58 34t58 34q10 5 13 16t-3 21v1q-5 8 -16.5 11t-21.5 -2zM307 257l-163 3q5 44 13 64v-1q20 59 68 62q21 0 34 -6t17.5 -12t13.5 -22q15 -32 17 -88zM214 -2h13q30 0 54.5 11.5t39.5 29t21 27.5t10 18
q11 22 -13 34q-9 6 -19.5 3.5t-15.5 -10.5l-8 -12l1 1q-30 -52 -81 -46q-20 3 -34 17.5t-26 44.5q-12 39 -14 94h192q11 0 19 7.5t9 19.5q0 1 0.5 8.5t0.5 13.5q0 62 -21 105q-15 32 -46.5 53.5t-77.5 19.5q-45 -2 -74 -30.5t-41 -64.5q-15 -42 -17 -125q0 -67 17 -118
q12 -38 39.5 -68t71.5 -33z" />
    <glyph glyph-name="_237" 
d="M152 523l93 60l87 -67q7 -4 18.5 -2.5t15.5 8.5q7 10 5 21.5t-10 18.5q-16 13 -101 77q-19 11 -31 -1l-103 -66q-22 -16 -11 -34q6 -12 16.5 -16.5t20.5 1.5zM317 257l-163 3q5 44 13 64v-1q20 59 68 62q21 0 34 -6t17.5 -12t13.5 -22q15 -32 17 -88zM224 -2h13
q30 0 54.5 11.5t39.5 29t21 27.5t10 18q11 22 -13 34q-9 6 -19.5 3.5t-15.5 -10.5l-8 -12l1 1q-30 -52 -81 -46q-20 3 -34 17.5t-26 44.5q-12 39 -14 94h192q9 0 17.5 7t10.5 19q0 1 0.5 9t0.5 14q0 62 -21 105q-15 32 -46.5 53.5t-77.5 19.5q-45 -2 -74 -30.5t-41 -64.5
q-15 -42 -17 -125q0 -67 17 -118q12 -38 39.5 -68t71.5 -33z" />
    <glyph glyph-name="_238" 
d="M189 556q0 19 -13 32t-30 13q-19 0 -32 -13t-13 -32t13 -32t32 -13q17 0 30 13t13 32zM364 556q0 19 -13 32t-31 13q-19 0 -32 -13t-13 -32t13 -32t32 -13q18 0 31 13t13 32zM307 257l-163 3q5 44 13 64v-1q20 59 68 62q21 0 34 -6t17.5 -12t13.5 -22q15 -32 17 -88z
M214 -2h13q80 0 124 84q1 1 1 2q11 22 -13 34q-9 6 -19.5 3.5t-15.5 -10.5l-8 -12l1 1q-30 -52 -81 -46q-39 6 -60 62q-12 39 -14 94h192q10 0 18.5 7.5t9.5 19.5q0 1 0.5 8.5t0.5 13.5q0 62 -21 105q-15 32 -46.5 53.5t-77.5 19.5q-45 -2 -74 -30.5t-41 -64.5
q-15 -42 -17 -125q0 -67 17 -118q12 -38 39.5 -68t71.5 -33z" />
    <glyph glyph-name="_250" 
d="M129 671l94 60l86 -67q8 -4 19 -2.5t15 8.5q7 11 5.5 22t-10.5 18q-16 13 -101 77q-18 12 -31 -1l-102 -65q-22 -16 -12 -34q6 -13 17 -17.5t20 1.5zM159 204l63 358l66 -358h-129zM181 608l-109 -577q-3 -12 2.5 -21t16.5 -11q12 -2 22 3.5t11 16.5l24 130h151l27 -129
q3 -22 27 -22q3 0 5 1q10 1 16.5 11t4.5 21q-18 91 -58.5 288t-59.5 288q-3 23 -26 25h-26q-9 1 -17 -6t-11 -18z" />
    <glyph glyph-name="_252" 
d="M133 756q-27 -29 -27 -35t6.5 -10.5t14.5 -4.5q11 0 19 8v-1q29 27 42 26q11 -2 24 -7q59 -28 70 -28q15 0 41 29q22 23 22 36q0 14 -20 14q-13 0 -26 -15q-16 -18 -32 -18q-19 0 -52 18h1q-36 15 -41 15q-13 -3 -42 -27zM159 204l63 358l66 -358h-129zM181 608
l-109 -577q-3 -12 2.5 -21t16.5 -11q12 -2 22 3.5t11 16.5l24 130h151l27 -129q3 -22 27 -22q3 0 5 1q10 1 16.5 11t4.5 21q-18 91 -58.5 288t-59.5 288q-3 23 -26 25h-26q-9 1 -17 -6t-11 -18z" />
    <glyph glyph-name="_251" 
d="M179 733q0 19 -13 32t-31 13t-31 -13t-13 -32t13 -32t31 -13t31 13t13 32zM354 733q0 19 -13 32t-32 13q-18 0 -31 -13t-13 -32t13 -32t31 -13q19 0 32 13t13 32zM159 204l63 358l66 -358h-129zM181 608l-109 -577q-3 -12 2.5 -21t16.5 -11q12 -2 22 3.5t11 16.5l24 130
h151l27 -129q3 -22 27 -22q3 0 5 1q10 1 16.5 11t4.5 21q-18 91 -58.5 288t-59.5 288q-3 23 -26 25h-26q-9 1 -17 -6t-11 -18z" />
    <glyph glyph-name="_253" 
d="M260 733q0 19 -13 32t-31 13q-19 0 -32 -13t-13 -32t13 -32t32 -13q18 0 31 13t13 32zM159 204l63 358l66 -358h-129zM181 608l-109 -577q-3 -12 2.5 -21t16.5 -11q12 -2 22 3.5t11 16.5l24 130h151l27 -129q3 -22 27 -22q3 0 5 1q10 1 16.5 11t4.5 21q-18 91 -58.5 288
t-59.5 288q-3 23 -26 25h-26q-9 1 -17 -6t-11 -18z" />
    <glyph glyph-name="_254" 
d="M103 204l111 336l3 -46l7 -143q1 -22 3.5 -73t3.5 -74h-128zM278 282h85q11 0 18.5 7.5t6.5 17.5q-1 12 -9 20.5t-19 9.5h-86l-5 88q-1 23 -4 77.5t-4 79.5l136 -1q10 0 17.5 7.5t6.5 16.5q0 13 -8.5 22t-19.5 9h-158q-6 0 -16 -4q-10 1 -20.5 -7t-15.5 -18
q-31 -93 -96.5 -289t-96.5 -289q-4 -11 0.5 -20t14.5 -10q11 -2 21 4t14 18l44 128h150l7 -122v-8q3 -21 23 -21q3 0 5 1l6 1h154q11 0 18 7.5t8 19.5q-1 22 -29 28q-21 0 -68.5 0.5t-68.5 0.5z" />
    <glyph glyph-name="_255" 
d="M206 -170h-1q12 -4 15 -4q14 0 25 15l-1 -1q43 85 49 162q30 16 50.5 44t26.5 45.5t6 22.5q3 13 -1.5 23t-13.5 12q-13 4 -24.5 -2.5t-14.5 -18.5q-1 -4 -3 -10t-10 -21.5t-17.5 -27t-26 -20t-34.5 -7.5q-2 1 -6 1q-29 7 -50 33q-17 23 -32 82.5t-17 144.5q-1 9 -1 28
q2 80 11 131.5t26 75t30.5 31.5t37.5 13h11q26 0 51 -19q11 -11 17 -23l-1 1l5 -5q12 -25 35 -13q10 5 14 17t-1 21q-1 3 -5 9.5t-14 18t-22.5 21.5t-33 17.5t-43.5 7.5q-11 0 -19 -1q-68 -5 -112.5 -84t-39.5 -248q5 -184 57 -261q35 -49 110 -52q-9 -55 -38 -116l-3 -7
q-5 -9 -3 -20t11 -16z" />
    <glyph glyph-name="_256" 
d="M171 782l109 -78q9 -5 21 -3t17 10q15 22 -6 39q-18 13 -54.5 39t-54.5 39q-10 8 -21 5.5t-18 -12.5q-8 -9 -5.5 -20.5t12.5 -18.5zM175 303h104q11 0 19 7.5t8 17.5q0 12 -7.5 19.5t-18.5 8.5h-105v217l172 -1q11 0 19 8t8 18q0 12 -7.5 20.5t-18.5 8.5l-200 1
q-11 0 -19 -8q-8 -7 -8 -20v-573q0 -11 7.5 -19t18.5 -8l202 -1q11 0 18.5 7.5t8.5 18.5q0 11 -8.5 18.5t-19.5 8.5q-28 0 -87.5 1t-85.5 1v249z" />
    <glyph glyph-name="_257" 
d="M273 818l-116 -67v1q-10 -5 -13 -16.5t3 -22.5q15 -20 38 -10q12 7 53 31t63 37q10 5 13 16t-3 21v1q-5 8 -16.5 11t-21.5 -2zM167 303h104q11 0 19 7.5t8 17.5q0 12 -7.5 19.5t-18.5 8.5h-105v217l172 -1q11 0 19 8t8 18q0 12 -7.5 20.5t-18.5 8.5l-200 1q-11 0 -19 -8
q-8 -7 -8 -20v-573q0 -11 7.5 -19t18.5 -8l202 -1q11 0 18.5 7.5t8.5 18.5q0 11 -8 18t-19 9q-28 0 -87.5 1t-86.5 1v249z" />
    <glyph glyph-name="_258" 
d="M142 715l94 60l87 -67q7 -4 18 -2.5t16 8.5q15 23 -6 41q-77 59 -100 77q-19 11 -31 -1l-103 -66q-22 -15 -12 -34q7 -13 17.5 -17.5t19.5 1.5zM160 303h104q11 0 19 7.5t8 17.5q0 12 -7.5 19.5t-18.5 8.5h-105v217l172 -1q11 0 19 8t8 18q0 12 -7.5 20.5t-18.5 8.5
l-200 1q-11 0 -19 -8q-8 -7 -8 -20v-573q0 -11 7.5 -19t18.5 -8l202 -1q11 0 18.5 7.5t8.5 18.5q0 11 -8.5 18.5t-19.5 8.5q-28 0 -87.5 1t-85.5 1v249z" />
    <glyph glyph-name="_259" 
d="M193 752q0 19 -13 32.5t-31 13.5t-31 -13.5t-13 -32.5q0 -18 13 -31.5t31 -13.5t31 13.5t13 31.5zM368 752q0 19 -13 32.5t-32 13.5q-18 0 -31 -13.5t-13 -32.5q0 -18 13 -31.5t31 -13.5q19 0 32 13.5t13 31.5zM170 303h104q11 0 19 7.5t8 17.5q0 12 -7.5 19.5t-18.5 8.5
h-105v217l172 -1q11 0 19 8t8 18q0 12 -7.5 20.5t-18.5 8.5l-200 1q-11 0 -19 -8q-7 -7 -7 -20v-573q0 -11 7.5 -19t17.5 -8l202 -1q11 0 18.5 7.5t8.5 18.5q0 11 -8.5 18.5t-19.5 8.5q-28 0 -87 1t-86 1v249z" />
    <glyph glyph-name="_260" 
d="M172 782l109 -78q9 -5 20.5 -3t17.5 10q15 22 -6 39q-18 12 -55 39t-55 39q-9 8 -20.5 5.5t-18.5 -12.5q-16 -22 8 -39zM129 1h190q12 0 20.5 7t8.5 18q0 10 -9 17.5t-20 7.5h-67l1 526h67q11 0 19.5 7.5t8.5 18.5t-8 17.5t-20 6.5h-191q-12 0 -19.5 -6.5t-7.5 -17.5
t8 -18.5t19 -7.5h68l-2 -526h-66q-11 0 -19 -7.5t-8 -17.5q0 -25 27 -25z" />
    <glyph glyph-name="_261" 
d="M273 818l-116 -67v1q-9 -5 -12 -16.5t3 -22.5q6 -9 17.5 -11.5t20.5 1.5q19 11 57.5 33.5t57.5 34.5q11 5 14 16t-4 21v1q-14 21 -38 9zM129 1h190q12 0 20.5 7t8.5 18q0 10 -9 17.5t-20 7.5h-67l1 526h67q11 0 19.5 7.5t8.5 18.5t-8 17.5t-20 6.5h-191q-12 0 -19.5 -6.5
t-7.5 -17.5t8 -18.5t19 -7.5h68l-2 -526h-66q-11 0 -19 -7.5t-8 -17.5q0 -25 27 -25z" />
    <glyph glyph-name="_262" 
d="M142 715l94 60l87 -67q7 -4 18 -2.5t16 8.5q15 23 -6 41q-77 59 -100 77q-19 11 -31 -1l-103 -66q-22 -15 -12 -34q7 -13 17.5 -17.5t19.5 1.5zM135 1h190q12 0 20 6.5t8 18.5q0 10 -8.5 17.5t-19.5 7.5h-67l1 526h67q11 0 19 7.5t8 18.5t-7.5 17.5t-19.5 6.5h-191
q-12 0 -20 -6.5t-8 -17.5t8.5 -18.5t19.5 -7.5h68l-2 -526h-66q-11 0 -19.5 -7.5t-8.5 -17.5q0 -12 8 -18.5t20 -6.5z" />
    <glyph glyph-name="_263" 
d="M133 756q-27 -29 -27 -35t6.5 -10.5t14.5 -4.5q11 0 19 8v-1q29 27 42 26q11 -2 24 -7q59 -28 70 -28q15 0 41 29q22 23 22 36q0 14 -20 14q-13 0 -26 -15q-16 -18 -32 -18q-19 0 -52 18h1q-36 15 -41 15q-13 -3 -42 -27zM326 1l9 -1q2 -1 4 -1q10 0 17 7q9 7 9 19
l-2 571q0 11 -7.5 18.5t-18.5 7.5t-18.5 -8t-7.5 -18l2 -455l-169 466v-1q-6 21 -28 17l-11 -1q-20 -8 -20 -26l-1 -569q0 -11 7 -18.5t18 -7.5t18.5 7.5t7.5 18.5l2 459l169 -469q5 -15 20 -16z" />
    <glyph glyph-name="_264" 
d="M155 782l109 -78q9 -5 21 -3t17 10q15 22 -6 39q-18 13 -54.5 39t-54.5 39q-9 8 -20.5 5.5t-18.5 -12.5q-16 -21 7 -39zM226 576q47 1 75 -71q26 -62 26 -198v-7q0 -124 -30 -187q-28 -62 -70 -62h-5q-24 0 -44 19.5t-36.5 80t-17.5 157.5v10q0 126 26 191q28 66 76 67z
M221 -9h6q42 0 73.5 26.5t49.5 69.5q35 83 35 213v4q-10 335 -161 330h-5q-43 -2 -74.5 -30.5t-47.5 -72.5q-32 -83 -32 -216v-9q0 -144 40 -226t116 -89z" />
    <glyph glyph-name="_265" 
d="M263 818l-116 -67v1q-10 -5 -13 -16.5t4 -22.5q13 -20 38 -10q19 11 57.5 33.5t57.5 34.5q10 5 13 16t-3 21v1q-5 8 -16.5 11t-21.5 -2zM226 576q47 1 75 -71q26 -62 26 -198v-7q0 -124 -30 -187q-28 -62 -70 -62h-5q-24 0 -44 19.5t-36.5 80t-17.5 157.5v10
q0 126 26 191q28 66 76 67zM221 -9h6q42 0 73.5 26.5t49.5 69.5q35 83 35 213v4q-10 335 -161 330h-5q-43 -2 -74.5 -30.5t-47.5 -72.5q-32 -83 -32 -216v-9q0 -144 40 -226t116 -89z" />
    <glyph glyph-name="_266" 
d="M134 684l94 59l87 -67q7 -4 18 -2.5t16 8.5q15 23 -6 41q-85 64 -101 77q-18 11 -30 -1l-103 -66q-22 -15 -12 -34q7 -13 17.5 -17.5t19.5 2.5zM226 576q47 1 75 -71q26 -62 26 -198v-7q0 -124 -30 -187q-28 -62 -70 -62h-5q-24 0 -44 19.5t-36.5 80t-17.5 157.5v10
q0 126 26 191q28 66 76 67zM221 -9h6q42 0 73.5 26.5t49.5 69.5q35 83 35 213v4q-10 335 -161 330h-5q-43 -2 -74.5 -30.5t-47.5 -72.5q-32 -83 -32 -216v-9q0 -144 40 -226t116 -89z" />
    <glyph glyph-name="_267" 
d="M133 756q-27 -29 -27 -35t6.5 -10.5t14.5 -4.5q11 0 19 8v-1q29 27 42 26q11 -2 24 -7q59 -28 70 -28q15 0 41 29q22 23 22 36q0 14 -20 14q-13 0 -26 -15q-16 -18 -32 -18q-19 0 -52 18h1q-36 15 -41 15q-13 -3 -42 -27zM226 576q47 1 75 -71q26 -62 26 -198v-7
q0 -124 -30 -187q-28 -62 -70 -62h-5q-24 0 -44 19.5t-36.5 80t-17.5 157.5v10q0 126 26 191q28 66 76 67zM221 -9h6q42 0 73.5 26.5t49.5 69.5q35 83 35 213v4q-10 335 -161 330h-5q-43 -2 -74.5 -30.5t-47.5 -72.5q-32 -83 -32 -216v-9q0 -144 40 -226t116 -89z" />
    <glyph glyph-name="_268" 
d="M179 733q0 19 -13 32t-31 13t-31 -13t-13 -32t13 -32t31 -13t31 13t13 32zM354 733q0 19 -13 32t-32 13q-18 0 -31 -13t-13 -32t13 -32t31 -13q19 0 32 13t13 32zM226 576q47 1 75 -71q26 -62 26 -198v-7q0 -124 -30 -187q-28 -62 -70 -62h-5q-24 0 -44 19.5t-36.5 80
t-17.5 157.5v10q0 126 26 191q28 66 76 67zM221 -9h6q42 0 73.5 26.5t49.5 69.5q35 83 35 213v4q-10 335 -161 330h-5q-43 -2 -74.5 -30.5t-47.5 -72.5q-32 -83 -32 -216v-9q0 -144 40 -226t116 -89z" />
    <glyph glyph-name="_227" 
 />
    <glyph glyph-name="_228" 
d="M290 641l-116 -67v1q-10 -5 -13 -16.5t3 -22.5q15 -20 38 -10q19 11 58 34t58 34q10 5 14 15t-1 17q-6 12 -18.5 16.5t-22.5 -1.5zM231 201q47 8 69 8v-116q-7 -12 -18 -23q-18 -18 -54 -21q-2 0 -5 -0.5t-5 -0.5h-8q-19 3 -29.5 6.5t-21 19.5t-10.5 44q1 37 20.5 56
t61.5 27zM133 21q33 -27 79 -27h13q32 5 74 28q4 -14 12 -22t18 -8q12 1 20.5 6.5t7.5 16.5l-1 321q0 35 -20 63q-31 43 -103 43q-37 0 -67 -16.5t-39.5 -28.5t-13.5 -19q-5 -11 -2 -22t13 -16q11 -6 22 -3t16 13t16 17q21 19 55 19q29 -1 44.5 -8.5t18 -14.5t3.5 -18v-71
q-1 -2 -1 -12q-6 -2 -35 -7q-75 -10 -105 -26q-63 -32 -66 -109v-5q0 -62 41 -94z" />
    <glyph glyph-name="_229" 
d="M290 641l-116 -67v1q-10 -5 -13 -16.5t3 -22.5q15 -20 38 -10q19 11 58 34t58 34q10 5 14 15t-1 17q-6 12 -18.5 16.5t-22.5 -1.5zM231 201q47 8 69 8v-116q-7 -12 -18 -23q-18 -18 -54 -21q-2 0 -5 -0.5t-5 -0.5h-8q-19 3 -29.5 6.5t-21 19.5t-10.5 44q1 37 20.5 56
t61.5 27zM133 21q33 -27 79 -27h13q32 5 74 28q4 -14 12 -22t18 -8q12 1 20.5 6.5t7.5 16.5l-1 321q0 35 -20 63q-31 43 -103 43q-37 0 -67 -16.5t-39.5 -28.5t-13.5 -19q-5 -11 -2 -22t13 -16q11 -6 22 -3t16 13t16 17q21 19 55 19q29 -1 44.5 -8.5t18 -14.5t3.5 -18v-71
q-1 -2 -1 -12q-6 -2 -35 -7q-75 -10 -105 -26q-63 -32 -66 -109v-5q0 -62 41 -94z" />
    <glyph glyph-name="_230" 
d="M152 523l93 60l87 -67q7 -4 18.5 -2.5t15.5 8.5q7 10 5 21.5t-10 18.5q-16 13 -101 77q-19 11 -31 -1l-103 -66q-22 -16 -11 -34q6 -12 16.5 -16.5t20.5 1.5zM231 201q47 8 69 8v-116q-7 -12 -18 -23q-18 -18 -54 -21q-2 0 -5 -0.5t-5 -0.5h-8q-19 3 -29.5 6.5t-21 19.5
t-10.5 44q1 37 20.5 56t61.5 27zM133 21q33 -27 79 -27h13q32 5 74 28q4 -14 12 -22t18 -8q12 1 20.5 6.5t7.5 16.5l-1 321q0 35 -20 63q-31 43 -103 43q-37 0 -67 -16.5t-39.5 -28.5t-13.5 -19q-5 -11 -2 -22t13 -16q11 -6 22 -3t16 13t16 17q21 19 55 19q29 -1 44.5 -8.5
t18 -14.5t3.5 -18v-71q-1 -2 -1 -12q-6 -2 -35 -7q-75 -10 -105 -26q-63 -32 -66 -109v-5q0 -62 41 -94z" />
    <glyph glyph-name="_231" 
d="M176 614q-13 -3 -43 -28q-27 -29 -27 -35q0 -5 6.5 -10t14.5 -5q11 0 19 9v-1q29 26 42 25q11 -2 24 -7q62 -28 70 -28q14 0 41 29q22 25 22 36q0 6 -6 10.5t-14 4.5q-12 0 -26 -16q-15 -17 -32 -17q-21 0 -52 17h1q-10 4 -18.5 7.5t-14.5 6t-7 2.5zM231 201q47 8 69 8
v-116q-7 -12 -18 -23q-18 -18 -54 -21q-2 0 -5 -0.5t-5 -0.5h-8q-19 3 -29.5 6.5t-21 19.5t-10.5 44q1 37 20.5 56t61.5 27zM133 21q33 -27 79 -27h13q32 5 74 28q4 -14 12 -22t18 -8q12 1 20.5 6.5t7.5 16.5l-1 321q0 35 -20 63q-31 43 -103 43q-37 0 -67 -16.5
t-39.5 -28.5t-13.5 -19q-5 -11 -2 -22t13 -16q11 -6 22 -3t16 13t16 17q21 19 55 19q29 -1 44.5 -8.5t18 -14.5t3.5 -18v-71q-1 -2 -1 -12q-6 -2 -35 -7q-75 -10 -105 -26q-63 -32 -66 -109v-5q0 -62 41 -94z" />
    <glyph glyph-name="_232" 
d="M199 556q0 19 -13 32t-30 13q-19 0 -31.5 -13t-12.5 -32t12.5 -32t31.5 -13q17 0 30 13t13 32zM374 556q0 19 -13 32t-31 13q-19 0 -32 -13t-13 -32t13 -32t32 -13q18 0 31 13t13 32zM231 201q47 8 69 8v-116q-7 -12 -18 -23q-18 -18 -54 -21q-2 0 -5 -0.5t-5 -0.5h-8
q-19 3 -29.5 6.5t-21 19.5t-10.5 44q1 37 20.5 56t61.5 27zM133 21q33 -27 79 -27h13q32 5 74 28q4 -14 12 -22t18 -8q12 1 20.5 6.5t7.5 16.5l-1 321q0 35 -20 63q-31 43 -103 43q-37 0 -67 -16.5t-39.5 -28.5t-13.5 -19q-5 -11 -2 -22t13 -16q11 -6 22 -3t16 13t16 17
q21 19 55 19q29 -1 44.5 -8.5t18 -14.5t3.5 -18v-71q-1 -2 -1 -12q-6 -2 -35 -7q-75 -10 -105 -26q-63 -32 -66 -109v-5q0 -62 41 -94z" />
  </font>
</defs>
</svg>
